<?xml version="1.0" encoding="utf-8"?>
<svg xmlns="http://www.w3.org/2000/svg" xmlns:xlink="http://www.w3.org/1999/xlink" width="600" height="400" viewBox="0 0 2400 1600">
<defs>
  <clipPath id="clip640">
    <rect x="0" y="0" width="2400" height="1600"/>
  </clipPath>
</defs>
<path clip-path="url(#clip640)" d="
M0 1600 L2400 1600 L2400 0 L0 0  Z
  " fill="#ffffff" fill-rule="evenodd" fill-opacity="1"/>
<defs>
  <clipPath id="clip641">
    <rect x="480" y="0" width="1681" height="1600"/>
  </clipPath>
</defs>
<defs>
  <clipPath id="clip642">
    <rect x="178" y="123" width="2175" height="1301"/>
  </clipPath>
</defs>
<path clip-path="url(#clip640)" d="
M217.66 1423.18 L2352.76 1423.18 L2352.76 123.472 L217.66 123.472  Z
  " fill="#ffffff" fill-rule="evenodd" fill-opacity="1"/>
<defs>
  <clipPath id="clip643">
    <rect x="217" y="123" width="2136" height="1301"/>
  </clipPath>
</defs>
<polyline clip-path="url(#clip643)" style="stroke:#000000; stroke-width:2; stroke-opacity:0; fill:none" points="
  274.051,1423.18 274.051,123.472 
  "/>
<polyline clip-path="url(#clip643)" style="stroke:#000000; stroke-width:2; stroke-opacity:0; fill:none" points="
  677.706,1423.18 677.706,123.472 
  "/>
<polyline clip-path="url(#clip643)" style="stroke:#000000; stroke-width:2; stroke-opacity:0; fill:none" points="
  1081.36,1423.18 1081.36,123.472 
  "/>
<polyline clip-path="url(#clip643)" style="stroke:#000000; stroke-width:2; stroke-opacity:0; fill:none" points="
  1485.02,1423.18 1485.02,123.472 
  "/>
<polyline clip-path="url(#clip643)" style="stroke:#000000; stroke-width:2; stroke-opacity:0; fill:none" points="
  1888.67,1423.18 1888.67,123.472 
  "/>
<polyline clip-path="url(#clip643)" style="stroke:#000000; stroke-width:2; stroke-opacity:0; fill:none" points="
  2292.33,1423.18 2292.33,123.472 
  "/>
<polyline clip-path="url(#clip640)" style="stroke:#000000; stroke-width:4; stroke-opacity:1; fill:none" points="
  217.66,1423.18 2352.76,1423.18 
  "/>
<polyline clip-path="url(#clip640)" style="stroke:#000000; stroke-width:4; stroke-opacity:1; fill:none" points="
  274.051,1423.18 274.051,1407.58 
  "/>
<polyline clip-path="url(#clip640)" style="stroke:#000000; stroke-width:4; stroke-opacity:1; fill:none" points="
  677.706,1423.18 677.706,1407.58 
  "/>
<polyline clip-path="url(#clip640)" style="stroke:#000000; stroke-width:4; stroke-opacity:1; fill:none" points="
  1081.36,1423.18 1081.36,1407.58 
  "/>
<polyline clip-path="url(#clip640)" style="stroke:#000000; stroke-width:4; stroke-opacity:1; fill:none" points="
  1485.02,1423.18 1485.02,1407.58 
  "/>
<polyline clip-path="url(#clip640)" style="stroke:#000000; stroke-width:4; stroke-opacity:1; fill:none" points="
  1888.67,1423.18 1888.67,1407.58 
  "/>
<polyline clip-path="url(#clip640)" style="stroke:#000000; stroke-width:4; stroke-opacity:1; fill:none" points="
  2292.33,1423.18 2292.33,1407.58 
  "/>
<path clip-path="url(#clip640)" d="M 0 0 M274.051 1452.37 Q270.439 1452.37 268.611 1455.94 Q266.805 1459.48 266.805 1466.61 Q266.805 1473.71 268.611 1477.28 Q270.439 1480.82 274.051 1480.82 Q277.685 1480.82 279.49 1477.28 Q281.319 1473.71 281.319 1466.61 Q281.319 1459.48 279.49 1455.94 Q277.685 1452.37 274.051 1452.37 M274.051 1448.67 Q279.861 1448.67 282.916 1453.27 Q285.995 1457.86 285.995 1466.61 Q285.995 1475.33 282.916 1479.94 Q279.861 1484.52 274.051 1484.52 Q268.24 1484.52 265.162 1479.94 Q262.106 1475.33 262.106 1466.61 Q262.106 1457.86 265.162 1453.27 Q268.24 1448.67 274.051 1448.67 Z" fill="#000000" fill-rule="evenodd" fill-opacity="1" /><path clip-path="url(#clip640)" d="M 0 0 M641.074 1479.92 L648.713 1479.92 L648.713 1453.55 L640.403 1455.22 L640.403 1450.96 L648.667 1449.29 L653.343 1449.29 L653.343 1479.92 L660.982 1479.92 L660.982 1483.85 L641.074 1483.85 L641.074 1479.92 Z" fill="#000000" fill-rule="evenodd" fill-opacity="1" /><path clip-path="url(#clip640)" d="M 0 0 M676.051 1452.37 Q672.44 1452.37 670.611 1455.94 Q668.806 1459.48 668.806 1466.61 Q668.806 1473.71 670.611 1477.28 Q672.44 1480.82 676.051 1480.82 Q679.685 1480.82 681.491 1477.28 Q683.32 1473.71 683.32 1466.61 Q683.32 1459.48 681.491 1455.94 Q679.685 1452.37 676.051 1452.37 M676.051 1448.67 Q681.861 1448.67 684.917 1453.27 Q687.995 1457.86 687.995 1466.61 Q687.995 1475.33 684.917 1479.94 Q681.861 1484.52 676.051 1484.52 Q670.241 1484.52 667.162 1479.94 Q664.107 1475.33 664.107 1466.61 Q664.107 1457.86 667.162 1453.27 Q670.241 1448.67 676.051 1448.67 Z" fill="#000000" fill-rule="evenodd" fill-opacity="1" /><path clip-path="url(#clip640)" d="M 0 0 M703.065 1452.37 Q699.454 1452.37 697.625 1455.94 Q695.82 1459.48 695.82 1466.61 Q695.82 1473.71 697.625 1477.28 Q699.454 1480.82 703.065 1480.82 Q706.699 1480.82 708.505 1477.28 Q710.333 1473.71 710.333 1466.61 Q710.333 1459.48 708.505 1455.94 Q706.699 1452.37 703.065 1452.37 M703.065 1448.67 Q708.875 1448.67 711.931 1453.27 Q715.009 1457.86 715.009 1466.61 Q715.009 1475.33 711.931 1479.94 Q708.875 1484.52 703.065 1484.52 Q697.255 1484.52 694.176 1479.94 Q691.12 1475.33 691.12 1466.61 Q691.12 1457.86 694.176 1453.27 Q697.255 1448.67 703.065 1448.67 Z" fill="#000000" fill-rule="evenodd" fill-opacity="1" /><path clip-path="url(#clip640)" d="M 0 0 M1049 1479.92 L1065.32 1479.92 L1065.32 1483.85 L1043.38 1483.85 L1043.38 1479.92 Q1046.04 1477.16 1050.62 1472.53 Q1055.23 1467.88 1056.41 1466.54 Q1058.65 1464.01 1059.53 1462.28 Q1060.44 1460.52 1060.44 1458.83 Q1060.44 1456.07 1058.49 1454.34 Q1056.57 1452.6 1053.47 1452.6 Q1051.27 1452.6 1048.82 1453.37 Q1046.39 1454.13 1043.61 1455.68 L1043.61 1450.96 Q1046.43 1449.82 1048.89 1449.25 Q1051.34 1448.67 1053.38 1448.67 Q1058.75 1448.67 1061.94 1451.35 Q1065.14 1454.04 1065.14 1458.53 Q1065.14 1460.66 1064.32 1462.58 Q1063.54 1464.48 1061.43 1467.07 Q1060.85 1467.74 1057.75 1470.96 Q1054.65 1474.15 1049 1479.92 Z" fill="#000000" fill-rule="evenodd" fill-opacity="1" /><path clip-path="url(#clip640)" d="M 0 0 M1080.39 1452.37 Q1076.78 1452.37 1074.95 1455.94 Q1073.14 1459.48 1073.14 1466.61 Q1073.14 1473.71 1074.95 1477.28 Q1076.78 1480.82 1080.39 1480.82 Q1084.02 1480.82 1085.83 1477.28 Q1087.66 1473.71 1087.66 1466.61 Q1087.66 1459.48 1085.83 1455.94 Q1084.02 1452.37 1080.39 1452.37 M1080.39 1448.67 Q1086.2 1448.67 1089.26 1453.27 Q1092.33 1457.86 1092.33 1466.61 Q1092.33 1475.33 1089.26 1479.94 Q1086.2 1484.52 1080.39 1484.52 Q1074.58 1484.52 1071.5 1479.94 Q1068.45 1475.33 1068.45 1466.61 Q1068.45 1457.86 1071.5 1453.27 Q1074.58 1448.67 1080.39 1448.67 Z" fill="#000000" fill-rule="evenodd" fill-opacity="1" /><path clip-path="url(#clip640)" d="M 0 0 M1107.4 1452.37 Q1103.79 1452.37 1101.96 1455.94 Q1100.16 1459.48 1100.16 1466.61 Q1100.16 1473.71 1101.96 1477.28 Q1103.79 1480.82 1107.4 1480.82 Q1111.04 1480.82 1112.84 1477.28 Q1114.67 1473.71 1114.67 1466.61 Q1114.67 1459.48 1112.84 1455.94 Q1111.04 1452.37 1107.4 1452.37 M1107.4 1448.67 Q1113.21 1448.67 1116.27 1453.27 Q1119.35 1457.86 1119.35 1466.61 Q1119.35 1475.33 1116.27 1479.94 Q1113.21 1484.52 1107.4 1484.52 Q1101.59 1484.52 1098.51 1479.94 Q1095.46 1475.33 1095.46 1466.61 Q1095.46 1457.86 1098.51 1453.27 Q1101.59 1448.67 1107.4 1448.67 Z" fill="#000000" fill-rule="evenodd" fill-opacity="1" /><path clip-path="url(#clip640)" d="M 0 0 M1462.25 1465.22 Q1465.61 1465.94 1467.48 1468.2 Q1469.38 1470.47 1469.38 1473.81 Q1469.38 1478.92 1465.86 1481.72 Q1462.34 1484.52 1455.86 1484.52 Q1453.69 1484.52 1451.37 1484.08 Q1449.08 1483.67 1446.63 1482.81 L1446.63 1478.3 Q1448.57 1479.43 1450.89 1480.01 Q1453.2 1480.59 1455.72 1480.59 Q1460.12 1480.59 1462.41 1478.85 Q1464.73 1477.12 1464.73 1473.81 Q1464.73 1470.75 1462.58 1469.04 Q1460.45 1467.3 1456.63 1467.3 L1452.6 1467.3 L1452.6 1463.46 L1456.81 1463.46 Q1460.26 1463.46 1462.09 1462.09 Q1463.92 1460.7 1463.92 1458.11 Q1463.92 1455.45 1462.02 1454.04 Q1460.14 1452.6 1456.63 1452.6 Q1454.71 1452.6 1452.51 1453.02 Q1450.31 1453.44 1447.67 1454.31 L1447.67 1450.15 Q1450.33 1449.41 1452.64 1449.04 Q1454.98 1448.67 1457.04 1448.67 Q1462.37 1448.67 1465.47 1451.1 Q1468.57 1453.5 1468.57 1457.63 Q1468.57 1460.5 1466.93 1462.49 Q1465.28 1464.45 1462.25 1465.22 Z" fill="#000000" fill-rule="evenodd" fill-opacity="1" /><path clip-path="url(#clip640)" d="M 0 0 M1484.45 1452.37 Q1480.84 1452.37 1479.01 1455.94 Q1477.2 1459.48 1477.2 1466.61 Q1477.2 1473.71 1479.01 1477.28 Q1480.84 1480.82 1484.45 1480.82 Q1488.08 1480.82 1489.89 1477.28 Q1491.72 1473.71 1491.72 1466.61 Q1491.72 1459.48 1489.89 1455.94 Q1488.08 1452.37 1484.45 1452.37 M1484.45 1448.67 Q1490.26 1448.67 1493.32 1453.27 Q1496.39 1457.86 1496.39 1466.61 Q1496.39 1475.33 1493.32 1479.94 Q1490.26 1484.52 1484.45 1484.52 Q1478.64 1484.52 1475.56 1479.94 Q1472.51 1475.33 1472.51 1466.61 Q1472.51 1457.86 1475.56 1453.27 Q1478.64 1448.67 1484.45 1448.67 Z" fill="#000000" fill-rule="evenodd" fill-opacity="1" /><path clip-path="url(#clip640)" d="M 0 0 M1511.46 1452.37 Q1507.85 1452.37 1506.02 1455.94 Q1504.22 1459.48 1504.22 1466.61 Q1504.22 1473.71 1506.02 1477.28 Q1507.85 1480.82 1511.46 1480.82 Q1515.1 1480.82 1516.9 1477.28 Q1518.73 1473.71 1518.73 1466.61 Q1518.73 1459.48 1516.9 1455.94 Q1515.1 1452.37 1511.46 1452.37 M1511.46 1448.67 Q1517.27 1448.67 1520.33 1453.27 Q1523.41 1457.86 1523.41 1466.61 Q1523.41 1475.33 1520.33 1479.94 Q1517.27 1484.52 1511.46 1484.52 Q1505.65 1484.52 1502.58 1479.94 Q1499.52 1475.33 1499.52 1466.61 Q1499.52 1457.86 1502.58 1453.27 Q1505.65 1448.67 1511.46 1448.67 Z" fill="#000000" fill-rule="evenodd" fill-opacity="1" /><path clip-path="url(#clip640)" d="M 0 0 M1864.67 1453.37 L1852.86 1471.81 L1864.67 1471.81 L1864.67 1453.37 M1863.44 1449.29 L1869.32 1449.29 L1869.32 1471.81 L1874.25 1471.81 L1874.25 1475.7 L1869.32 1475.7 L1869.32 1483.85 L1864.67 1483.85 L1864.67 1475.7 L1849.07 1475.7 L1849.07 1471.19 L1863.44 1449.29 Z" fill="#000000" fill-rule="evenodd" fill-opacity="1" /><path clip-path="url(#clip640)" d="M 0 0 M1889.32 1452.37 Q1885.71 1452.37 1883.88 1455.94 Q1882.08 1459.48 1882.08 1466.61 Q1882.08 1473.71 1883.88 1477.28 Q1885.71 1480.82 1889.32 1480.82 Q1892.96 1480.82 1894.76 1477.28 Q1896.59 1473.71 1896.59 1466.61 Q1896.59 1459.48 1894.76 1455.94 Q1892.96 1452.37 1889.32 1452.37 M1889.32 1448.67 Q1895.13 1448.67 1898.19 1453.27 Q1901.27 1457.86 1901.27 1466.61 Q1901.27 1475.33 1898.19 1479.94 Q1895.13 1484.52 1889.32 1484.52 Q1883.51 1484.52 1880.43 1479.94 Q1877.38 1475.33 1877.38 1466.61 Q1877.38 1457.86 1880.43 1453.27 Q1883.51 1448.67 1889.32 1448.67 Z" fill="#000000" fill-rule="evenodd" fill-opacity="1" /><path clip-path="url(#clip640)" d="M 0 0 M1916.33 1452.37 Q1912.72 1452.37 1910.9 1455.94 Q1909.09 1459.48 1909.09 1466.61 Q1909.09 1473.71 1910.9 1477.28 Q1912.72 1480.82 1916.33 1480.82 Q1919.97 1480.82 1921.77 1477.28 Q1923.6 1473.71 1923.6 1466.61 Q1923.6 1459.48 1921.77 1455.94 Q1919.97 1452.37 1916.33 1452.37 M1916.33 1448.67 Q1922.15 1448.67 1925.2 1453.27 Q1928.28 1457.86 1928.28 1466.61 Q1928.28 1475.33 1925.2 1479.94 Q1922.15 1484.52 1916.33 1484.52 Q1910.52 1484.52 1907.45 1479.94 Q1904.39 1475.33 1904.39 1466.61 Q1904.39 1457.86 1907.45 1453.27 Q1910.52 1448.67 1916.33 1448.67 Z" fill="#000000" fill-rule="evenodd" fill-opacity="1" /><path clip-path="url(#clip640)" d="M 0 0 M2255.59 1449.29 L2273.95 1449.29 L2273.95 1453.23 L2259.88 1453.23 L2259.88 1461.7 Q2260.89 1461.35 2261.91 1461.19 Q2262.93 1461 2263.95 1461 Q2269.74 1461 2273.12 1464.18 Q2276.5 1467.35 2276.5 1472.76 Q2276.5 1478.34 2273.02 1481.44 Q2269.55 1484.52 2263.23 1484.52 Q2261.06 1484.52 2258.79 1484.15 Q2256.54 1483.78 2254.13 1483.04 L2254.13 1478.34 Q2256.22 1479.48 2258.44 1480.03 Q2260.66 1480.59 2263.14 1480.59 Q2267.14 1480.59 2269.48 1478.48 Q2271.82 1476.38 2271.82 1472.76 Q2271.82 1469.15 2269.48 1467.05 Q2267.14 1464.94 2263.14 1464.94 Q2261.26 1464.94 2259.39 1465.36 Q2257.54 1465.77 2255.59 1466.65 L2255.59 1449.29 Z" fill="#000000" fill-rule="evenodd" fill-opacity="1" /><path clip-path="url(#clip640)" d="M 0 0 M2291.56 1452.37 Q2287.95 1452.37 2286.12 1455.94 Q2284.32 1459.48 2284.32 1466.61 Q2284.32 1473.71 2286.12 1477.28 Q2287.95 1480.82 2291.56 1480.82 Q2295.2 1480.82 2297 1477.28 Q2298.83 1473.71 2298.83 1466.61 Q2298.83 1459.48 2297 1455.94 Q2295.2 1452.37 2291.56 1452.37 M2291.56 1448.67 Q2297.37 1448.67 2300.43 1453.27 Q2303.51 1457.86 2303.51 1466.61 Q2303.51 1475.33 2300.43 1479.94 Q2297.37 1484.52 2291.56 1484.52 Q2285.75 1484.52 2282.68 1479.94 Q2279.62 1475.33 2279.62 1466.61 Q2279.62 1457.86 2282.68 1453.27 Q2285.75 1448.67 2291.56 1448.67 Z" fill="#000000" fill-rule="evenodd" fill-opacity="1" /><path clip-path="url(#clip640)" d="M 0 0 M2318.58 1452.37 Q2314.97 1452.37 2313.14 1455.94 Q2311.33 1459.48 2311.33 1466.61 Q2311.33 1473.71 2313.14 1477.28 Q2314.97 1480.82 2318.58 1480.82 Q2322.21 1480.82 2324.02 1477.28 Q2325.85 1473.71 2325.85 1466.61 Q2325.85 1459.48 2324.02 1455.94 Q2322.21 1452.37 2318.58 1452.37 M2318.58 1448.67 Q2324.39 1448.67 2327.44 1453.27 Q2330.52 1457.86 2330.52 1466.61 Q2330.52 1475.33 2327.44 1479.94 Q2324.39 1484.52 2318.58 1484.52 Q2312.77 1484.52 2309.69 1479.94 Q2306.63 1475.33 2306.63 1466.61 Q2306.63 1457.86 2309.69 1453.27 Q2312.77 1448.67 2318.58 1448.67 Z" fill="#000000" fill-rule="evenodd" fill-opacity="1" /><path clip-path="url(#clip640)" d="M 0 0 M1151.83 1508.52 L1158.26 1508.52 L1158.26 1556.04 L1151.83 1556.04 L1151.83 1508.52 Z" fill="#000000" fill-rule="evenodd" fill-opacity="1" /><path clip-path="url(#clip640)" d="M 0 0 M1170.2 1510.27 L1170.2 1520.4 L1182.26 1520.4 L1182.26 1524.95 L1170.2 1524.95 L1170.2 1544.3 Q1170.2 1548.66 1171.37 1549.9 Q1172.58 1551.14 1176.24 1551.14 L1182.26 1551.14 L1182.26 1556.04 L1176.24 1556.04 Q1169.46 1556.04 1166.89 1553.53 Q1164.31 1550.98 1164.31 1544.3 L1164.31 1524.95 L1160.01 1524.95 L1160.01 1520.4 L1164.31 1520.4 L1164.31 1510.27 L1170.2 1510.27 Z" fill="#000000" fill-rule="evenodd" fill-opacity="1" /><path clip-path="url(#clip640)" d="M 0 0 M1218.89 1536.76 L1218.89 1539.62 L1191.97 1539.62 Q1192.35 1545.67 1195.59 1548.85 Q1198.87 1552 1204.7 1552 Q1208.07 1552 1211.22 1551.17 Q1214.41 1550.35 1217.52 1548.69 L1217.52 1554.23 Q1214.37 1555.57 1211.06 1556.27 Q1207.75 1556.97 1204.35 1556.97 Q1195.82 1556.97 1190.82 1552 Q1185.86 1547.04 1185.86 1538.57 Q1185.86 1529.82 1190.57 1524.69 Q1195.31 1519.54 1203.33 1519.54 Q1210.52 1519.54 1214.69 1524.18 Q1218.89 1528.8 1218.89 1536.76 M1213.04 1535.04 Q1212.97 1530.23 1210.33 1527.37 Q1207.72 1524.5 1203.39 1524.5 Q1198.49 1524.5 1195.53 1527.27 Q1192.6 1530.04 1192.16 1535.07 L1213.04 1535.04 Z" fill="#000000" fill-rule="evenodd" fill-opacity="1" /><path clip-path="url(#clip640)" d="M 0 0 M1245.69 1525.87 Q1244.71 1525.3 1243.53 1525.04 Q1242.38 1524.76 1240.98 1524.76 Q1236.02 1524.76 1233.34 1528 Q1230.7 1531.22 1230.7 1537.27 L1230.7 1556.04 L1224.81 1556.04 L1224.81 1520.4 L1230.7 1520.4 L1230.7 1525.93 Q1232.55 1522.69 1235.51 1521.13 Q1238.47 1519.54 1242.7 1519.54 Q1243.31 1519.54 1244.04 1519.63 Q1244.77 1519.7 1245.66 1519.85 L1245.69 1525.87 Z" fill="#000000" fill-rule="evenodd" fill-opacity="1" /><path clip-path="url(#clip640)" d="M 0 0 M1268.04 1538.12 Q1260.94 1538.12 1258.2 1539.75 Q1255.46 1541.37 1255.46 1545.29 Q1255.46 1548.4 1257.5 1550.25 Q1259.57 1552.07 1263.1 1552.07 Q1267.97 1552.07 1270.9 1548.63 Q1273.86 1545.16 1273.86 1539.43 L1273.86 1538.12 L1268.04 1538.12 M1279.72 1535.71 L1279.72 1556.04 L1273.86 1556.04 L1273.86 1550.63 Q1271.86 1553.88 1268.86 1555.44 Q1265.87 1556.97 1261.54 1556.97 Q1256.07 1556.97 1252.82 1553.91 Q1249.61 1550.82 1249.61 1545.67 Q1249.61 1539.65 1253.62 1536.6 Q1257.66 1533.54 1265.65 1533.54 L1273.86 1533.54 L1273.86 1532.97 Q1273.86 1528.93 1271.19 1526.73 Q1268.55 1524.5 1263.74 1524.5 Q1260.68 1524.5 1257.79 1525.23 Q1254.89 1525.97 1252.22 1527.43 L1252.22 1522.02 Q1255.43 1520.78 1258.46 1520.17 Q1261.48 1519.54 1264.34 1519.54 Q1272.08 1519.54 1275.9 1523.55 Q1279.72 1527.56 1279.72 1535.71 Z" fill="#000000" fill-rule="evenodd" fill-opacity="1" /><path clip-path="url(#clip640)" d="M 0 0 M1291.65 1510.27 L1291.65 1520.4 L1303.72 1520.4 L1303.72 1524.95 L1291.65 1524.95 L1291.65 1544.3 Q1291.65 1548.66 1292.83 1549.9 Q1294.04 1551.14 1297.7 1551.14 L1303.72 1551.14 L1303.72 1556.04 L1297.7 1556.04 Q1290.92 1556.04 1288.34 1553.53 Q1285.76 1550.98 1285.76 1544.3 L1285.76 1524.95 L1281.47 1524.95 L1281.47 1520.4 L1285.76 1520.4 L1285.76 1510.27 L1291.65 1510.27 Z" fill="#000000" fill-rule="evenodd" fill-opacity="1" /><path clip-path="url(#clip640)" d="M 0 0 M1309.86 1520.4 L1315.72 1520.4 L1315.72 1556.04 L1309.86 1556.04 L1309.86 1520.4 M1309.86 1506.52 L1315.72 1506.52 L1315.72 1513.93 L1309.86 1513.93 L1309.86 1506.52 Z" fill="#000000" fill-rule="evenodd" fill-opacity="1" /><path clip-path="url(#clip640)" d="M 0 0 M1335.67 1524.5 Q1330.96 1524.5 1328.22 1528.19 Q1325.49 1531.85 1325.49 1538.25 Q1325.49 1544.65 1328.19 1548.34 Q1330.93 1552 1335.67 1552 Q1340.35 1552 1343.09 1548.31 Q1345.83 1544.62 1345.83 1538.25 Q1345.83 1531.92 1343.09 1528.23 Q1340.35 1524.5 1335.67 1524.5 M1335.67 1519.54 Q1343.31 1519.54 1347.67 1524.5 Q1352.03 1529.47 1352.03 1538.25 Q1352.03 1547 1347.67 1552 Q1343.31 1556.97 1335.67 1556.97 Q1328 1556.97 1323.64 1552 Q1319.31 1547 1319.31 1538.25 Q1319.31 1529.47 1323.64 1524.5 Q1328 1519.54 1335.67 1519.54 Z" fill="#000000" fill-rule="evenodd" fill-opacity="1" /><path clip-path="url(#clip640)" d="M 0 0 M1387.81 1534.53 L1387.81 1556.04 L1381.95 1556.04 L1381.95 1534.72 Q1381.95 1529.66 1379.98 1527.14 Q1378 1524.63 1374.06 1524.63 Q1369.31 1524.63 1366.58 1527.65 Q1363.84 1530.68 1363.84 1535.9 L1363.84 1556.04 L1357.95 1556.04 L1357.95 1520.4 L1363.84 1520.4 L1363.84 1525.93 Q1365.94 1522.72 1368.77 1521.13 Q1371.64 1519.54 1375.36 1519.54 Q1381.51 1519.54 1384.66 1523.36 Q1387.81 1527.14 1387.81 1534.53 Z" fill="#000000" fill-rule="evenodd" fill-opacity="1" /><path clip-path="url(#clip640)" d="M 0 0 M1416.68 1521.45 L1416.68 1526.98 Q1414.19 1525.71 1411.52 1525.07 Q1408.85 1524.44 1405.98 1524.44 Q1401.62 1524.44 1399.42 1525.77 Q1397.26 1527.11 1397.26 1529.79 Q1397.26 1531.82 1398.82 1533 Q1400.38 1534.15 1405.09 1535.2 L1407.1 1535.64 Q1413.33 1536.98 1415.94 1539.43 Q1418.59 1541.85 1418.59 1546.21 Q1418.59 1551.17 1414.64 1554.07 Q1410.72 1556.97 1403.85 1556.97 Q1400.98 1556.97 1397.86 1556.39 Q1394.78 1555.85 1391.34 1554.74 L1391.34 1548.69 Q1394.59 1550.38 1397.74 1551.24 Q1400.89 1552.07 1403.98 1552.07 Q1408.11 1552.07 1410.34 1550.66 Q1412.57 1549.23 1412.57 1546.65 Q1412.57 1544.27 1410.95 1542.99 Q1409.36 1541.72 1403.91 1540.54 L1401.88 1540.07 Q1396.43 1538.92 1394.01 1536.56 Q1391.59 1534.18 1391.59 1530.04 Q1391.59 1525.01 1395.16 1522.27 Q1398.72 1519.54 1405.28 1519.54 Q1408.53 1519.54 1411.39 1520.01 Q1414.26 1520.49 1416.68 1521.45 Z" fill="#000000" fill-rule="evenodd" fill-opacity="1" /><polyline clip-path="url(#clip643)" style="stroke:#000000; stroke-width:2; stroke-opacity:0; fill:none" points="
  217.66,1189.56 2352.76,1189.56 
  "/>
<polyline clip-path="url(#clip643)" style="stroke:#000000; stroke-width:2; stroke-opacity:0; fill:none" points="
  217.66,932.418 2352.76,932.418 
  "/>
<polyline clip-path="url(#clip643)" style="stroke:#000000; stroke-width:2; stroke-opacity:0; fill:none" points="
  217.66,675.271 2352.76,675.271 
  "/>
<polyline clip-path="url(#clip643)" style="stroke:#000000; stroke-width:2; stroke-opacity:0; fill:none" points="
  217.66,418.124 2352.76,418.124 
  "/>
<polyline clip-path="url(#clip643)" style="stroke:#000000; stroke-width:2; stroke-opacity:0; fill:none" points="
  217.66,160.977 2352.76,160.977 
  "/>
<polyline clip-path="url(#clip640)" style="stroke:#000000; stroke-width:4; stroke-opacity:1; fill:none" points="
  217.66,1423.18 217.66,123.472 
  "/>
<polyline clip-path="url(#clip640)" style="stroke:#000000; stroke-width:4; stroke-opacity:1; fill:none" points="
  217.66,1189.56 243.281,1189.56 
  "/>
<polyline clip-path="url(#clip640)" style="stroke:#000000; stroke-width:4; stroke-opacity:1; fill:none" points="
  217.66,932.418 243.281,932.418 
  "/>
<polyline clip-path="url(#clip640)" style="stroke:#000000; stroke-width:4; stroke-opacity:1; fill:none" points="
  217.66,675.271 243.281,675.271 
  "/>
<polyline clip-path="url(#clip640)" style="stroke:#000000; stroke-width:4; stroke-opacity:1; fill:none" points="
  217.66,418.124 243.281,418.124 
  "/>
<polyline clip-path="url(#clip640)" style="stroke:#000000; stroke-width:4; stroke-opacity:1; fill:none" points="
  217.66,160.977 243.281,160.977 
  "/>
<path clip-path="url(#clip640)" d="M 0 0 M133.743 1172.28 L152.1 1172.28 L152.1 1176.22 L138.026 1176.22 L138.026 1184.69 Q139.044 1184.34 140.063 1184.18 Q141.081 1184 142.1 1184 Q147.887 1184 151.267 1187.17 Q154.646 1190.34 154.646 1195.76 Q154.646 1201.34 151.174 1204.44 Q147.702 1207.52 141.382 1207.52 Q139.206 1207.52 136.938 1207.15 Q134.693 1206.78 132.285 1206.03 L132.285 1201.34 Q134.368 1202.47 136.591 1203.03 Q138.813 1203.58 141.29 1203.58 Q145.294 1203.58 147.632 1201.47 Q149.97 1199.37 149.97 1195.76 Q149.97 1192.15 147.632 1190.04 Q145.294 1187.93 141.29 1187.93 Q139.415 1187.93 137.54 1188.35 Q135.688 1188.77 133.743 1189.65 L133.743 1172.28 Z" fill="#000000" fill-rule="evenodd" fill-opacity="1" /><path clip-path="url(#clip640)" d="M 0 0 M169.716 1175.36 Q166.104 1175.36 164.276 1178.93 Q162.47 1182.47 162.47 1189.6 Q162.47 1196.71 164.276 1200.27 Q166.104 1203.81 169.716 1203.81 Q173.35 1203.81 175.155 1200.27 Q176.984 1196.71 176.984 1189.6 Q176.984 1182.47 175.155 1178.93 Q173.35 1175.36 169.716 1175.36 M169.716 1171.66 Q175.526 1171.66 178.581 1176.27 Q181.66 1180.85 181.66 1189.6 Q181.66 1198.33 178.581 1202.93 Q175.526 1207.52 169.716 1207.52 Q163.905 1207.52 160.827 1202.93 Q157.771 1198.33 157.771 1189.6 Q157.771 1180.85 160.827 1176.27 Q163.905 1171.66 169.716 1171.66 Z" fill="#000000" fill-rule="evenodd" fill-opacity="1" /><path clip-path="url(#clip640)" d="M 0 0 M107.725 945.762 L115.364 945.762 L115.364 919.397 L107.054 921.063 L107.054 916.804 L115.318 915.138 L119.994 915.138 L119.994 945.762 L127.632 945.762 L127.632 949.698 L107.725 949.698 L107.725 945.762 Z" fill="#000000" fill-rule="evenodd" fill-opacity="1" /><path clip-path="url(#clip640)" d="M 0 0 M142.702 918.216 Q139.091 918.216 137.262 921.781 Q135.456 925.323 135.456 932.452 Q135.456 939.559 137.262 943.124 Q139.091 946.665 142.702 946.665 Q146.336 946.665 148.142 943.124 Q149.97 939.559 149.97 932.452 Q149.97 925.323 148.142 921.781 Q146.336 918.216 142.702 918.216 M142.702 914.513 Q148.512 914.513 151.567 919.119 Q154.646 923.702 154.646 932.452 Q154.646 941.179 151.567 945.786 Q148.512 950.369 142.702 950.369 Q136.892 950.369 133.813 945.786 Q130.757 941.179 130.757 932.452 Q130.757 923.702 133.813 919.119 Q136.892 914.513 142.702 914.513 Z" fill="#000000" fill-rule="evenodd" fill-opacity="1" /><path clip-path="url(#clip640)" d="M 0 0 M169.716 918.216 Q166.104 918.216 164.276 921.781 Q162.47 925.323 162.47 932.452 Q162.47 939.559 164.276 943.124 Q166.104 946.665 169.716 946.665 Q173.35 946.665 175.155 943.124 Q176.984 939.559 176.984 932.452 Q176.984 925.323 175.155 921.781 Q173.35 918.216 169.716 918.216 M169.716 914.513 Q175.526 914.513 178.581 919.119 Q181.66 923.702 181.66 932.452 Q181.66 941.179 178.581 945.786 Q175.526 950.369 169.716 950.369 Q163.905 950.369 160.827 945.786 Q157.771 941.179 157.771 932.452 Q157.771 923.702 160.827 919.119 Q163.905 914.513 169.716 914.513 Z" fill="#000000" fill-rule="evenodd" fill-opacity="1" /><path clip-path="url(#clip640)" d="M 0 0 M108.72 688.615 L116.359 688.615 L116.359 662.25 L108.049 663.917 L108.049 659.657 L116.313 657.991 L120.989 657.991 L120.989 688.615 L128.628 688.615 L128.628 692.551 L108.72 692.551 L108.72 688.615 Z" fill="#000000" fill-rule="evenodd" fill-opacity="1" /><path clip-path="url(#clip640)" d="M 0 0 M133.743 657.991 L152.1 657.991 L152.1 661.926 L138.026 661.926 L138.026 670.398 Q139.044 670.051 140.063 669.889 Q141.081 669.704 142.1 669.704 Q147.887 669.704 151.267 672.875 Q154.646 676.046 154.646 681.463 Q154.646 687.041 151.174 690.143 Q147.702 693.222 141.382 693.222 Q139.206 693.222 136.938 692.852 Q134.693 692.481 132.285 691.74 L132.285 687.041 Q134.368 688.176 136.591 688.731 Q138.813 689.287 141.29 689.287 Q145.294 689.287 147.632 687.18 Q149.97 685.074 149.97 681.463 Q149.97 677.852 147.632 675.745 Q145.294 673.639 141.29 673.639 Q139.415 673.639 137.54 674.055 Q135.688 674.472 133.743 675.352 L133.743 657.991 Z" fill="#000000" fill-rule="evenodd" fill-opacity="1" /><path clip-path="url(#clip640)" d="M 0 0 M169.716 661.069 Q166.104 661.069 164.276 664.634 Q162.47 668.176 162.47 675.305 Q162.47 682.412 164.276 685.977 Q166.104 689.518 169.716 689.518 Q173.35 689.518 175.155 685.977 Q176.984 682.412 176.984 675.305 Q176.984 668.176 175.155 664.634 Q173.35 661.069 169.716 661.069 M169.716 657.366 Q175.526 657.366 178.581 661.972 Q181.66 666.555 181.66 675.305 Q181.66 684.032 178.581 688.639 Q175.526 693.222 169.716 693.222 Q163.905 693.222 160.827 688.639 Q157.771 684.032 157.771 675.305 Q157.771 666.555 160.827 661.972 Q163.905 657.366 169.716 657.366 Z" fill="#000000" fill-rule="evenodd" fill-opacity="1" /><path clip-path="url(#clip640)" d="M 0 0 M111.313 431.469 L127.632 431.469 L127.632 435.404 L105.688 435.404 L105.688 431.469 Q108.35 428.714 112.933 424.084 Q117.54 419.432 118.72 418.089 Q120.966 415.566 121.845 413.83 Q122.748 412.071 122.748 410.381 Q122.748 407.626 120.804 405.89 Q118.882 404.154 115.781 404.154 Q113.582 404.154 111.128 404.918 Q108.697 405.682 105.92 407.233 L105.92 402.51 Q108.744 401.376 111.197 400.797 Q113.651 400.219 115.688 400.219 Q121.058 400.219 124.253 402.904 Q127.447 405.589 127.447 410.08 Q127.447 412.209 126.637 414.131 Q125.85 416.029 123.744 418.621 Q123.165 419.293 120.063 422.51 Q116.961 425.705 111.313 431.469 Z" fill="#000000" fill-rule="evenodd" fill-opacity="1" /><path clip-path="url(#clip640)" d="M 0 0 M142.702 403.922 Q139.091 403.922 137.262 407.487 Q135.456 411.029 135.456 418.158 Q135.456 425.265 137.262 428.83 Q139.091 432.371 142.702 432.371 Q146.336 432.371 148.142 428.83 Q149.97 425.265 149.97 418.158 Q149.97 411.029 148.142 407.487 Q146.336 403.922 142.702 403.922 M142.702 400.219 Q148.512 400.219 151.567 404.825 Q154.646 409.408 154.646 418.158 Q154.646 426.885 151.567 431.492 Q148.512 436.075 142.702 436.075 Q136.892 436.075 133.813 431.492 Q130.757 426.885 130.757 418.158 Q130.757 409.408 133.813 404.825 Q136.892 400.219 142.702 400.219 Z" fill="#000000" fill-rule="evenodd" fill-opacity="1" /><path clip-path="url(#clip640)" d="M 0 0 M169.716 403.922 Q166.104 403.922 164.276 407.487 Q162.47 411.029 162.47 418.158 Q162.47 425.265 164.276 428.83 Q166.104 432.371 169.716 432.371 Q173.35 432.371 175.155 428.83 Q176.984 425.265 176.984 418.158 Q176.984 411.029 175.155 407.487 Q173.35 403.922 169.716 403.922 M169.716 400.219 Q175.526 400.219 178.581 404.825 Q181.66 409.408 181.66 418.158 Q181.66 426.885 178.581 431.492 Q175.526 436.075 169.716 436.075 Q163.905 436.075 160.827 431.492 Q157.771 426.885 157.771 418.158 Q157.771 409.408 160.827 404.825 Q163.905 400.219 169.716 400.219 Z" fill="#000000" fill-rule="evenodd" fill-opacity="1" /><path clip-path="url(#clip640)" d="M 0 0 M112.308 174.322 L128.628 174.322 L128.628 178.257 L106.683 178.257 L106.683 174.322 Q109.345 171.567 113.929 166.937 Q118.535 162.285 119.716 160.942 Q121.961 158.419 122.841 156.683 Q123.744 154.924 123.744 153.234 Q123.744 150.479 121.799 148.743 Q119.878 147.007 116.776 147.007 Q114.577 147.007 112.123 147.771 Q109.693 148.535 106.915 150.086 L106.915 145.363 Q109.739 144.229 112.193 143.65 Q114.646 143.072 116.683 143.072 Q122.054 143.072 125.248 145.757 Q128.443 148.442 128.443 152.933 Q128.443 155.062 127.632 156.984 Q126.845 158.882 124.739 161.474 Q124.16 162.146 121.058 165.363 Q117.957 168.558 112.308 174.322 Z" fill="#000000" fill-rule="evenodd" fill-opacity="1" /><path clip-path="url(#clip640)" d="M 0 0 M133.743 143.697 L152.1 143.697 L152.1 147.632 L138.026 147.632 L138.026 156.104 Q139.044 155.757 140.063 155.595 Q141.081 155.41 142.1 155.41 Q147.887 155.41 151.267 158.581 Q154.646 161.752 154.646 167.169 Q154.646 172.748 151.174 175.849 Q147.702 178.928 141.382 178.928 Q139.206 178.928 136.938 178.558 Q134.693 178.187 132.285 177.447 L132.285 172.748 Q134.368 173.882 136.591 174.437 Q138.813 174.993 141.29 174.993 Q145.294 174.993 147.632 172.886 Q149.97 170.78 149.97 167.169 Q149.97 163.558 147.632 161.451 Q145.294 159.345 141.29 159.345 Q139.415 159.345 137.54 159.761 Q135.688 160.178 133.743 161.058 L133.743 143.697 Z" fill="#000000" fill-rule="evenodd" fill-opacity="1" /><path clip-path="url(#clip640)" d="M 0 0 M169.716 146.775 Q166.104 146.775 164.276 150.34 Q162.47 153.882 162.47 161.011 Q162.47 168.118 164.276 171.683 Q166.104 175.224 169.716 175.224 Q173.35 175.224 175.155 171.683 Q176.984 168.118 176.984 161.011 Q176.984 153.882 175.155 150.34 Q173.35 146.775 169.716 146.775 M169.716 143.072 Q175.526 143.072 178.581 147.678 Q181.66 152.262 181.66 161.011 Q181.66 169.738 178.581 174.345 Q175.526 178.928 169.716 178.928 Q163.905 178.928 160.827 174.345 Q157.771 169.738 157.771 161.011 Q157.771 152.262 160.827 147.678 Q163.905 143.072 169.716 143.072 Z" fill="#000000" fill-rule="evenodd" fill-opacity="1" /><path clip-path="url(#clip640)" d="M 0 0 M41.6936 771.316 Q41.8869 771.348 42.4666 771.67 L87.2005 793.956 Q87.6192 794.182 87.748 794.279 Q87.909 794.343 88.1023 794.536 Q88.2955 794.729 88.3277 794.987 Q88.3921 795.245 88.3921 795.663 Q88.3921 796.211 88.2311 796.533 Q88.1023 796.823 87.909 796.952 Q87.748 797.08 87.2005 797.37 L42.4666 819.689 L41.6936 820.011 Q41.3394 820.011 41.2428 819.721 Q41.1461 819.431 41.1461 818.562 L41.1461 772.765 Q41.1461 771.895 41.2428 771.606 Q41.3394 771.316 41.6936 771.316 M45.8482 775.599 L45.8482 811.895 L82.1764 793.763 L82.1764 793.699 L45.8482 775.599 Z" fill="#000000" fill-rule="evenodd" fill-opacity="1" /><path clip-path="url(#clip640)" d="M 0 0 M68.9076 730.996 Q72.1604 730.996 75.4132 732.671 Q78.666 734.345 81.178 737.083 Q83.6579 739.82 85.2682 743.556 Q86.8785 747.292 87.0073 751.189 L96.8301 753.701 Q99.2133 754.184 99.471 754.442 Q99.7286 754.699 99.7286 755.086 Q99.7286 755.891 98.9879 755.891 Q98.7624 755.891 93.1908 754.442 L87.0073 752.896 Q86.6852 758.757 83.3036 762.171 Q79.922 765.585 75.0589 765.585 Q71.7739 765.585 68.5211 763.91 Q65.2361 762.203 62.7563 759.466 Q60.2764 756.696 58.6983 752.96 Q57.1202 749.224 56.9914 745.392 L41.758 741.559 Q40.8885 741.366 40.663 741.205 Q40.4376 741.044 40.4376 740.561 Q40.4376 740.207 40.5986 740.014 Q40.7597 739.82 40.9207 739.82 L41.0817 739.788 L42.0157 739.981 L56.9914 743.685 Q57.2169 740.4 58.3763 737.856 Q59.5357 735.312 61.2748 733.862 Q62.9817 732.413 64.9141 731.704 Q66.8464 730.996 68.9076 730.996 M58.4407 745.778 Q58.7627 749.321 60.5019 752.316 Q62.241 755.311 64.8174 757.244 Q67.3617 759.176 70.4213 760.239 Q73.4486 761.302 76.4438 761.302 Q78.7948 761.302 80.5983 760.529 Q82.4018 759.724 83.4324 758.403 Q84.4308 757.083 84.9783 755.633 Q85.4936 754.152 85.558 752.574 L58.4407 745.778 M67.5227 735.312 Q63.336 735.312 60.9849 737.727 Q58.6339 740.142 58.4407 744.072 L85.558 750.867 Q85.3326 748.001 84.141 745.489 Q82.9171 742.944 81.1136 741.109 Q79.2779 739.273 77.0235 737.952 Q74.7369 736.632 72.3214 735.988 Q69.8738 735.312 67.5227 735.312 Z" fill="#000000" fill-rule="evenodd" fill-opacity="1" /><path clip-path="url(#clip640)" d="M 0 0 M823.526 12.096 L834.545 12.096 L861.362 62.6918 L861.362 12.096 L869.302 12.096 L869.302 72.576 L858.283 72.576 L831.466 21.9802 L831.466 72.576 L823.526 72.576 L823.526 12.096 Z" fill="#000000" fill-rule="evenodd" fill-opacity="1" /><path clip-path="url(#clip640)" d="M 0 0 M894.701 32.4315 Q888.705 32.4315 885.222 37.1306 Q881.738 41.7891 881.738 49.9314 Q881.738 58.0738 885.181 62.7728 Q888.665 67.4314 894.701 67.4314 Q900.656 67.4314 904.139 62.7323 Q907.623 58.0333 907.623 49.9314 Q907.623 41.8701 904.139 37.1711 Q900.656 32.4315 894.701 32.4315 M894.701 26.1121 Q904.423 26.1121 909.973 32.4315 Q915.522 38.7509 915.522 49.9314 Q915.522 61.0714 909.973 67.4314 Q904.423 73.7508 894.701 73.7508 Q884.938 73.7508 879.388 67.4314 Q873.879 61.0714 873.879 49.9314 Q873.879 38.7509 879.388 32.4315 Q884.938 26.1121 894.701 26.1121 Z" fill="#000000" fill-rule="evenodd" fill-opacity="1" /><path clip-path="url(#clip640)" d="M 0 0 M949.631 34.1734 Q948.375 33.4443 946.876 33.1202 Q945.418 32.7556 943.636 32.7556 Q937.316 32.7556 933.913 36.8875 Q930.551 40.9789 930.551 48.6757 L930.551 72.576 L923.057 72.576 L923.057 27.2059 L930.551 27.2059 L930.551 34.2544 Q932.901 30.1225 936.668 28.1376 Q940.435 26.1121 945.823 26.1121 Q946.593 26.1121 947.525 26.2337 Q948.456 26.3147 949.59 26.5172 L949.631 34.1734 Z" fill="#000000" fill-rule="evenodd" fill-opacity="1" /><path clip-path="url(#clip640)" d="M 0 0 M991.315 35.9153 Q994.11 30.8922 997.999 28.5022 Q1001.89 26.1121 1007.15 26.1121 Q1014.24 26.1121 1018.09 31.0947 Q1021.94 36.0368 1021.94 45.1919 L1021.94 72.576 L1014.45 72.576 L1014.45 45.4349 Q1014.45 38.913 1012.14 35.7533 Q1009.83 32.5936 1005.09 32.5936 Q999.295 32.5936 995.933 36.4419 Q992.571 40.2903 992.571 46.9338 L992.571 72.576 L985.076 72.576 L985.076 45.4349 Q985.076 38.8725 982.767 35.7533 Q980.458 32.5936 975.638 32.5936 Q969.926 32.5936 966.564 36.4824 Q963.202 40.3308 963.202 46.9338 L963.202 72.576 L955.707 72.576 L955.707 27.2059 L963.202 27.2059 L963.202 34.2544 Q965.754 30.082 969.318 28.0971 Q972.883 26.1121 977.785 26.1121 Q982.727 26.1121 986.17 28.6237 Q989.654 31.1352 991.315 35.9153 Z" fill="#000000" fill-rule="evenodd" fill-opacity="1" /><path clip-path="url(#clip640)" d="M 0 0 M1073.71 32.4315 Q1067.71 32.4315 1064.23 37.1306 Q1060.75 41.7891 1060.75 49.9314 Q1060.75 58.0738 1064.19 62.7728 Q1067.67 67.4314 1073.71 67.4314 Q1079.67 67.4314 1083.15 62.7323 Q1086.63 58.0333 1086.63 49.9314 Q1086.63 41.8701 1083.15 37.1711 Q1079.67 32.4315 1073.71 32.4315 M1073.71 26.1121 Q1083.43 26.1121 1088.98 32.4315 Q1094.53 38.7509 1094.53 49.9314 Q1094.53 61.0714 1088.98 67.4314 Q1083.43 73.7508 1073.71 73.7508 Q1063.95 73.7508 1058.4 67.4314 Q1052.89 61.0714 1052.89 49.9314 Q1052.89 38.7509 1058.4 32.4315 Q1063.95 26.1121 1073.71 26.1121 Z" fill="#000000" fill-rule="evenodd" fill-opacity="1" /><path clip-path="url(#clip640)" d="M 0 0 M1125.32 9.54393 L1125.32 15.7418 L1118.19 15.7418 Q1114.18 15.7418 1112.6 17.3622 Q1111.06 18.9825 1111.06 23.1955 L1111.06 27.2059 L1123.33 27.2059 L1123.33 32.9987 L1111.06 32.9987 L1111.06 72.576 L1103.57 72.576 L1103.57 32.9987 L1096.44 32.9987 L1096.44 27.2059 L1103.57 27.2059 L1103.57 24.0462 Q1103.57 16.471 1107.09 13.0277 Q1110.61 9.54393 1118.27 9.54393 L1125.32 9.54393 Z" fill="#000000" fill-rule="evenodd" fill-opacity="1" /><path clip-path="url(#clip640)" d="M 0 0 M1201.07 63.9476 L1201.07 47.7034 L1187.7 47.7034 L1187.7 40.9789 L1209.17 40.9789 L1209.17 66.9452 Q1204.43 70.3075 1198.72 72.0494 Q1193.01 73.7508 1186.53 73.7508 Q1172.35 73.7508 1164.33 65.4869 Q1156.35 57.1826 1156.35 42.3968 Q1156.35 27.5705 1164.33 19.3066 Q1172.35 11.0023 1186.53 11.0023 Q1192.44 11.0023 1197.75 12.4606 Q1203.1 13.9189 1207.59 16.7545 L1207.59 25.464 Q1203.06 21.6156 1197.95 19.6712 Q1192.85 17.7268 1187.22 17.7268 Q1176.12 17.7268 1170.53 23.9246 Q1164.98 30.1225 1164.98 42.3968 Q1164.98 54.6305 1170.53 60.8284 Q1176.12 67.0263 1187.22 67.0263 Q1191.55 67.0263 1194.95 66.2971 Q1198.36 65.5274 1201.07 63.9476 Z" fill="#000000" fill-rule="evenodd" fill-opacity="1" /><path clip-path="url(#clip640)" d="M 0 0 M1243.28 34.1734 Q1242.03 33.4443 1240.53 33.1202 Q1239.07 32.7556 1237.29 32.7556 Q1230.97 32.7556 1227.56 36.8875 Q1224.2 40.9789 1224.2 48.6757 L1224.2 72.576 L1216.71 72.576 L1216.71 27.2059 L1224.2 27.2059 L1224.2 34.2544 Q1226.55 30.1225 1230.32 28.1376 Q1234.09 26.1121 1239.47 26.1121 Q1240.24 26.1121 1241.17 26.2337 Q1242.11 26.3147 1243.24 26.5172 L1243.28 34.1734 Z" fill="#000000" fill-rule="evenodd" fill-opacity="1" /><path clip-path="url(#clip640)" d="M 0 0 M1271.72 49.7694 Q1262.68 49.7694 1259.2 51.8354 Q1255.72 53.9013 1255.72 58.8839 Q1255.72 62.8538 1258.31 65.2034 Q1260.94 67.5124 1265.44 67.5124 Q1271.64 67.5124 1275.36 63.1374 Q1279.13 58.7219 1279.13 51.4303 L1279.13 49.7694 L1271.72 49.7694 M1286.59 46.6907 L1286.59 72.576 L1279.13 72.576 L1279.13 65.6895 Q1276.58 69.8214 1272.77 71.8063 Q1268.96 73.7508 1263.45 73.7508 Q1256.49 73.7508 1252.36 69.8619 Q1248.26 65.9325 1248.26 59.3701 Q1248.26 51.7138 1253.37 47.825 Q1258.51 43.9361 1268.68 43.9361 L1279.13 43.9361 L1279.13 43.2069 Q1279.13 38.0623 1275.73 35.2672 Q1272.37 32.4315 1266.25 32.4315 Q1262.36 32.4315 1258.67 33.3632 Q1254.99 34.295 1251.59 36.1584 L1251.59 29.2718 Q1255.68 27.692 1259.53 26.9223 Q1263.37 26.1121 1267.02 26.1121 Q1276.86 26.1121 1281.72 31.2163 Q1286.59 36.3204 1286.59 46.6907 Z" fill="#000000" fill-rule="evenodd" fill-opacity="1" /><path clip-path="url(#clip640)" d="M 0 0 M1324.26 34.0924 L1324.26 9.54393 L1331.71 9.54393 L1331.71 72.576 L1324.26 72.576 L1324.26 65.7705 Q1321.91 69.8214 1318.3 71.8063 Q1314.74 73.7508 1309.72 73.7508 Q1301.49 73.7508 1296.31 67.1883 Q1291.16 60.6258 1291.16 49.9314 Q1291.16 39.2371 1296.31 32.6746 Q1301.49 26.1121 1309.72 26.1121 Q1314.74 26.1121 1318.3 28.0971 Q1321.91 30.0415 1324.26 34.0924 M1298.86 49.9314 Q1298.86 58.1548 1302.22 62.8538 Q1305.62 67.5124 1311.54 67.5124 Q1317.45 67.5124 1320.86 62.8538 Q1324.26 58.1548 1324.26 49.9314 Q1324.26 41.7081 1320.86 37.0496 Q1317.45 32.3505 1311.54 32.3505 Q1305.62 32.3505 1302.22 37.0496 Q1298.86 41.7081 1298.86 49.9314 Z" fill="#000000" fill-rule="evenodd" fill-opacity="1" /><path clip-path="url(#clip640)" d="M 0 0 M1339.53 27.2059 L1346.98 27.2059 L1346.98 72.576 L1339.53 72.576 L1339.53 27.2059 M1339.53 9.54393 L1346.98 9.54393 L1346.98 18.9825 L1339.53 18.9825 L1339.53 9.54393 Z" fill="#000000" fill-rule="evenodd" fill-opacity="1" /><path clip-path="url(#clip640)" d="M 0 0 M1393.61 48.0275 L1393.61 51.6733 L1359.34 51.6733 Q1359.83 59.3701 1363.96 63.421 Q1368.13 67.4314 1375.54 67.4314 Q1379.84 67.4314 1383.85 66.3781 Q1387.9 65.3249 1391.87 63.2184 L1391.87 70.267 Q1387.86 71.9684 1383.64 72.8596 Q1379.43 73.7508 1375.1 73.7508 Q1364.24 73.7508 1357.88 67.4314 Q1351.56 61.1119 1351.56 50.3365 Q1351.56 39.1965 1357.56 32.6746 Q1363.59 26.1121 1373.8 26.1121 Q1382.96 26.1121 1388.26 32.0264 Q1393.61 37.9003 1393.61 48.0275 M1386.16 45.84 Q1386.08 39.7232 1382.71 36.0774 Q1379.39 32.4315 1373.88 32.4315 Q1367.64 32.4315 1363.88 35.9558 Q1360.15 39.4801 1359.58 45.8805 L1386.16 45.84 Z" fill="#000000" fill-rule="evenodd" fill-opacity="1" /><path clip-path="url(#clip640)" d="M 0 0 M1439.14 45.1919 L1439.14 72.576 L1431.69 72.576 L1431.69 45.4349 Q1431.69 38.994 1429.18 35.7938 Q1426.67 32.5936 1421.64 32.5936 Q1415.61 32.5936 1412.12 36.4419 Q1408.64 40.2903 1408.64 46.9338 L1408.64 72.576 L1401.14 72.576 L1401.14 27.2059 L1408.64 27.2059 L1408.64 34.2544 Q1411.31 30.163 1414.92 28.1376 Q1418.56 26.1121 1423.3 26.1121 Q1431.12 26.1121 1435.13 30.9732 Q1439.14 35.7938 1439.14 45.1919 Z" fill="#000000" fill-rule="evenodd" fill-opacity="1" /><path clip-path="url(#clip640)" d="M 0 0 M1454.33 14.324 L1454.33 27.2059 L1469.69 27.2059 L1469.69 32.9987 L1454.33 32.9987 L1454.33 57.6282 Q1454.33 63.1779 1455.83 64.7578 Q1457.37 66.3376 1462.03 66.3376 L1469.69 66.3376 L1469.69 72.576 L1462.03 72.576 Q1453.4 72.576 1450.12 69.3758 Q1446.84 66.1351 1446.84 57.6282 L1446.84 32.9987 L1441.37 32.9987 L1441.37 27.2059 L1446.84 27.2059 L1446.84 14.324 L1454.33 14.324 Z" fill="#000000" fill-rule="evenodd" fill-opacity="1" /><path clip-path="url(#clip640)" d="M 0 0 M1503.88 27.2059 L1511.33 27.2059 L1511.33 72.576 L1503.88 72.576 L1503.88 27.2059 M1503.88 9.54393 L1511.33 9.54393 L1511.33 18.9825 L1503.88 18.9825 L1503.88 9.54393 Z" fill="#000000" fill-rule="evenodd" fill-opacity="1" /><path clip-path="url(#clip640)" d="M 0 0 M1556.86 45.1919 L1556.86 72.576 L1549.41 72.576 L1549.41 45.4349 Q1549.41 38.994 1546.9 35.7938 Q1544.38 32.5936 1539.36 32.5936 Q1533.33 32.5936 1529.84 36.4419 Q1526.36 40.2903 1526.36 46.9338 L1526.36 72.576 L1518.86 72.576 L1518.86 27.2059 L1526.36 27.2059 L1526.36 34.2544 Q1529.03 30.163 1532.64 28.1376 Q1536.28 26.1121 1541.02 26.1121 Q1548.84 26.1121 1552.85 30.9732 Q1556.86 35.7938 1556.86 45.1919 Z" fill="#000000" fill-rule="evenodd" fill-opacity="1" /><path clip-path="url(#clip640)" d="M 0 0 M1599.56 18.8205 L1599.56 41.5461 L1609.85 41.5461 Q1615.56 41.5461 1618.68 38.5889 Q1621.8 35.6318 1621.8 30.163 Q1621.8 24.7348 1618.68 21.7777 Q1615.56 18.8205 1609.85 18.8205 L1599.56 18.8205 M1591.38 12.096 L1609.85 12.096 Q1620.02 12.096 1625.2 16.714 Q1630.43 21.2916 1630.43 30.163 Q1630.43 39.1155 1625.2 43.6931 Q1620.02 48.2706 1609.85 48.2706 L1599.56 48.2706 L1599.56 72.576 L1591.38 72.576 L1591.38 12.096 Z" fill="#000000" fill-rule="evenodd" fill-opacity="1" /><path clip-path="url(#clip640)" d="M 0 0 M1679.81 63.9476 L1679.81 47.7034 L1666.44 47.7034 L1666.44 40.9789 L1687.91 40.9789 L1687.91 66.9452 Q1683.17 70.3075 1677.46 72.0494 Q1671.75 73.7508 1665.26 73.7508 Q1651.09 73.7508 1643.06 65.4869 Q1635.08 57.1826 1635.08 42.3968 Q1635.08 27.5705 1643.06 19.3066 Q1651.09 11.0023 1665.26 11.0023 Q1671.18 11.0023 1676.48 12.4606 Q1681.83 13.9189 1686.33 16.7545 L1686.33 25.464 Q1681.79 21.6156 1676.69 19.6712 Q1671.58 17.7268 1665.95 17.7268 Q1654.85 17.7268 1649.26 23.9246 Q1643.71 30.1225 1643.71 42.3968 Q1643.71 54.6305 1649.26 60.8284 Q1654.85 67.0263 1665.95 67.0263 Q1670.29 67.0263 1673.69 66.2971 Q1677.09 65.5274 1679.81 63.9476 Z" fill="#000000" fill-rule="evenodd" fill-opacity="1" /><path clip-path="url(#clip640)" d="M 0 0 M1704.23 18.8205 L1704.23 65.8515 L1714.12 65.8515 Q1726.63 65.8515 1732.43 60.1802 Q1738.26 54.509 1738.26 42.2752 Q1738.26 30.1225 1732.43 24.4918 Q1726.63 18.8205 1714.12 18.8205 L1704.23 18.8205 M1696.05 12.096 L1712.86 12.096 Q1730.44 12.096 1738.67 19.4281 Q1746.89 26.7198 1746.89 42.2752 Q1746.89 57.9117 1738.63 65.2439 Q1730.36 72.576 1712.86 72.576 L1696.05 72.576 L1696.05 12.096 Z" fill="#000000" fill-rule="evenodd" fill-opacity="1" /><polyline clip-path="url(#clip643)" style="stroke:#009af9; stroke-width:10; stroke-opacity:1; fill:none" points="
  278.087,160.256 282.124,473.832 286.16,708.921 290.197,884.874 294.233,1016.52 298.27,1114.82 302.306,1187.93 306.343,1241.97 310.38,1281.46 314.416,1309.83 
  318.453,1329.69 322.489,1343.14 326.526,1351.93 330.562,1357.46 334.599,1360.85 338.635,1362.89 342.672,1364.11 346.709,1364.84 350.745,1365.29 354.782,1365.57 
  358.818,1365.76 362.855,1365.9 366.891,1366 370.928,1366.09 374.964,1366.16 379.001,1366.24 383.038,1366.3 387.074,1366.37 391.111,1366.43 395.147,1366.49 
  399.184,1366.56 403.22,1366.62 407.257,1366.68 411.293,1366.74 415.33,1366.8 419.367,1366.86 423.403,1366.92 427.44,1366.98 431.476,1367.04 435.513,1367.1 
  439.549,1367.16 443.586,1367.22 447.622,1367.28 451.659,1367.34 455.696,1367.4 459.732,1367.46 463.769,1367.52 467.805,1367.58 471.842,1367.64 475.878,1367.7 
  479.915,1367.76 483.951,1367.82 487.988,1367.88 492.025,1367.94 496.061,1368 500.098,1368.06 504.134,1368.12 508.171,1368.17 512.207,1368.23 516.244,1368.29 
  520.281,1368.35 524.317,1368.41 528.354,1368.47 532.39,1368.52 536.427,1368.58 540.463,1368.64 544.5,1368.7 548.536,1368.75 552.573,1368.81 556.61,1368.87 
  560.646,1368.93 564.683,1368.98 568.719,1369.04 572.756,1369.1 576.792,1369.15 580.829,1369.21 584.865,1369.27 588.902,1369.32 592.939,1369.38 596.975,1369.44 
  601.012,1369.49 605.048,1369.55 609.085,1369.61 613.121,1369.66 617.158,1369.72 621.194,1369.77 625.231,1369.83 629.268,1369.89 633.304,1369.94 637.341,1370 
  641.377,1370.05 645.414,1370.11 649.45,1370.16 653.487,1370.22 657.523,1370.27 661.56,1370.33 665.597,1370.38 669.633,1370.44 673.67,1370.49 677.706,1370.55 
  681.743,1370.6 685.779,1370.65 689.816,1370.71 693.852,1370.76 697.889,1370.82 701.926,1370.87 705.962,1370.92 709.999,1370.98 714.035,1371.03 718.072,1371.09 
  722.108,1371.14 726.145,1371.19 730.181,1371.25 734.218,1371.3 738.255,1371.35 742.291,1371.41 746.328,1371.46 750.364,1371.51 754.401,1371.56 758.437,1371.62 
  762.474,1371.67 766.51,1371.72 770.547,1371.77 774.584,1371.83 778.62,1371.88 782.657,1371.93 786.693,1371.98 790.73,1372.03 794.766,1372.09 798.803,1372.14 
  802.839,1372.19 806.876,1372.24 810.913,1372.29 814.949,1372.34 818.986,1372.4 823.022,1372.45 827.059,1372.5 831.095,1372.55 835.132,1372.6 839.168,1372.65 
  843.205,1372.7 847.242,1372.75 851.278,1372.8 855.315,1372.85 859.351,1372.9 863.388,1372.96 867.424,1373.01 871.461,1373.06 875.497,1373.11 879.534,1373.16 
  883.571,1373.21 887.607,1373.26 891.644,1373.31 895.68,1373.36 899.717,1373.4 903.753,1373.45 907.79,1373.5 911.826,1373.55 915.863,1373.6 919.9,1373.65 
  923.936,1373.7 927.973,1373.75 932.009,1373.8 936.046,1373.85 940.082,1373.9 944.119,1373.95 948.155,1373.99 952.192,1374.04 956.229,1374.09 960.265,1374.14 
  964.302,1374.19 968.338,1374.24 972.375,1374.28 976.411,1374.33 980.448,1374.38 984.484,1374.43 988.521,1374.48 992.558,1374.52 996.594,1374.57 1000.63,1374.62 
  1004.67,1374.67 1008.7,1374.71 1012.74,1374.76 1016.78,1374.81 1020.81,1374.86 1024.85,1374.9 1028.89,1374.95 1032.92,1375 1036.96,1375.04 1041,1375.09 
  1045.03,1375.14 1049.07,1375.18 1053.11,1375.23 1057.14,1375.28 1061.18,1375.32 1065.22,1375.37 1069.25,1375.42 1073.29,1375.46 1077.33,1375.51 1081.36,1375.55 
  1085.4,1375.6 1089.43,1375.65 1093.47,1375.69 1097.51,1375.74 1101.54,1375.78 1105.58,1375.83 1109.62,1375.87 1113.65,1375.92 1117.69,1375.96 1121.73,1376.01 
  1125.76,1376.05 1129.8,1376.1 1133.84,1376.14 1137.87,1376.19 1141.91,1376.23 1145.95,1376.28 1149.98,1376.32 1154.02,1376.37 1158.06,1376.41 1162.09,1376.46 
  1166.13,1376.5 1170.17,1376.55 1174.2,1376.59 1178.24,1376.63 1182.28,1376.68 1186.31,1376.72 1190.35,1376.77 1194.39,1376.81 1198.42,1376.85 1202.46,1376.9 
  1206.5,1376.94 1210.53,1376.99 1214.57,1377.03 1218.6,1377.07 1222.64,1377.12 1226.68,1377.16 1230.71,1377.2 1234.75,1377.25 1238.79,1377.29 1242.82,1377.33 
  1246.86,1377.37 1250.9,1377.42 1254.93,1377.46 1258.97,1377.5 1263.01,1377.55 1267.04,1377.59 1271.08,1377.63 1275.12,1377.67 1279.15,1377.71 1283.19,1377.76 
  1287.23,1377.8 1291.26,1377.84 1295.3,1377.88 1299.34,1377.93 1303.37,1377.97 1307.41,1378.01 1311.45,1378.05 1315.48,1378.09 1319.52,1378.13 1323.56,1378.18 
  1327.59,1378.22 1331.63,1378.26 1335.66,1378.3 1339.7,1378.34 1343.74,1378.38 1347.77,1378.42 1351.81,1378.47 1355.85,1378.51 1359.88,1378.55 1363.92,1378.59 
  1367.96,1378.63 1371.99,1378.67 1376.03,1378.71 1380.07,1378.75 1384.1,1378.79 1388.14,1378.83 1392.18,1378.87 1396.21,1378.91 1400.25,1378.95 1404.29,1378.99 
  1408.32,1379.03 1412.36,1379.07 1416.4,1379.11 1420.43,1379.15 1424.47,1379.19 1428.51,1379.23 1432.54,1379.27 1436.58,1379.31 1440.62,1379.35 1444.65,1379.39 
  1448.69,1379.43 1452.72,1379.47 1456.76,1379.51 1460.8,1379.55 1464.83,1379.59 1468.87,1379.63 1472.91,1379.67 1476.94,1379.71 1480.98,1379.74 1485.02,1379.78 
  1489.05,1379.82 1493.09,1379.86 1497.13,1379.9 1501.16,1379.94 1505.2,1379.98 1509.24,1380.01 1513.27,1380.05 1517.31,1380.09 1521.35,1380.13 1525.38,1380.17 
  1529.42,1380.21 1533.46,1380.24 1537.49,1380.28 1541.53,1380.32 1545.57,1380.36 1549.6,1380.4 1553.64,1380.43 1557.68,1380.47 1561.71,1380.51 1565.75,1380.55 
  1569.79,1380.58 1573.82,1380.62 1577.86,1380.66 1581.89,1380.7 1585.93,1380.73 1589.97,1380.77 1594,1380.81 1598.04,1380.85 1602.08,1380.88 1606.11,1380.92 
  1610.15,1380.96 1614.19,1380.99 1618.22,1381.03 1622.26,1381.07 1626.3,1381.1 1630.33,1381.14 1634.37,1381.18 1638.41,1381.21 1642.44,1381.25 1646.48,1381.29 
  1650.52,1381.32 1654.55,1381.36 1658.59,1381.39 1662.63,1381.43 1666.66,1381.47 1670.7,1381.5 1674.74,1381.54 1678.77,1381.57 1682.81,1381.61 1686.85,1381.65 
  1690.88,1381.68 1694.92,1381.72 1698.95,1381.75 1702.99,1381.79 1707.03,1381.82 1711.06,1381.86 1715.1,1381.89 1719.14,1381.93 1723.17,1381.97 1727.21,1382 
  1731.25,1382.04 1735.28,1382.07 1739.32,1382.11 1743.36,1382.14 1747.39,1382.18 1751.43,1382.21 1755.47,1382.25 1759.5,1382.28 1763.54,1382.31 1767.58,1382.35 
  1771.61,1382.38 1775.65,1382.42 1779.69,1382.45 1783.72,1382.49 1787.76,1382.52 1791.8,1382.56 1795.83,1382.59 1799.87,1382.62 1803.91,1382.66 1807.94,1382.69 
  1811.98,1382.73 1816.02,1382.76 1820.05,1382.79 1824.09,1382.83 1828.12,1382.86 1832.16,1382.89 1836.2,1382.93 1840.23,1382.96 1844.27,1383 1848.31,1383.03 
  1852.34,1383.06 1856.38,1383.1 1860.42,1383.13 1864.45,1383.16 1868.49,1383.2 1872.53,1383.23 1876.56,1383.26 1880.6,1383.29 1884.64,1383.33 1888.67,1383.36 
  1892.71,1383.39 1896.75,1383.43 1900.78,1383.46 1904.82,1383.49 1908.86,1383.52 1912.89,1383.56 1916.93,1383.59 1920.97,1383.62 1925,1383.65 1929.04,1383.69 
  1933.08,1383.72 1937.11,1383.75 1941.15,1383.78 1945.18,1383.82 1949.22,1383.85 1953.26,1383.88 1957.29,1383.91 1961.33,1383.94 1965.37,1383.98 1969.4,1384.01 
  1973.44,1384.04 1977.48,1384.07 1981.51,1384.1 1985.55,1384.13 1989.59,1384.17 1993.62,1384.2 1997.66,1384.23 2001.7,1384.26 2005.73,1384.29 2009.77,1384.32 
  2013.81,1384.35 2017.84,1384.39 2021.88,1384.42 2025.92,1384.45 2029.95,1384.48 2033.99,1384.51 2038.03,1384.54 2042.06,1384.57 2046.1,1384.6 2050.14,1384.63 
  2054.17,1384.67 2058.21,1384.7 2062.24,1384.73 2066.28,1384.76 2070.32,1384.79 2074.35,1384.82 2078.39,1384.85 2082.43,1384.88 2086.46,1384.91 2090.5,1384.94 
  2094.54,1384.97 2098.57,1385 2102.61,1385.03 2106.65,1385.06 2110.68,1385.09 2114.72,1385.12 2118.76,1385.15 2122.79,1385.18 2126.83,1385.21 2130.87,1385.24 
  2134.9,1385.27 2138.94,1385.3 2142.98,1385.33 2147.01,1385.36 2151.05,1385.39 2155.09,1385.42 2159.12,1385.45 2163.16,1385.48 2167.2,1385.51 2171.23,1385.54 
  2175.27,1385.57 2179.31,1385.59 2183.34,1385.62 2187.38,1385.65 2191.41,1385.68 2195.45,1385.71 2199.49,1385.74 2203.52,1385.77 2207.56,1385.8 2211.6,1385.83 
  2215.63,1385.86 2219.67,1385.89 2223.71,1385.91 2227.74,1385.94 2231.78,1385.97 2235.82,1386 2239.85,1386.03 2243.89,1386.06 2247.93,1386.09 2251.96,1386.11 
  2256,1386.14 2260.04,1386.17 2264.07,1386.2 2268.11,1386.23 2272.15,1386.26 2276.18,1386.28 2280.22,1386.31 2284.26,1386.34 2288.29,1386.37 2292.33,1386.4 
  
  "/>
<path clip-path="url(#clip640)" d="
M1993.33 287.756 L2281.59 287.756 L2281.59 166.796 L1993.33 166.796  Z
  " fill="#ffffff" fill-rule="evenodd" fill-opacity="1"/>
<polyline clip-path="url(#clip640)" style="stroke:#000000; stroke-width:4; stroke-opacity:1; fill:none" points="
  1993.33,287.756 2281.59,287.756 2281.59,166.796 1993.33,166.796 1993.33,287.756 
  "/>
<polyline clip-path="url(#clip640)" style="stroke:#009af9; stroke-width:4; stroke-opacity:1; fill:none" points="
  2017.06,227.276 2159.4,227.276 
  "/>
<path clip-path="url(#clip640)" d="M 0 0 M2196.96 246.963 Q2195.16 251.593 2193.45 253.005 Q2191.73 254.417 2188.86 254.417 L2185.46 254.417 L2185.46 250.852 L2187.96 250.852 Q2189.72 250.852 2190.69 250.019 Q2191.66 249.185 2192.84 246.083 L2193.61 244.139 L2183.12 218.63 L2187.64 218.63 L2195.74 238.908 L2203.84 218.63 L2208.35 218.63 L2196.96 246.963 Z" fill="#000000" fill-rule="evenodd" fill-opacity="1" /><path clip-path="url(#clip640)" d="M 0 0 M2214.23 240.621 L2221.87 240.621 L2221.87 214.255 L2213.56 215.922 L2213.56 211.662 L2221.82 209.996 L2226.5 209.996 L2226.5 240.621 L2234.14 240.621 L2234.14 244.556 L2214.23 244.556 L2214.23 240.621 Z" fill="#000000" fill-rule="evenodd" fill-opacity="1" /></svg>
