<?xml version="1.0" encoding="utf-8"?>
<svg xmlns="http://www.w3.org/2000/svg" xmlns:xlink="http://www.w3.org/1999/xlink" width="600" height="400" viewBox="0 0 2400 1600">
<defs>
  <clipPath id="clip990">
    <rect x="0" y="0" width="2400" height="1600"/>
  </clipPath>
</defs>
<path clip-path="url(#clip990)" d="
M0 1600 L2400 1600 L2400 0 L0 0  Z
  " fill="#ffffff" fill-rule="evenodd" fill-opacity="1"/>
<defs>
  <clipPath id="clip991">
    <rect x="480" y="0" width="1681" height="1600"/>
  </clipPath>
</defs>
<path clip-path="url(#clip990)" d="
M197.852 1423.18 L2352.76 1423.18 L2352.76 183.952 L197.852 183.952  Z
  " fill="#ffffff" fill-rule="evenodd" fill-opacity="1"/>
<defs>
  <clipPath id="clip992">
    <rect x="197" y="183" width="2156" height="1240"/>
  </clipPath>
</defs>
<polyline clip-path="url(#clip992)" style="stroke:#000000; stroke-width:2; stroke-opacity:0; fill:none" points="
  254.766,1423.18 254.766,183.952 
  "/>
<polyline clip-path="url(#clip992)" style="stroke:#000000; stroke-width:2; stroke-opacity:0; fill:none" points="
  662.167,1423.18 662.167,183.952 
  "/>
<polyline clip-path="url(#clip992)" style="stroke:#000000; stroke-width:2; stroke-opacity:0; fill:none" points="
  1069.57,1423.18 1069.57,183.952 
  "/>
<polyline clip-path="url(#clip992)" style="stroke:#000000; stroke-width:2; stroke-opacity:0; fill:none" points="
  1476.97,1423.18 1476.97,183.952 
  "/>
<polyline clip-path="url(#clip992)" style="stroke:#000000; stroke-width:2; stroke-opacity:0; fill:none" points="
  1884.37,1423.18 1884.37,183.952 
  "/>
<polyline clip-path="url(#clip992)" style="stroke:#000000; stroke-width:2; stroke-opacity:0; fill:none" points="
  2291.77,1423.18 2291.77,183.952 
  "/>
<polyline clip-path="url(#clip990)" style="stroke:#000000; stroke-width:4; stroke-opacity:1; fill:none" points="
  197.852,1423.18 2352.76,1423.18 
  "/>
<polyline clip-path="url(#clip990)" style="stroke:#000000; stroke-width:4; stroke-opacity:1; fill:none" points="
  254.766,1423.18 254.766,1408.31 
  "/>
<polyline clip-path="url(#clip990)" style="stroke:#000000; stroke-width:4; stroke-opacity:1; fill:none" points="
  662.167,1423.18 662.167,1408.31 
  "/>
<polyline clip-path="url(#clip990)" style="stroke:#000000; stroke-width:4; stroke-opacity:1; fill:none" points="
  1069.57,1423.18 1069.57,1408.31 
  "/>
<polyline clip-path="url(#clip990)" style="stroke:#000000; stroke-width:4; stroke-opacity:1; fill:none" points="
  1476.97,1423.18 1476.97,1408.31 
  "/>
<polyline clip-path="url(#clip990)" style="stroke:#000000; stroke-width:4; stroke-opacity:1; fill:none" points="
  1884.37,1423.18 1884.37,1408.31 
  "/>
<polyline clip-path="url(#clip990)" style="stroke:#000000; stroke-width:4; stroke-opacity:1; fill:none" points="
  2291.77,1423.18 2291.77,1408.31 
  "/>
<path clip-path="url(#clip990)" d="M 0 0 M254.766 1452.37 Q251.155 1452.37 249.327 1455.94 Q247.521 1459.48 247.521 1466.61 Q247.521 1473.71 249.327 1477.28 Q251.155 1480.82 254.766 1480.82 Q258.401 1480.82 260.206 1477.28 Q262.035 1473.71 262.035 1466.61 Q262.035 1459.48 260.206 1455.94 Q258.401 1452.37 254.766 1452.37 M254.766 1448.67 Q260.576 1448.67 263.632 1453.27 Q266.711 1457.86 266.711 1466.61 Q266.711 1475.33 263.632 1479.94 Q260.576 1484.52 254.766 1484.52 Q248.956 1484.52 245.877 1479.94 Q242.822 1475.33 242.822 1466.61 Q242.822 1457.86 245.877 1453.27 Q248.956 1448.67 254.766 1448.67 Z" fill="#000000" fill-rule="evenodd" fill-opacity="1" /><path clip-path="url(#clip990)" d="M 0 0 M625.535 1479.92 L633.174 1479.92 L633.174 1453.55 L624.864 1455.22 L624.864 1450.96 L633.127 1449.29 L637.803 1449.29 L637.803 1479.92 L645.442 1479.92 L645.442 1483.85 L625.535 1483.85 L625.535 1479.92 Z" fill="#000000" fill-rule="evenodd" fill-opacity="1" /><path clip-path="url(#clip990)" d="M 0 0 M660.512 1452.37 Q656.9 1452.37 655.072 1455.94 Q653.266 1459.48 653.266 1466.61 Q653.266 1473.71 655.072 1477.28 Q656.9 1480.82 660.512 1480.82 Q664.146 1480.82 665.951 1477.28 Q667.78 1473.71 667.78 1466.61 Q667.78 1459.48 665.951 1455.94 Q664.146 1452.37 660.512 1452.37 M660.512 1448.67 Q666.322 1448.67 669.377 1453.27 Q672.456 1457.86 672.456 1466.61 Q672.456 1475.33 669.377 1479.94 Q666.322 1484.52 660.512 1484.52 Q654.701 1484.52 651.623 1479.94 Q648.567 1475.33 648.567 1466.61 Q648.567 1457.86 651.623 1453.27 Q654.701 1448.67 660.512 1448.67 Z" fill="#000000" fill-rule="evenodd" fill-opacity="1" /><path clip-path="url(#clip990)" d="M 0 0 M687.525 1452.37 Q683.914 1452.37 682.086 1455.94 Q680.28 1459.48 680.28 1466.61 Q680.28 1473.71 682.086 1477.28 Q683.914 1480.82 687.525 1480.82 Q691.16 1480.82 692.965 1477.28 Q694.794 1473.71 694.794 1466.61 Q694.794 1459.48 692.965 1455.94 Q691.16 1452.37 687.525 1452.37 M687.525 1448.67 Q693.335 1448.67 696.391 1453.27 Q699.47 1457.86 699.47 1466.61 Q699.47 1475.33 696.391 1479.94 Q693.335 1484.52 687.525 1484.52 Q681.715 1484.52 678.636 1479.94 Q675.581 1475.33 675.581 1466.61 Q675.581 1457.86 678.636 1453.27 Q681.715 1448.67 687.525 1448.67 Z" fill="#000000" fill-rule="evenodd" fill-opacity="1" /><path clip-path="url(#clip990)" d="M 0 0 M1037.21 1479.92 L1053.53 1479.92 L1053.53 1483.85 L1031.58 1483.85 L1031.58 1479.92 Q1034.24 1477.16 1038.83 1472.53 Q1043.43 1467.88 1044.61 1466.54 Q1046.86 1464.01 1047.74 1462.28 Q1048.64 1460.52 1048.64 1458.83 Q1048.64 1456.07 1046.7 1454.34 Q1044.78 1452.6 1041.67 1452.6 Q1039.47 1452.6 1037.02 1453.37 Q1034.59 1454.13 1031.81 1455.68 L1031.81 1450.96 Q1034.64 1449.82 1037.09 1449.25 Q1039.54 1448.67 1041.58 1448.67 Q1046.95 1448.67 1050.15 1451.35 Q1053.34 1454.04 1053.34 1458.53 Q1053.34 1460.66 1052.53 1462.58 Q1051.74 1464.48 1049.64 1467.07 Q1049.06 1467.74 1045.96 1470.96 Q1042.85 1474.15 1037.21 1479.92 Z" fill="#000000" fill-rule="evenodd" fill-opacity="1" /><path clip-path="url(#clip990)" d="M 0 0 M1068.59 1452.37 Q1064.98 1452.37 1063.16 1455.94 Q1061.35 1459.48 1061.35 1466.61 Q1061.35 1473.71 1063.16 1477.28 Q1064.98 1480.82 1068.59 1480.82 Q1072.23 1480.82 1074.03 1477.28 Q1075.86 1473.71 1075.86 1466.61 Q1075.86 1459.48 1074.03 1455.94 Q1072.23 1452.37 1068.59 1452.37 M1068.59 1448.67 Q1074.4 1448.67 1077.46 1453.27 Q1080.54 1457.86 1080.54 1466.61 Q1080.54 1475.33 1077.46 1479.94 Q1074.4 1484.52 1068.59 1484.52 Q1062.78 1484.52 1059.71 1479.94 Q1056.65 1475.33 1056.65 1466.61 Q1056.65 1457.86 1059.71 1453.27 Q1062.78 1448.67 1068.59 1448.67 Z" fill="#000000" fill-rule="evenodd" fill-opacity="1" /><path clip-path="url(#clip990)" d="M 0 0 M1095.61 1452.37 Q1092 1452.37 1090.17 1455.94 Q1088.36 1459.48 1088.36 1466.61 Q1088.36 1473.71 1090.17 1477.28 Q1092 1480.82 1095.61 1480.82 Q1099.24 1480.82 1101.05 1477.28 Q1102.88 1473.71 1102.88 1466.61 Q1102.88 1459.48 1101.05 1455.94 Q1099.24 1452.37 1095.61 1452.37 M1095.61 1448.67 Q1101.42 1448.67 1104.47 1453.27 Q1107.55 1457.86 1107.55 1466.61 Q1107.55 1475.33 1104.47 1479.94 Q1101.42 1484.52 1095.61 1484.52 Q1089.8 1484.52 1086.72 1479.94 Q1083.66 1475.33 1083.66 1466.61 Q1083.66 1457.86 1086.72 1453.27 Q1089.8 1448.67 1095.61 1448.67 Z" fill="#000000" fill-rule="evenodd" fill-opacity="1" /><path clip-path="url(#clip990)" d="M 0 0 M1454.2 1465.22 Q1457.56 1465.94 1459.43 1468.2 Q1461.33 1470.47 1461.33 1473.81 Q1461.33 1478.92 1457.81 1481.72 Q1454.29 1484.52 1447.81 1484.52 Q1445.64 1484.52 1443.32 1484.08 Q1441.03 1483.67 1438.58 1482.81 L1438.58 1478.3 Q1440.52 1479.43 1442.84 1480.01 Q1445.15 1480.59 1447.67 1480.59 Q1452.07 1480.59 1454.36 1478.85 Q1456.68 1477.12 1456.68 1473.81 Q1456.68 1470.75 1454.53 1469.04 Q1452.4 1467.3 1448.58 1467.3 L1444.55 1467.3 L1444.55 1463.46 L1448.76 1463.46 Q1452.21 1463.46 1454.04 1462.09 Q1455.87 1460.7 1455.87 1458.11 Q1455.87 1455.45 1453.97 1454.04 Q1452.09 1452.6 1448.58 1452.6 Q1446.66 1452.6 1444.46 1453.02 Q1442.26 1453.44 1439.62 1454.31 L1439.62 1450.15 Q1442.28 1449.41 1444.59 1449.04 Q1446.93 1448.67 1448.99 1448.67 Q1454.32 1448.67 1457.42 1451.1 Q1460.52 1453.5 1460.52 1457.63 Q1460.52 1460.5 1458.88 1462.49 Q1457.23 1464.45 1454.2 1465.22 Z" fill="#000000" fill-rule="evenodd" fill-opacity="1" /><path clip-path="url(#clip990)" d="M 0 0 M1476.4 1452.37 Q1472.79 1452.37 1470.96 1455.94 Q1469.15 1459.48 1469.15 1466.61 Q1469.15 1473.71 1470.96 1477.28 Q1472.79 1480.82 1476.4 1480.82 Q1480.03 1480.82 1481.84 1477.28 Q1483.67 1473.71 1483.67 1466.61 Q1483.67 1459.48 1481.84 1455.94 Q1480.03 1452.37 1476.4 1452.37 M1476.4 1448.67 Q1482.21 1448.67 1485.27 1453.27 Q1488.34 1457.86 1488.34 1466.61 Q1488.34 1475.33 1485.27 1479.94 Q1482.21 1484.52 1476.4 1484.52 Q1470.59 1484.52 1467.51 1479.94 Q1464.46 1475.33 1464.46 1466.61 Q1464.46 1457.86 1467.51 1453.27 Q1470.59 1448.67 1476.4 1448.67 Z" fill="#000000" fill-rule="evenodd" fill-opacity="1" /><path clip-path="url(#clip990)" d="M 0 0 M1503.41 1452.37 Q1499.8 1452.37 1497.97 1455.94 Q1496.17 1459.48 1496.17 1466.61 Q1496.17 1473.71 1497.97 1477.28 Q1499.8 1480.82 1503.41 1480.82 Q1507.05 1480.82 1508.85 1477.28 Q1510.68 1473.71 1510.68 1466.61 Q1510.68 1459.48 1508.85 1455.94 Q1507.05 1452.37 1503.41 1452.37 M1503.41 1448.67 Q1509.22 1448.67 1512.28 1453.27 Q1515.36 1457.86 1515.36 1466.61 Q1515.36 1475.33 1512.28 1479.94 Q1509.22 1484.52 1503.41 1484.52 Q1497.6 1484.52 1494.53 1479.94 Q1491.47 1475.33 1491.47 1466.61 Q1491.47 1457.86 1494.53 1453.27 Q1497.6 1448.67 1503.41 1448.67 Z" fill="#000000" fill-rule="evenodd" fill-opacity="1" /><path clip-path="url(#clip990)" d="M 0 0 M1860.36 1453.37 L1848.56 1471.81 L1860.36 1471.81 L1860.36 1453.37 M1859.14 1449.29 L1865.02 1449.29 L1865.02 1471.81 L1869.95 1471.81 L1869.95 1475.7 L1865.02 1475.7 L1865.02 1483.85 L1860.36 1483.85 L1860.36 1475.7 L1844.76 1475.7 L1844.76 1471.19 L1859.14 1449.29 Z" fill="#000000" fill-rule="evenodd" fill-opacity="1" /><path clip-path="url(#clip990)" d="M 0 0 M1885.02 1452.37 Q1881.4 1452.37 1879.58 1455.94 Q1877.77 1459.48 1877.77 1466.61 Q1877.77 1473.71 1879.58 1477.28 Q1881.4 1480.82 1885.02 1480.82 Q1888.65 1480.82 1890.46 1477.28 Q1892.28 1473.71 1892.28 1466.61 Q1892.28 1459.48 1890.46 1455.94 Q1888.65 1452.37 1885.02 1452.37 M1885.02 1448.67 Q1890.83 1448.67 1893.88 1453.27 Q1896.96 1457.86 1896.96 1466.61 Q1896.96 1475.33 1893.88 1479.94 Q1890.83 1484.52 1885.02 1484.52 Q1879.21 1484.52 1876.13 1479.94 Q1873.07 1475.33 1873.07 1466.61 Q1873.07 1457.86 1876.13 1453.27 Q1879.21 1448.67 1885.02 1448.67 Z" fill="#000000" fill-rule="evenodd" fill-opacity="1" /><path clip-path="url(#clip990)" d="M 0 0 M1912.03 1452.37 Q1908.42 1452.37 1906.59 1455.94 Q1904.78 1459.48 1904.78 1466.61 Q1904.78 1473.71 1906.59 1477.28 Q1908.42 1480.82 1912.03 1480.82 Q1915.66 1480.82 1917.47 1477.28 Q1919.3 1473.71 1919.3 1466.61 Q1919.3 1459.48 1917.47 1455.94 Q1915.66 1452.37 1912.03 1452.37 M1912.03 1448.67 Q1917.84 1448.67 1920.9 1453.27 Q1923.97 1457.86 1923.97 1466.61 Q1923.97 1475.33 1920.9 1479.94 Q1917.84 1484.52 1912.03 1484.52 Q1906.22 1484.52 1903.14 1479.94 Q1900.09 1475.33 1900.09 1466.61 Q1900.09 1457.86 1903.14 1453.27 Q1906.22 1448.67 1912.03 1448.67 Z" fill="#000000" fill-rule="evenodd" fill-opacity="1" /><path clip-path="url(#clip990)" d="M 0 0 M2255.03 1449.29 L2273.39 1449.29 L2273.39 1453.23 L2259.31 1453.23 L2259.31 1461.7 Q2260.33 1461.35 2261.35 1461.19 Q2262.37 1461 2263.39 1461 Q2269.18 1461 2272.56 1464.18 Q2275.93 1467.35 2275.93 1472.76 Q2275.93 1478.34 2272.46 1481.44 Q2268.99 1484.52 2262.67 1484.52 Q2260.5 1484.52 2258.23 1484.15 Q2255.98 1483.78 2253.57 1483.04 L2253.57 1478.34 Q2255.66 1479.48 2257.88 1480.03 Q2260.1 1480.59 2262.58 1480.59 Q2266.58 1480.59 2268.92 1478.48 Q2271.26 1476.38 2271.26 1472.76 Q2271.26 1469.15 2268.92 1467.05 Q2266.58 1464.94 2262.58 1464.94 Q2260.7 1464.94 2258.83 1465.36 Q2256.98 1465.77 2255.03 1466.65 L2255.03 1449.29 Z" fill="#000000" fill-rule="evenodd" fill-opacity="1" /><path clip-path="url(#clip990)" d="M 0 0 M2291 1452.37 Q2287.39 1452.37 2285.56 1455.94 Q2283.76 1459.48 2283.76 1466.61 Q2283.76 1473.71 2285.56 1477.28 Q2287.39 1480.82 2291 1480.82 Q2294.64 1480.82 2296.44 1477.28 Q2298.27 1473.71 2298.27 1466.61 Q2298.27 1459.48 2296.44 1455.94 Q2294.64 1452.37 2291 1452.37 M2291 1448.67 Q2296.81 1448.67 2299.87 1453.27 Q2302.95 1457.86 2302.95 1466.61 Q2302.95 1475.33 2299.87 1479.94 Q2296.81 1484.52 2291 1484.52 Q2285.19 1484.52 2282.12 1479.94 Q2279.06 1475.33 2279.06 1466.61 Q2279.06 1457.86 2282.12 1453.27 Q2285.19 1448.67 2291 1448.67 Z" fill="#000000" fill-rule="evenodd" fill-opacity="1" /><path clip-path="url(#clip990)" d="M 0 0 M2318.02 1452.37 Q2314.41 1452.37 2312.58 1455.94 Q2310.77 1459.48 2310.77 1466.61 Q2310.77 1473.71 2312.58 1477.28 Q2314.41 1480.82 2318.02 1480.82 Q2321.65 1480.82 2323.46 1477.28 Q2325.29 1473.71 2325.29 1466.61 Q2325.29 1459.48 2323.46 1455.94 Q2321.65 1452.37 2318.02 1452.37 M2318.02 1448.67 Q2323.83 1448.67 2326.88 1453.27 Q2329.96 1457.86 2329.96 1466.61 Q2329.96 1475.33 2326.88 1479.94 Q2323.83 1484.52 2318.02 1484.52 Q2312.21 1484.52 2309.13 1479.94 Q2306.07 1475.33 2306.07 1466.61 Q2306.07 1457.86 2309.13 1453.27 Q2312.21 1448.67 2318.02 1448.67 Z" fill="#000000" fill-rule="evenodd" fill-opacity="1" /><path clip-path="url(#clip990)" d="M 0 0 M1141.93 1508.52 L1148.36 1508.52 L1148.36 1556.04 L1141.93 1556.04 L1141.93 1508.52 Z" fill="#000000" fill-rule="evenodd" fill-opacity="1" /><path clip-path="url(#clip990)" d="M 0 0 M1160.29 1510.27 L1160.29 1520.4 L1172.35 1520.4 L1172.35 1524.95 L1160.29 1524.95 L1160.29 1544.3 Q1160.29 1548.66 1161.47 1549.9 Q1162.68 1551.14 1166.34 1551.14 L1172.35 1551.14 L1172.35 1556.04 L1166.34 1556.04 Q1159.56 1556.04 1156.98 1553.53 Q1154.4 1550.98 1154.4 1544.3 L1154.4 1524.95 L1150.11 1524.95 L1150.11 1520.4 L1154.4 1520.4 L1154.4 1510.27 L1160.29 1510.27 Z" fill="#000000" fill-rule="evenodd" fill-opacity="1" /><path clip-path="url(#clip990)" d="M 0 0 M1208.99 1536.76 L1208.99 1539.62 L1182.06 1539.62 Q1182.44 1545.67 1185.69 1548.85 Q1188.97 1552 1194.79 1552 Q1198.17 1552 1201.32 1551.17 Q1204.5 1550.35 1207.62 1548.69 L1207.62 1554.23 Q1204.47 1555.57 1201.16 1556.27 Q1197.85 1556.97 1194.44 1556.97 Q1185.91 1556.97 1180.92 1552 Q1175.95 1547.04 1175.95 1538.57 Q1175.95 1529.82 1180.66 1524.69 Q1185.4 1519.54 1193.43 1519.54 Q1200.62 1519.54 1204.79 1524.18 Q1208.99 1528.8 1208.99 1536.76 M1203.13 1535.04 Q1203.07 1530.23 1200.43 1527.37 Q1197.82 1524.5 1193.49 1524.5 Q1188.59 1524.5 1185.63 1527.27 Q1182.7 1530.04 1182.25 1535.07 L1203.13 1535.04 Z" fill="#000000" fill-rule="evenodd" fill-opacity="1" /><path clip-path="url(#clip990)" d="M 0 0 M1235.79 1525.87 Q1234.8 1525.3 1233.62 1525.04 Q1232.48 1524.76 1231.08 1524.76 Q1226.11 1524.76 1223.44 1528 Q1220.8 1531.22 1220.8 1537.27 L1220.8 1556.04 L1214.91 1556.04 L1214.91 1520.4 L1220.8 1520.4 L1220.8 1525.93 Q1222.64 1522.69 1225.6 1521.13 Q1228.56 1519.54 1232.8 1519.54 Q1233.4 1519.54 1234.13 1519.63 Q1234.87 1519.7 1235.76 1519.85 L1235.79 1525.87 Z" fill="#000000" fill-rule="evenodd" fill-opacity="1" /><path clip-path="url(#clip990)" d="M 0 0 M1258.13 1538.12 Q1251.03 1538.12 1248.3 1539.75 Q1245.56 1541.37 1245.56 1545.29 Q1245.56 1548.4 1247.6 1550.25 Q1249.67 1552.07 1253.2 1552.07 Q1258.07 1552.07 1261 1548.63 Q1263.96 1545.16 1263.96 1539.43 L1263.96 1538.12 L1258.13 1538.12 M1269.81 1535.71 L1269.81 1556.04 L1263.96 1556.04 L1263.96 1550.63 Q1261.95 1553.88 1258.96 1555.44 Q1255.97 1556.97 1251.64 1556.97 Q1246.17 1556.97 1242.92 1553.91 Q1239.7 1550.82 1239.7 1545.67 Q1239.7 1539.65 1243.71 1536.6 Q1247.76 1533.54 1255.75 1533.54 L1263.96 1533.54 L1263.96 1532.97 Q1263.96 1528.93 1261.28 1526.73 Q1258.64 1524.5 1253.84 1524.5 Q1250.78 1524.5 1247.88 1525.23 Q1244.99 1525.97 1242.31 1527.43 L1242.31 1522.02 Q1245.53 1520.78 1248.55 1520.17 Q1251.58 1519.54 1254.44 1519.54 Q1262.17 1519.54 1265.99 1523.55 Q1269.81 1527.56 1269.81 1535.71 Z" fill="#000000" fill-rule="evenodd" fill-opacity="1" /><path clip-path="url(#clip990)" d="M 0 0 M1281.75 1510.27 L1281.75 1520.4 L1293.81 1520.4 L1293.81 1524.95 L1281.75 1524.95 L1281.75 1544.3 Q1281.75 1548.66 1282.93 1549.9 Q1284.14 1551.14 1287.8 1551.14 L1293.81 1551.14 L1293.81 1556.04 L1287.8 1556.04 Q1281.02 1556.04 1278.44 1553.53 Q1275.86 1550.98 1275.86 1544.3 L1275.86 1524.95 L1271.56 1524.95 L1271.56 1520.4 L1275.86 1520.4 L1275.86 1510.27 L1281.75 1510.27 Z" fill="#000000" fill-rule="evenodd" fill-opacity="1" /><path clip-path="url(#clip990)" d="M 0 0 M1299.96 1520.4 L1305.81 1520.4 L1305.81 1556.04 L1299.96 1556.04 L1299.96 1520.4 M1299.96 1506.52 L1305.81 1506.52 L1305.81 1513.93 L1299.96 1513.93 L1299.96 1506.52 Z" fill="#000000" fill-rule="evenodd" fill-opacity="1" /><path clip-path="url(#clip990)" d="M 0 0 M1325.77 1524.5 Q1321.06 1524.5 1318.32 1528.19 Q1315.58 1531.85 1315.58 1538.25 Q1315.58 1544.65 1318.29 1548.34 Q1321.03 1552 1325.77 1552 Q1330.45 1552 1333.18 1548.31 Q1335.92 1544.62 1335.92 1538.25 Q1335.92 1531.92 1333.18 1528.23 Q1330.45 1524.5 1325.77 1524.5 M1325.77 1519.54 Q1333.41 1519.54 1337.77 1524.5 Q1342.13 1529.47 1342.13 1538.25 Q1342.13 1547 1337.77 1552 Q1333.41 1556.97 1325.77 1556.97 Q1318.1 1556.97 1313.74 1552 Q1309.41 1547 1309.41 1538.25 Q1309.41 1529.47 1313.74 1524.5 Q1318.1 1519.54 1325.77 1519.54 Z" fill="#000000" fill-rule="evenodd" fill-opacity="1" /><path clip-path="url(#clip990)" d="M 0 0 M1377.9 1534.53 L1377.9 1556.04 L1372.05 1556.04 L1372.05 1534.72 Q1372.05 1529.66 1370.07 1527.14 Q1368.1 1524.63 1364.15 1524.63 Q1359.41 1524.63 1356.67 1527.65 Q1353.94 1530.68 1353.94 1535.9 L1353.94 1556.04 L1348.05 1556.04 L1348.05 1520.4 L1353.94 1520.4 L1353.94 1525.93 Q1356.04 1522.72 1358.87 1521.13 Q1361.73 1519.54 1365.46 1519.54 Q1371.6 1519.54 1374.75 1523.36 Q1377.9 1527.14 1377.9 1534.53 Z" fill="#000000" fill-rule="evenodd" fill-opacity="1" /><path clip-path="url(#clip990)" d="M 0 0 M1406.77 1521.45 L1406.77 1526.98 Q1404.29 1525.71 1401.62 1525.07 Q1398.94 1524.44 1396.08 1524.44 Q1391.72 1524.44 1389.52 1525.77 Q1387.36 1527.11 1387.36 1529.79 Q1387.36 1531.82 1388.92 1533 Q1390.48 1534.15 1395.19 1535.2 L1397.19 1535.64 Q1403.43 1536.98 1406.04 1539.43 Q1408.68 1541.85 1408.68 1546.21 Q1408.68 1551.17 1404.73 1554.07 Q1400.82 1556.97 1393.95 1556.97 Q1391.08 1556.97 1387.96 1556.39 Q1384.87 1555.85 1381.44 1554.74 L1381.44 1548.69 Q1384.68 1550.38 1387.83 1551.24 Q1390.99 1552.07 1394.07 1552.07 Q1398.21 1552.07 1400.44 1550.66 Q1402.67 1549.23 1402.67 1546.65 Q1402.67 1544.27 1401.04 1542.99 Q1399.45 1541.72 1394.01 1540.54 L1391.97 1540.07 Q1386.53 1538.92 1384.11 1536.56 Q1381.69 1534.18 1381.69 1530.04 Q1381.69 1525.01 1385.26 1522.27 Q1388.82 1519.54 1395.38 1519.54 Q1398.62 1519.54 1401.49 1520.01 Q1404.35 1520.49 1406.77 1521.45 Z" fill="#000000" fill-rule="evenodd" fill-opacity="1" /><polyline clip-path="url(#clip992)" style="stroke:#000000; stroke-width:2; stroke-opacity:0; fill:none" points="
  197.852,1199.82 2352.76,1199.82 
  "/>
<polyline clip-path="url(#clip992)" style="stroke:#000000; stroke-width:2; stroke-opacity:0; fill:none" points="
  197.852,918.401 2352.76,918.401 
  "/>
<polyline clip-path="url(#clip992)" style="stroke:#000000; stroke-width:2; stroke-opacity:0; fill:none" points="
  197.852,636.984 2352.76,636.984 
  "/>
<polyline clip-path="url(#clip992)" style="stroke:#000000; stroke-width:2; stroke-opacity:0; fill:none" points="
  197.852,355.568 2352.76,355.568 
  "/>
<polyline clip-path="url(#clip990)" style="stroke:#000000; stroke-width:4; stroke-opacity:1; fill:none" points="
  197.852,1423.18 197.852,183.952 
  "/>
<polyline clip-path="url(#clip990)" style="stroke:#000000; stroke-width:4; stroke-opacity:1; fill:none" points="
  197.852,1199.82 223.711,1199.82 
  "/>
<polyline clip-path="url(#clip990)" style="stroke:#000000; stroke-width:4; stroke-opacity:1; fill:none" points="
  197.852,918.401 223.711,918.401 
  "/>
<polyline clip-path="url(#clip990)" style="stroke:#000000; stroke-width:4; stroke-opacity:1; fill:none" points="
  197.852,636.984 223.711,636.984 
  "/>
<polyline clip-path="url(#clip990)" style="stroke:#000000; stroke-width:4; stroke-opacity:1; fill:none" points="
  197.852,355.568 223.711,355.568 
  "/>
<path clip-path="url(#clip990)" d="M 0 0 M152.269 1186.61 L140.464 1205.06 L152.269 1205.06 L152.269 1186.61 M151.042 1182.54 L156.922 1182.54 L156.922 1205.06 L161.852 1205.06 L161.852 1208.95 L156.922 1208.95 L156.922 1217.1 L152.269 1217.1 L152.269 1208.95 L136.667 1208.95 L136.667 1204.44 L151.042 1182.54 Z" fill="#000000" fill-rule="evenodd" fill-opacity="1" /><path clip-path="url(#clip990)" d="M 0 0 M150.325 916.538 Q147.177 916.538 145.325 918.69 Q143.496 920.843 143.496 924.593 Q143.496 928.32 145.325 930.496 Q147.177 932.649 150.325 932.649 Q153.473 932.649 155.302 930.496 Q157.153 928.32 157.153 924.593 Q157.153 920.843 155.302 918.69 Q153.473 916.538 150.325 916.538 M159.607 901.885 L159.607 906.144 Q157.848 905.311 156.042 904.871 Q154.26 904.431 152.501 904.431 Q147.871 904.431 145.417 907.556 Q142.987 910.681 142.64 917.001 Q144.005 914.987 146.066 913.922 Q148.126 912.834 150.603 912.834 Q155.811 912.834 158.82 916.005 Q161.852 919.153 161.852 924.593 Q161.852 929.917 158.704 933.135 Q155.556 936.352 150.325 936.352 Q144.329 936.352 141.158 931.769 Q137.987 927.163 137.987 918.436 Q137.987 910.241 141.876 905.38 Q145.765 900.496 152.316 900.496 Q154.075 900.496 155.857 900.843 Q157.663 901.191 159.607 901.885 Z" fill="#000000" fill-rule="evenodd" fill-opacity="1" /><path clip-path="url(#clip990)" d="M 0 0 M150.001 637.852 Q146.667 637.852 144.746 639.635 Q142.848 641.417 142.848 644.542 Q142.848 647.667 144.746 649.45 Q146.667 651.232 150.001 651.232 Q153.334 651.232 155.255 649.45 Q157.177 647.644 157.177 644.542 Q157.177 641.417 155.255 639.635 Q153.357 637.852 150.001 637.852 M145.325 635.862 Q142.316 635.121 140.626 633.061 Q138.959 631.001 138.959 628.038 Q138.959 623.894 141.899 621.487 Q144.862 619.079 150.001 619.079 Q155.163 619.079 158.103 621.487 Q161.042 623.894 161.042 628.038 Q161.042 631.001 159.353 633.061 Q157.686 635.121 154.7 635.862 Q158.079 636.649 159.954 638.94 Q161.852 641.232 161.852 644.542 Q161.852 649.565 158.774 652.25 Q155.718 654.936 150.001 654.936 Q144.283 654.936 141.204 652.25 Q138.149 649.565 138.149 644.542 Q138.149 641.232 140.047 638.94 Q141.945 636.649 145.325 635.862 M143.612 628.477 Q143.612 631.163 145.279 632.667 Q146.968 634.172 150.001 634.172 Q153.01 634.172 154.7 632.667 Q156.413 631.163 156.413 628.477 Q156.413 625.792 154.7 624.288 Q153.01 622.783 150.001 622.783 Q146.968 622.783 145.279 624.288 Q143.612 625.792 143.612 628.477 Z" fill="#000000" fill-rule="evenodd" fill-opacity="1" /><path clip-path="url(#clip990)" d="M 0 0 M114.931 368.912 L122.57 368.912 L122.57 342.547 L114.26 344.213 L114.26 339.954 L122.524 338.288 L127.2 338.288 L127.2 368.912 L134.839 368.912 L134.839 372.848 L114.931 372.848 L114.931 368.912 Z" fill="#000000" fill-rule="evenodd" fill-opacity="1" /><path clip-path="url(#clip990)" d="M 0 0 M149.908 341.366 Q146.297 341.366 144.468 344.931 Q142.663 348.473 142.663 355.602 Q142.663 362.709 144.468 366.273 Q146.297 369.815 149.908 369.815 Q153.542 369.815 155.348 366.273 Q157.177 362.709 157.177 355.602 Q157.177 348.473 155.348 344.931 Q153.542 341.366 149.908 341.366 M149.908 337.663 Q155.718 337.663 158.774 342.269 Q161.852 346.852 161.852 355.602 Q161.852 364.329 158.774 368.936 Q155.718 373.519 149.908 373.519 Q144.098 373.519 141.019 368.936 Q137.964 364.329 137.964 355.602 Q137.964 346.852 141.019 342.269 Q144.098 337.663 149.908 337.663 Z" fill="#000000" fill-rule="evenodd" fill-opacity="1" /><path clip-path="url(#clip990)" d="M 0 0 M40.4842 875.944 L40.4842 845.898 L45.895 845.898 L45.895 869.515 L59.9632 869.515 L59.9632 846.885 L65.3741 846.885 L65.3741 869.515 L82.5933 869.515 L82.5933 845.325 L88.0042 845.325 L88.0042 875.944 L40.4842 875.944 Z" fill="#000000" fill-rule="evenodd" fill-opacity="1" /><path clip-path="url(#clip990)" d="M 0 0 M57.8307 818.525 Q57.2578 819.512 57.0032 820.69 Q56.7167 821.836 56.7167 823.236 Q56.7167 828.201 59.9632 830.875 Q63.1779 833.517 69.2253 833.517 L88.0042 833.517 L88.0042 839.405 L52.3562 839.405 L52.3562 833.517 L57.8944 833.517 Q54.6479 831.671 53.0883 828.711 Q51.4968 825.75 51.4968 821.517 Q51.4968 820.913 51.5923 820.18 Q51.656 819.448 51.8151 818.557 L57.8307 818.525 Z" fill="#000000" fill-rule="evenodd" fill-opacity="1" /><path clip-path="url(#clip990)" d="M 0 0 M57.8307 792.872 Q57.2578 793.858 57.0032 795.036 Q56.7167 796.182 56.7167 797.582 Q56.7167 802.547 59.9632 805.221 Q63.1779 807.863 69.2253 807.863 L88.0042 807.863 L88.0042 813.751 L52.3562 813.751 L52.3562 807.863 L57.8944 807.863 Q54.6479 806.017 53.0883 803.057 Q51.4968 800.097 51.4968 795.863 Q51.4968 795.259 51.5923 794.527 Q51.656 793.795 51.8151 792.903 L57.8307 792.872 Z" fill="#000000" fill-rule="evenodd" fill-opacity="1" /><path clip-path="url(#clip990)" d="M 0 0 M56.4621 774.347 Q56.4621 779.058 60.1542 781.795 Q63.8145 784.533 70.212 784.533 Q76.6095 784.533 80.3017 781.827 Q83.9619 779.09 83.9619 774.347 Q83.9619 769.669 80.2698 766.931 Q76.5777 764.194 70.212 764.194 Q63.8781 764.194 60.186 766.931 Q56.4621 769.669 56.4621 774.347 M51.4968 774.347 Q51.4968 766.709 56.4621 762.348 Q61.4273 757.988 70.212 757.988 Q78.9649 757.988 83.9619 762.348 Q88.9272 766.709 88.9272 774.347 Q88.9272 782.018 83.9619 786.379 Q78.9649 790.707 70.212 790.707 Q61.4273 790.707 56.4621 786.379 Q51.4968 782.018 51.4968 774.347 Z" fill="#000000" fill-rule="evenodd" fill-opacity="1" /><path clip-path="url(#clip990)" d="M 0 0 M57.8307 731.188 Q57.2578 732.175 57.0032 733.352 Q56.7167 734.498 56.7167 735.899 Q56.7167 740.864 59.9632 743.537 Q63.1779 746.179 69.2253 746.179 L88.0042 746.179 L88.0042 752.067 L52.3562 752.067 L52.3562 746.179 L57.8944 746.179 Q54.6479 744.333 53.0883 741.373 Q51.4968 738.413 51.4968 734.18 Q51.4968 733.575 51.5923 732.843 Q51.656 732.111 51.8151 731.22 L57.8307 731.188 Z" fill="#000000" fill-rule="evenodd" fill-opacity="1" /><path clip-path="url(#clip990)" d="M 0 0 M669.897 12.096 L704.653 12.096 L704.653 18.9825 L678.079 18.9825 L678.079 36.8065 L702.061 36.8065 L702.061 43.6931 L678.079 43.6931 L678.079 72.576 L669.897 72.576 L669.897 12.096 Z" fill="#000000" fill-rule="evenodd" fill-opacity="1" /><path clip-path="url(#clip990)" d="M 0 0 M706.436 27.2059 L713.889 27.2059 L713.889 72.576 L706.436 72.576 L706.436 27.2059 M706.436 9.54393 L713.889 9.54393 L713.889 18.9825 L706.436 18.9825 L706.436 9.54393 Z" fill="#000000" fill-rule="evenodd" fill-opacity="1" /><path clip-path="url(#clip990)" d="M 0 0 M747.998 34.1734 Q746.742 33.4443 745.243 33.1202 Q743.785 32.7556 742.003 32.7556 Q735.683 32.7556 732.28 36.8875 Q728.918 40.9789 728.918 48.6757 L728.918 72.576 L721.424 72.576 L721.424 27.2059 L728.918 27.2059 L728.918 34.2544 Q731.268 30.1225 735.035 28.1376 Q738.802 26.1121 744.19 26.1121 Q744.96 26.1121 745.892 26.2337 Q746.823 26.3147 747.957 26.5172 L747.998 34.1734 Z" fill="#000000" fill-rule="evenodd" fill-opacity="1" /><path clip-path="url(#clip990)" d="M 0 0 M784.74 28.5427 L784.74 35.5912 Q781.58 33.9709 778.177 33.1607 Q774.774 32.3505 771.129 32.3505 Q765.579 32.3505 762.784 34.0519 Q760.029 35.7533 760.029 39.156 Q760.029 41.7486 762.014 43.2475 Q763.999 44.7058 769.994 46.0426 L772.546 46.6097 Q780.486 48.3111 783.808 51.4303 Q787.17 54.509 787.17 60.0587 Q787.17 66.3781 782.147 70.0644 Q777.165 73.7508 768.415 73.7508 Q764.769 73.7508 760.799 73.0216 Q756.869 72.3329 752.495 70.9151 L752.495 63.2184 Q756.626 65.3654 760.637 66.4591 Q764.647 67.5124 768.577 67.5124 Q773.843 67.5124 776.678 65.73 Q779.514 63.9071 779.514 60.6258 Q779.514 57.5877 777.448 55.9673 Q775.423 54.3469 768.496 52.8481 L765.903 52.2405 Q758.976 50.7821 755.897 47.7845 Q752.819 44.7463 752.819 39.4801 Q752.819 33.0797 757.356 29.5959 Q761.893 26.1121 770.237 26.1121 Q774.369 26.1121 778.015 26.7198 Q781.661 27.3274 784.74 28.5427 Z" fill="#000000" fill-rule="evenodd" fill-opacity="1" /><path clip-path="url(#clip990)" d="M 0 0 M802.361 14.324 L802.361 27.2059 L817.714 27.2059 L817.714 32.9987 L802.361 32.9987 L802.361 57.6282 Q802.361 63.1779 803.86 64.7578 Q805.399 66.3376 810.058 66.3376 L817.714 66.3376 L817.714 72.576 L810.058 72.576 Q801.429 72.576 798.148 69.3758 Q794.867 66.1351 794.867 57.6282 L794.867 32.9987 L789.398 32.9987 L789.398 27.2059 L794.867 27.2059 L794.867 14.324 L802.361 14.324 Z" fill="#000000" fill-rule="evenodd" fill-opacity="1" /><path clip-path="url(#clip990)" d="M 0 0 M853.038 12.096 L885.162 12.096 L885.162 18.9825 L860.532 18.9825 L860.532 33.8088 Q862.315 33.2012 864.097 32.9176 Q865.879 32.5936 867.662 32.5936 Q877.789 32.5936 883.703 38.1433 Q889.618 43.6931 889.618 53.1722 Q889.618 62.9348 883.541 68.3631 Q877.465 73.7508 866.406 73.7508 Q862.598 73.7508 858.628 73.1026 Q854.699 72.4545 850.486 71.1582 L850.486 62.9348 Q854.132 64.9198 858.021 65.892 Q861.909 66.8642 866.244 66.8642 Q873.252 66.8642 877.343 63.1779 Q881.435 59.4916 881.435 53.1722 Q881.435 46.8528 877.343 43.1664 Q873.252 39.4801 866.244 39.4801 Q862.963 39.4801 859.681 40.2093 Q856.441 40.9384 853.038 42.4778 L853.038 12.096 Z" fill="#000000" fill-rule="evenodd" fill-opacity="1" /><path clip-path="url(#clip990)" d="M 0 0 M915.989 17.4837 Q909.67 17.4837 906.469 23.7221 Q903.31 29.92 903.31 42.3968 Q903.31 54.833 906.469 61.0714 Q909.67 67.2693 915.989 67.2693 Q922.349 67.2693 925.509 61.0714 Q928.709 54.833 928.709 42.3968 Q928.709 29.92 925.509 23.7221 Q922.349 17.4837 915.989 17.4837 M915.989 11.0023 Q926.157 11.0023 931.504 19.0636 Q936.892 27.0843 936.892 42.3968 Q936.892 57.6687 931.504 65.73 Q926.157 73.7508 915.989 73.7508 Q905.821 73.7508 900.434 65.73 Q895.086 57.6687 895.086 42.3968 Q895.086 27.0843 900.434 19.0636 Q905.821 11.0023 915.989 11.0023 Z" fill="#000000" fill-rule="evenodd" fill-opacity="1" /><path clip-path="url(#clip990)" d="M 0 0 M963.263 17.4837 Q956.944 17.4837 953.743 23.7221 Q950.584 29.92 950.584 42.3968 Q950.584 54.833 953.743 61.0714 Q956.944 67.2693 963.263 67.2693 Q969.623 67.2693 972.783 61.0714 Q975.983 54.833 975.983 42.3968 Q975.983 29.92 972.783 23.7221 Q969.623 17.4837 963.263 17.4837 M963.263 11.0023 Q973.431 11.0023 978.778 19.0636 Q984.166 27.0843 984.166 42.3968 Q984.166 57.6687 978.778 65.73 Q973.431 73.7508 963.263 73.7508 Q953.095 73.7508 947.708 65.73 Q942.36 57.6687 942.36 42.3968 Q942.36 27.0843 947.708 19.0636 Q953.095 11.0023 963.263 11.0023 Z" fill="#000000" fill-rule="evenodd" fill-opacity="1" /><path clip-path="url(#clip990)" d="M 0 0 M1018.36 27.2059 L1025.81 27.2059 L1025.81 72.576 L1018.36 72.576 L1018.36 27.2059 M1018.36 9.54393 L1025.81 9.54393 L1025.81 18.9825 L1018.36 18.9825 L1018.36 9.54393 Z" fill="#000000" fill-rule="evenodd" fill-opacity="1" /><path clip-path="url(#clip990)" d="M 0 0 M1041 14.324 L1041 27.2059 L1056.35 27.2059 L1056.35 32.9987 L1041 32.9987 L1041 57.6282 Q1041 63.1779 1042.5 64.7578 Q1044.04 66.3376 1048.7 66.3376 L1056.35 66.3376 L1056.35 72.576 L1048.7 72.576 Q1040.07 72.576 1036.79 69.3758 Q1033.51 66.1351 1033.51 57.6282 L1033.51 32.9987 L1028.04 32.9987 L1028.04 27.2059 L1033.51 27.2059 L1033.51 14.324 L1041 14.324 Z" fill="#000000" fill-rule="evenodd" fill-opacity="1" /><path clip-path="url(#clip990)" d="M 0 0 M1102.98 48.0275 L1102.98 51.6733 L1068.71 51.6733 Q1069.19 59.3701 1073.33 63.421 Q1077.5 67.4314 1084.91 67.4314 Q1089.21 67.4314 1093.22 66.3781 Q1097.27 65.3249 1101.24 63.2184 L1101.24 70.267 Q1097.23 71.9684 1093.01 72.8596 Q1088.8 73.7508 1084.47 73.7508 Q1073.61 73.7508 1067.25 67.4314 Q1060.93 61.1119 1060.93 50.3365 Q1060.93 39.1965 1066.93 32.6746 Q1072.96 26.1121 1083.17 26.1121 Q1092.32 26.1121 1097.63 32.0264 Q1102.98 37.9003 1102.98 48.0275 M1095.53 45.84 Q1095.44 39.7232 1092.08 36.0774 Q1088.76 32.4315 1083.25 32.4315 Q1077.01 32.4315 1073.25 35.9558 Q1069.52 39.4801 1068.95 45.8805 L1095.53 45.84 Z" fill="#000000" fill-rule="evenodd" fill-opacity="1" /><path clip-path="url(#clip990)" d="M 0 0 M1137.09 34.1734 Q1135.83 33.4443 1134.33 33.1202 Q1132.87 32.7556 1131.09 32.7556 Q1124.77 32.7556 1121.37 36.8875 Q1118.01 40.9789 1118.01 48.6757 L1118.01 72.576 L1110.51 72.576 L1110.51 27.2059 L1118.01 27.2059 L1118.01 34.2544 Q1120.36 30.1225 1124.12 28.1376 Q1127.89 26.1121 1133.28 26.1121 Q1134.05 26.1121 1134.98 26.2337 Q1135.91 26.3147 1137.05 26.5172 L1137.09 34.1734 Z" fill="#000000" fill-rule="evenodd" fill-opacity="1" /><path clip-path="url(#clip990)" d="M 0 0 M1165.52 49.7694 Q1156.49 49.7694 1153.01 51.8354 Q1149.52 53.9013 1149.52 58.8839 Q1149.52 62.8538 1152.12 65.2034 Q1154.75 67.5124 1159.25 67.5124 Q1165.44 67.5124 1169.17 63.1374 Q1172.94 58.7219 1172.94 51.4303 L1172.94 49.7694 L1165.52 49.7694 M1180.39 46.6907 L1180.39 72.576 L1172.94 72.576 L1172.94 65.6895 Q1170.39 69.8214 1166.58 71.8063 Q1162.77 73.7508 1157.26 73.7508 Q1150.29 73.7508 1146.16 69.8619 Q1142.07 65.9325 1142.07 59.3701 Q1142.07 51.7138 1147.17 47.825 Q1152.32 43.9361 1162.49 43.9361 L1172.94 43.9361 L1172.94 43.2069 Q1172.94 38.0623 1169.54 35.2672 Q1166.17 32.4315 1160.06 32.4315 Q1156.17 32.4315 1152.48 33.3632 Q1148.79 34.295 1145.39 36.1584 L1145.39 29.2718 Q1149.48 27.692 1153.33 26.9223 Q1157.18 26.1121 1160.83 26.1121 Q1170.67 26.1121 1175.53 31.2163 Q1180.39 36.3204 1180.39 46.6907 Z" fill="#000000" fill-rule="evenodd" fill-opacity="1" /><path clip-path="url(#clip990)" d="M 0 0 M1195.58 14.324 L1195.58 27.2059 L1210.94 27.2059 L1210.94 32.9987 L1195.58 32.9987 L1195.58 57.6282 Q1195.58 63.1779 1197.08 64.7578 Q1198.62 66.3376 1203.28 66.3376 L1210.94 66.3376 L1210.94 72.576 L1203.28 72.576 Q1194.65 72.576 1191.37 69.3758 Q1188.09 66.1351 1188.09 57.6282 L1188.09 32.9987 L1182.62 32.9987 L1182.62 27.2059 L1188.09 27.2059 L1188.09 14.324 L1195.58 14.324 Z" fill="#000000" fill-rule="evenodd" fill-opacity="1" /><path clip-path="url(#clip990)" d="M 0 0 M1218.75 27.2059 L1226.21 27.2059 L1226.21 72.576 L1218.75 72.576 L1218.75 27.2059 M1218.75 9.54393 L1226.21 9.54393 L1226.21 18.9825 L1218.75 18.9825 L1218.75 9.54393 Z" fill="#000000" fill-rule="evenodd" fill-opacity="1" /><path clip-path="url(#clip990)" d="M 0 0 M1251.61 32.4315 Q1245.61 32.4315 1242.13 37.1306 Q1238.64 41.7891 1238.64 49.9314 Q1238.64 58.0738 1242.09 62.7728 Q1245.57 67.4314 1251.61 67.4314 Q1257.56 67.4314 1261.05 62.7323 Q1264.53 58.0333 1264.53 49.9314 Q1264.53 41.8701 1261.05 37.1711 Q1257.56 32.4315 1251.61 32.4315 M1251.61 26.1121 Q1261.33 26.1121 1266.88 32.4315 Q1272.43 38.7509 1272.43 49.9314 Q1272.43 61.0714 1266.88 67.4314 Q1261.33 73.7508 1251.61 73.7508 Q1241.84 73.7508 1236.29 67.4314 Q1230.78 61.0714 1230.78 49.9314 Q1230.78 38.7509 1236.29 32.4315 Q1241.84 26.1121 1251.61 26.1121 Z" fill="#000000" fill-rule="evenodd" fill-opacity="1" /><path clip-path="url(#clip990)" d="M 0 0 M1317.96 45.1919 L1317.96 72.576 L1310.51 72.576 L1310.51 45.4349 Q1310.51 38.994 1307.99 35.7938 Q1305.48 32.5936 1300.46 32.5936 Q1294.42 32.5936 1290.94 36.4419 Q1287.46 40.2903 1287.46 46.9338 L1287.46 72.576 L1279.96 72.576 L1279.96 27.2059 L1287.46 27.2059 L1287.46 34.2544 Q1290.13 30.163 1293.74 28.1376 Q1297.38 26.1121 1302.12 26.1121 Q1309.94 26.1121 1313.95 30.9732 Q1317.96 35.7938 1317.96 45.1919 Z" fill="#000000" fill-rule="evenodd" fill-opacity="1" /><path clip-path="url(#clip990)" d="M 0 0 M1354.7 28.5427 L1354.7 35.5912 Q1351.54 33.9709 1348.14 33.1607 Q1344.74 32.3505 1341.09 32.3505 Q1335.54 32.3505 1332.75 34.0519 Q1329.99 35.7533 1329.99 39.156 Q1329.99 41.7486 1331.98 43.2475 Q1333.96 44.7058 1339.96 46.0426 L1342.51 46.6097 Q1350.45 48.3111 1353.77 51.4303 Q1357.13 54.509 1357.13 60.0587 Q1357.13 66.3781 1352.11 70.0644 Q1347.13 73.7508 1338.38 73.7508 Q1334.73 73.7508 1330.76 73.0216 Q1326.83 72.3329 1322.46 70.9151 L1322.46 63.2184 Q1326.59 65.3654 1330.6 66.4591 Q1334.61 67.5124 1338.54 67.5124 Q1343.8 67.5124 1346.64 65.73 Q1349.48 63.9071 1349.48 60.6258 Q1349.48 57.5877 1347.41 55.9673 Q1345.38 54.3469 1338.46 52.8481 L1335.87 52.2405 Q1328.94 50.7821 1325.86 47.7845 Q1322.78 44.7463 1322.78 39.4801 Q1322.78 33.0797 1327.32 29.5959 Q1331.85 26.1121 1340.2 26.1121 Q1344.33 26.1121 1347.98 26.7198 Q1351.62 27.3274 1354.7 28.5427 Z" fill="#000000" fill-rule="evenodd" fill-opacity="1" /><path clip-path="url(#clip990)" d="M 0 0 M1408.9 32.4315 Q1402.91 32.4315 1399.42 37.1306 Q1395.94 41.7891 1395.94 49.9314 Q1395.94 58.0738 1399.38 62.7728 Q1402.87 67.4314 1408.9 67.4314 Q1414.86 67.4314 1418.34 62.7323 Q1421.83 58.0333 1421.83 49.9314 Q1421.83 41.8701 1418.34 37.1711 Q1414.86 32.4315 1408.9 32.4315 M1408.9 26.1121 Q1418.63 26.1121 1424.17 32.4315 Q1429.72 38.7509 1429.72 49.9314 Q1429.72 61.0714 1424.17 67.4314 Q1418.63 73.7508 1408.9 73.7508 Q1399.14 73.7508 1393.59 67.4314 Q1388.08 61.0714 1388.08 49.9314 Q1388.08 38.7509 1393.59 32.4315 Q1399.14 26.1121 1408.9 26.1121 Z" fill="#000000" fill-rule="evenodd" fill-opacity="1" /><path clip-path="url(#clip990)" d="M 0 0 M1460.51 9.54393 L1460.51 15.7418 L1453.38 15.7418 Q1449.37 15.7418 1447.79 17.3622 Q1446.25 18.9825 1446.25 23.1955 L1446.25 27.2059 L1458.53 27.2059 L1458.53 32.9987 L1446.25 32.9987 L1446.25 72.576 L1438.76 72.576 L1438.76 32.9987 L1431.63 32.9987 L1431.63 27.2059 L1438.76 27.2059 L1438.76 24.0462 Q1438.76 16.471 1442.28 13.0277 Q1445.81 9.54393 1453.46 9.54393 L1460.51 9.54393 Z" fill="#000000" fill-rule="evenodd" fill-opacity="1" /><path clip-path="url(#clip990)" d="M 0 0 M1495.03 12.096 L1503.21 12.096 L1503.21 65.6895 L1532.66 65.6895 L1532.66 72.576 L1495.03 72.576 L1495.03 12.096 Z" fill="#000000" fill-rule="evenodd" fill-opacity="1" /><path clip-path="url(#clip990)" d="M 0 0 M1577.83 48.0275 L1577.83 51.6733 L1543.56 51.6733 Q1544.04 59.3701 1548.17 63.421 Q1552.35 67.4314 1559.76 67.4314 Q1564.05 67.4314 1568.06 66.3781 Q1572.11 65.3249 1576.08 63.2184 L1576.08 70.267 Q1572.07 71.9684 1567.86 72.8596 Q1563.65 73.7508 1559.31 73.7508 Q1548.46 73.7508 1542.1 67.4314 Q1535.78 61.1119 1535.78 50.3365 Q1535.78 39.1965 1541.77 32.6746 Q1547.81 26.1121 1558.02 26.1121 Q1567.17 26.1121 1572.48 32.0264 Q1577.83 37.9003 1577.83 48.0275 M1570.37 45.84 Q1570.29 39.7232 1566.93 36.0774 Q1563.61 32.4315 1558.1 32.4315 Q1551.86 32.4315 1548.09 35.9558 Q1544.37 39.4801 1543.8 45.8805 L1570.37 45.84 Z" fill="#000000" fill-rule="evenodd" fill-opacity="1" /><path clip-path="url(#clip990)" d="M 0 0 M1624.45 48.0275 L1624.45 51.6733 L1590.18 51.6733 Q1590.67 59.3701 1594.8 63.421 Q1598.97 67.4314 1606.38 67.4314 Q1610.68 67.4314 1614.69 66.3781 Q1618.74 65.3249 1622.71 63.2184 L1622.71 70.267 Q1618.7 71.9684 1614.49 72.8596 Q1610.27 73.7508 1605.94 73.7508 Q1595.08 73.7508 1588.72 67.4314 Q1582.4 61.1119 1582.4 50.3365 Q1582.4 39.1965 1588.4 32.6746 Q1594.43 26.1121 1604.64 26.1121 Q1613.8 26.1121 1619.1 32.0264 Q1624.45 37.9003 1624.45 48.0275 M1617 45.84 Q1616.92 39.7232 1613.55 36.0774 Q1610.23 32.4315 1604.72 32.4315 Q1598.49 32.4315 1594.72 35.9558 Q1590.99 39.4801 1590.42 45.8805 L1617 45.84 Z" fill="#000000" fill-rule="evenodd" fill-opacity="1" /><path clip-path="url(#clip990)" d="M 0 0 M1628.5 46.5287 L1650.34 46.5287 L1650.34 53.1722 L1628.5 53.1722 L1628.5 46.5287 Z" fill="#000000" fill-rule="evenodd" fill-opacity="1" /><path clip-path="url(#clip990)" d="M 0 0 M1694.73 14.0809 L1694.73 22.0612 Q1690.08 19.8332 1685.94 18.7395 Q1681.81 17.6457 1677.96 17.6457 Q1671.28 17.6457 1667.63 20.2383 Q1664.03 22.8309 1664.03 27.611 Q1664.03 31.6214 1666.42 33.6873 Q1668.85 35.7128 1675.57 36.9686 L1680.52 37.9813 Q1689.67 39.7232 1694.01 44.1387 Q1698.38 48.5136 1698.38 55.8863 Q1698.38 64.6767 1692.47 69.2137 Q1686.59 73.7508 1675.21 73.7508 Q1670.92 73.7508 1666.05 72.7785 Q1661.23 71.8063 1656.05 69.9024 L1656.05 61.4765 Q1661.03 64.2716 1665.81 65.6895 Q1670.59 67.1073 1675.21 67.1073 Q1682.22 67.1073 1686.03 64.3527 Q1689.83 61.598 1689.83 56.4939 Q1689.83 52.0379 1687.08 49.5264 Q1684.36 47.0148 1678.13 45.759 L1673.14 44.7868 Q1663.99 42.9639 1659.9 39.075 Q1655.81 35.1862 1655.81 28.2591 Q1655.81 20.2383 1661.44 15.6203 Q1667.11 11.0023 1677.03 11.0023 Q1681.29 11.0023 1685.7 11.7719 Q1690.12 12.5416 1694.73 14.0809 Z" fill="#000000" fill-rule="evenodd" fill-opacity="1" /><path clip-path="url(#clip990)" d="M 0 0 M1745.01 48.0275 L1745.01 51.6733 L1710.74 51.6733 Q1711.22 59.3701 1715.35 63.421 Q1719.53 67.4314 1726.94 67.4314 Q1731.23 67.4314 1735.24 66.3781 Q1739.29 65.3249 1743.26 63.2184 L1743.26 70.267 Q1739.25 71.9684 1735.04 72.8596 Q1730.83 73.7508 1726.49 73.7508 Q1715.64 73.7508 1709.28 67.4314 Q1702.96 61.1119 1702.96 50.3365 Q1702.96 39.1965 1708.95 32.6746 Q1714.99 26.1121 1725.2 26.1121 Q1734.35 26.1121 1739.66 32.0264 Q1745.01 37.9003 1745.01 48.0275 M1737.55 45.84 Q1737.47 39.7232 1734.11 36.0774 Q1730.79 32.4315 1725.28 32.4315 Q1719.04 32.4315 1715.27 35.9558 Q1711.55 39.4801 1710.98 45.8805 L1737.55 45.84 Z" fill="#000000" fill-rule="evenodd" fill-opacity="1" /><path clip-path="url(#clip990)" d="M 0 0 M1752.06 54.671 L1752.06 27.2059 L1759.51 27.2059 L1759.51 54.3874 Q1759.51 60.8284 1762.02 64.0691 Q1764.53 67.2693 1769.56 67.2693 Q1775.59 67.2693 1779.07 63.421 Q1782.6 59.5726 1782.6 52.9291 L1782.6 27.2059 L1790.05 27.2059 L1790.05 72.576 L1782.6 72.576 L1782.6 65.6084 Q1779.88 69.7404 1776.28 71.7658 Q1772.71 73.7508 1767.98 73.7508 Q1760.16 73.7508 1756.11 68.8897 Q1752.06 64.0286 1752.06 54.671 M1770.81 26.1121 L1770.81 26.1121 Z" fill="#000000" fill-rule="evenodd" fill-opacity="1" /><path clip-path="url(#clip990)" d="M 0 0 M1835.58 45.1919 L1835.58 72.576 L1828.13 72.576 L1828.13 45.4349 Q1828.13 38.994 1825.62 35.7938 Q1823.11 32.5936 1818.08 32.5936 Q1812.05 32.5936 1808.57 36.4419 Q1805.08 40.2903 1805.08 46.9338 L1805.08 72.576 L1797.59 72.576 L1797.59 27.2059 L1805.08 27.2059 L1805.08 34.2544 Q1807.76 30.163 1811.36 28.1376 Q1815.01 26.1121 1819.75 26.1121 Q1827.56 26.1121 1831.57 30.9732 Q1835.58 35.7938 1835.58 45.1919 Z" fill="#000000" fill-rule="evenodd" fill-opacity="1" /><path clip-path="url(#clip990)" d="M 0 0 M1873.26 49.3643 Q1873.26 41.2625 1869.9 36.8065 Q1866.57 32.3505 1860.54 32.3505 Q1854.54 32.3505 1851.18 36.8065 Q1847.86 41.2625 1847.86 49.3643 Q1847.86 57.4256 1851.18 61.8816 Q1854.54 66.3376 1860.54 66.3376 Q1866.57 66.3376 1869.9 61.8816 Q1873.26 57.4256 1873.26 49.3643 M1880.71 66.9452 Q1880.71 78.5308 1875.57 84.1616 Q1870.42 89.8329 1859.81 89.8329 Q1855.88 89.8329 1852.4 89.2252 Q1848.91 88.6581 1845.63 87.4428 L1845.63 80.1917 Q1848.91 81.9741 1852.11 82.8248 Q1855.31 83.6755 1858.63 83.6755 Q1865.97 83.6755 1869.61 79.8271 Q1873.26 76.0193 1873.26 68.282 L1873.26 64.5957 Q1870.95 68.6061 1867.34 70.5911 Q1863.74 72.576 1858.72 72.576 Q1850.37 72.576 1845.27 66.2161 Q1840.16 59.8562 1840.16 49.3643 Q1840.16 38.832 1845.27 32.472 Q1850.37 26.1121 1858.72 26.1121 Q1863.74 26.1121 1867.34 28.0971 Q1870.95 30.082 1873.26 34.0924 L1873.26 27.2059 L1880.71 27.2059 L1880.71 66.9452 Z" fill="#000000" fill-rule="evenodd" fill-opacity="1" /><path clip-path="url(#clip990)" d="M 0 0 M453.761 140.489 Q444.727 140.489 441.243 142.555 Q437.759 144.621 437.759 149.604 Q437.759 153.574 440.352 155.923 Q442.985 158.232 447.482 158.232 Q453.68 158.232 457.406 153.857 Q461.174 149.442 461.174 142.15 L461.174 140.489 L453.761 140.489 M468.627 137.411 L468.627 163.296 L461.174 163.296 L461.174 156.409 Q458.622 160.541 454.814 162.526 Q451.006 164.471 445.497 164.471 Q438.529 164.471 434.397 160.582 Q430.306 156.653 430.306 150.09 Q430.306 142.434 435.41 138.545 Q440.555 134.656 450.722 134.656 L461.174 134.656 L461.174 133.927 Q461.174 128.782 457.771 125.987 Q454.409 123.152 448.292 123.152 Q444.403 123.152 440.717 124.083 Q437.03 125.015 433.628 126.878 L433.628 119.992 Q437.719 118.412 441.567 117.642 Q445.416 116.832 449.062 116.832 Q458.905 116.832 463.766 121.936 Q468.627 127.04 468.627 137.411 Z" fill="#000000" fill-rule="evenodd" fill-opacity="1" /><path clip-path="url(#clip990)" d="M 0 0 M514.16 135.912 L514.16 163.296 L506.706 163.296 L506.706 136.155 Q506.706 129.714 504.194 126.514 Q501.683 123.314 496.66 123.314 Q490.624 123.314 487.14 127.162 Q483.656 131.01 483.656 137.654 L483.656 163.296 L476.162 163.296 L476.162 117.926 L483.656 117.926 L483.656 124.974 Q486.33 120.883 489.935 118.858 Q493.581 116.832 498.321 116.832 Q506.139 116.832 510.149 121.693 Q514.16 126.514 514.16 135.912 Z" fill="#000000" fill-rule="evenodd" fill-opacity="1" /><path clip-path="url(#clip990)" d="M 0 0 M551.833 124.812 L551.833 100.264 L559.287 100.264 L559.287 163.296 L551.833 163.296 L551.833 156.49 Q549.483 160.541 545.878 162.526 Q542.313 164.471 537.29 164.471 Q529.067 164.471 523.882 157.908 Q518.737 151.346 518.737 140.651 Q518.737 129.957 523.882 123.395 Q529.067 116.832 537.29 116.832 Q542.313 116.832 545.878 118.817 Q549.483 120.762 551.833 124.812 M526.434 140.651 Q526.434 148.875 529.796 153.574 Q533.199 158.232 539.113 158.232 Q545.027 158.232 548.43 153.574 Q551.833 148.875 551.833 140.651 Q551.833 132.428 548.43 127.77 Q545.027 123.071 539.113 123.071 Q533.199 123.071 529.796 127.77 Q526.434 132.428 526.434 140.651 Z" fill="#000000" fill-rule="evenodd" fill-opacity="1" /><path clip-path="url(#clip990)" d="M 0 0 M601.983 109.541 L601.983 132.266 L612.272 132.266 Q617.984 132.266 621.103 129.309 Q624.223 126.352 624.223 120.883 Q624.223 115.455 621.103 112.498 Q617.984 109.541 612.272 109.541 L601.983 109.541 M593.8 102.816 L612.272 102.816 Q622.44 102.816 627.625 107.434 Q632.851 112.012 632.851 120.883 Q632.851 129.836 627.625 134.413 Q622.44 138.991 612.272 138.991 L601.983 138.991 L601.983 163.296 L593.8 163.296 L593.8 102.816 Z" fill="#000000" fill-rule="evenodd" fill-opacity="1" /><path clip-path="url(#clip990)" d="M 0 0 M665.501 124.893 Q664.246 124.164 662.747 123.84 Q661.288 123.476 659.506 123.476 Q653.187 123.476 649.784 127.608 Q646.422 131.699 646.422 139.396 L646.422 163.296 L638.927 163.296 L638.927 117.926 L646.422 117.926 L646.422 124.974 Q648.771 120.843 652.538 118.858 Q656.306 116.832 661.693 116.832 Q662.463 116.832 663.395 116.954 Q664.327 117.035 665.461 117.237 L665.501 124.893 Z" fill="#000000" fill-rule="evenodd" fill-opacity="1" /><path clip-path="url(#clip990)" d="M 0 0 M689.078 123.152 Q683.082 123.152 679.598 127.851 Q676.115 132.509 676.115 140.651 Q676.115 148.794 679.558 153.493 Q683.042 158.151 689.078 158.151 Q695.032 158.151 698.516 153.452 Q702 148.753 702 140.651 Q702 132.59 698.516 127.891 Q695.032 123.152 689.078 123.152 M689.078 116.832 Q698.8 116.832 704.35 123.152 Q709.899 129.471 709.899 140.651 Q709.899 151.791 704.35 158.151 Q698.8 164.471 689.078 164.471 Q679.315 164.471 673.765 158.151 Q668.256 151.791 668.256 140.651 Q668.256 129.471 673.765 123.152 Q679.315 116.832 689.078 116.832 Z" fill="#000000" fill-rule="evenodd" fill-opacity="1" /><path clip-path="url(#clip990)" d="M 0 0 M717.717 117.926 L725.171 117.926 L725.171 164.106 Q725.171 172.775 721.849 176.664 Q718.568 180.553 711.236 180.553 L708.4 180.553 L708.4 174.233 L710.385 174.233 Q714.639 174.233 716.178 172.248 Q717.717 170.304 717.717 164.106 L717.717 117.926 M717.717 100.264 L725.171 100.264 L725.171 109.703 L717.717 109.703 L717.717 100.264 Z" fill="#000000" fill-rule="evenodd" fill-opacity="1" /><path clip-path="url(#clip990)" d="M 0 0 M771.797 138.748 L771.797 142.393 L737.526 142.393 Q738.013 150.09 742.144 154.141 Q746.317 158.151 753.73 158.151 Q758.024 158.151 762.034 157.098 Q766.085 156.045 770.055 153.938 L770.055 160.987 Q766.045 162.688 761.832 163.58 Q757.619 164.471 753.284 164.471 Q742.428 164.471 736.068 158.151 Q729.749 151.832 729.749 141.057 Q729.749 129.917 735.744 123.395 Q741.78 116.832 751.988 116.832 Q761.143 116.832 766.45 122.746 Q771.797 128.62 771.797 138.748 M764.343 136.56 Q764.262 130.443 760.9 126.797 Q757.578 123.152 752.069 123.152 Q745.831 123.152 742.063 126.676 Q738.337 130.2 737.769 136.601 L764.343 136.56 Z" fill="#000000" fill-rule="evenodd" fill-opacity="1" /><path clip-path="url(#clip990)" d="M 0 0 M812.266 119.668 L812.266 126.635 Q809.106 124.893 805.906 124.043 Q802.746 123.152 799.505 123.152 Q792.254 123.152 788.244 127.77 Q784.233 132.347 784.233 140.651 Q784.233 148.956 788.244 153.574 Q792.254 158.151 799.505 158.151 Q802.746 158.151 805.906 157.301 Q809.106 156.409 812.266 154.668 L812.266 161.554 Q809.146 163.012 805.784 163.742 Q802.462 164.471 798.695 164.471 Q788.446 164.471 782.41 158.03 Q776.375 151.589 776.375 140.651 Q776.375 129.552 782.451 123.192 Q788.568 116.832 799.181 116.832 Q802.624 116.832 805.906 117.561 Q809.187 118.25 812.266 119.668 Z" fill="#000000" fill-rule="evenodd" fill-opacity="1" /><path clip-path="url(#clip990)" d="M 0 0 M827.456 105.044 L827.456 117.926 L842.809 117.926 L842.809 123.719 L827.456 123.719 L827.456 148.348 Q827.456 153.898 828.955 155.478 Q830.495 157.058 835.153 157.058 L842.809 157.058 L842.809 163.296 L835.153 163.296 Q826.525 163.296 823.244 160.096 Q819.962 156.855 819.962 148.348 L819.962 123.719 L814.494 123.719 L814.494 117.926 L819.962 117.926 L819.962 105.044 L827.456 105.044 Z" fill="#000000" fill-rule="evenodd" fill-opacity="1" /><path clip-path="url(#clip990)" d="M 0 0 M889.435 138.748 L889.435 142.393 L855.165 142.393 Q855.651 150.09 859.783 154.141 Q863.955 158.151 871.368 158.151 Q875.662 158.151 879.673 157.098 Q883.724 156.045 887.693 153.938 L887.693 160.987 Q883.683 162.688 879.47 163.58 Q875.257 164.471 870.923 164.471 Q860.066 164.471 853.706 158.151 Q847.387 151.832 847.387 141.057 Q847.387 129.917 853.382 123.395 Q859.418 116.832 869.626 116.832 Q878.781 116.832 884.088 122.746 Q889.435 128.62 889.435 138.748 M881.982 136.56 Q881.901 130.443 878.538 126.797 Q875.217 123.152 869.707 123.152 Q863.469 123.152 859.702 126.676 Q855.975 130.2 855.408 136.601 L881.982 136.56 Z" fill="#000000" fill-rule="evenodd" fill-opacity="1" /><path clip-path="url(#clip990)" d="M 0 0 M927.109 124.812 L927.109 100.264 L934.562 100.264 L934.562 163.296 L927.109 163.296 L927.109 156.49 Q924.759 160.541 921.154 162.526 Q917.589 164.471 912.566 164.471 Q904.343 164.471 899.157 157.908 Q894.013 151.346 894.013 140.651 Q894.013 129.957 899.157 123.395 Q904.343 116.832 912.566 116.832 Q917.589 116.832 921.154 118.817 Q924.759 120.762 927.109 124.812 M901.71 140.651 Q901.71 148.875 905.072 153.574 Q908.475 158.232 914.389 158.232 Q920.303 158.232 923.706 153.574 Q927.109 148.875 927.109 140.651 Q927.109 132.428 923.706 127.77 Q920.303 123.071 914.389 123.071 Q908.475 123.071 905.072 127.77 Q901.71 132.428 901.71 140.651 Z" fill="#000000" fill-rule="evenodd" fill-opacity="1" /><path clip-path="url(#clip990)" d="M 0 0 M1010.31 154.668 L1010.31 138.423 L996.946 138.423 L996.946 131.699 L1018.42 131.699 L1018.42 157.665 Q1013.68 161.027 1007.96 162.769 Q1002.25 164.471 995.772 164.471 Q981.593 164.471 973.573 156.207 Q965.592 147.903 965.592 133.117 Q965.592 118.29 973.573 110.027 Q981.593 101.722 995.772 101.722 Q1001.69 101.722 1006.99 103.181 Q1012.34 104.639 1016.84 107.475 L1016.84 116.184 Q1012.3 112.336 1007.2 110.391 Q1002.09 108.447 996.46 108.447 Q985.361 108.447 979.77 114.645 Q974.221 120.843 974.221 133.117 Q974.221 145.35 979.77 151.548 Q985.361 157.746 996.46 157.746 Q1000.79 157.746 1004.2 157.017 Q1007.6 156.247 1010.31 154.668 Z" fill="#000000" fill-rule="evenodd" fill-opacity="1" /><path clip-path="url(#clip990)" d="M 0 0 M1052.52 124.893 Q1051.27 124.164 1049.77 123.84 Q1048.31 123.476 1046.53 123.476 Q1040.21 123.476 1036.81 127.608 Q1033.44 131.699 1033.44 139.396 L1033.44 163.296 L1025.95 163.296 L1025.95 117.926 L1033.44 117.926 L1033.44 124.974 Q1035.79 120.843 1039.56 118.858 Q1043.33 116.832 1048.72 116.832 Q1049.49 116.832 1050.42 116.954 Q1051.35 117.035 1052.48 117.237 L1052.52 124.893 Z" fill="#000000" fill-rule="evenodd" fill-opacity="1" /><path clip-path="url(#clip990)" d="M 0 0 M1080.96 140.489 Q1071.93 140.489 1068.44 142.555 Q1064.96 144.621 1064.96 149.604 Q1064.96 153.574 1067.55 155.923 Q1070.19 158.232 1074.68 158.232 Q1080.88 158.232 1084.61 153.857 Q1088.38 149.442 1088.38 142.15 L1088.38 140.489 L1080.96 140.489 M1095.83 137.411 L1095.83 163.296 L1088.38 163.296 L1088.38 156.409 Q1085.82 160.541 1082.02 162.526 Q1078.21 164.471 1072.7 164.471 Q1065.73 164.471 1061.6 160.582 Q1057.51 156.653 1057.51 150.09 Q1057.51 142.434 1062.61 138.545 Q1067.76 134.656 1077.92 134.656 L1088.38 134.656 L1088.38 133.927 Q1088.38 128.782 1084.97 125.987 Q1081.61 123.152 1075.49 123.152 Q1071.6 123.152 1067.92 124.083 Q1064.23 125.015 1060.83 126.878 L1060.83 119.992 Q1064.92 118.412 1068.77 117.642 Q1072.62 116.832 1076.26 116.832 Q1086.11 116.832 1090.97 121.936 Q1095.83 127.04 1095.83 137.411 Z" fill="#000000" fill-rule="evenodd" fill-opacity="1" /><path clip-path="url(#clip990)" d="M 0 0 M1133.5 124.812 L1133.5 100.264 L1140.96 100.264 L1140.96 163.296 L1133.5 163.296 L1133.5 156.49 Q1131.15 160.541 1127.55 162.526 Q1123.98 164.471 1118.96 164.471 Q1110.74 164.471 1105.55 157.908 Q1100.41 151.346 1100.41 140.651 Q1100.41 129.957 1105.55 123.395 Q1110.74 116.832 1118.96 116.832 Q1123.98 116.832 1127.55 118.817 Q1131.15 120.762 1133.5 124.812 M1108.1 140.651 Q1108.1 148.875 1111.47 153.574 Q1114.87 158.232 1120.78 158.232 Q1126.7 158.232 1130.1 153.574 Q1133.5 148.875 1133.5 140.651 Q1133.5 132.428 1130.1 127.77 Q1126.7 123.071 1120.78 123.071 Q1114.87 123.071 1111.47 127.77 Q1108.1 132.428 1108.1 140.651 Z" fill="#000000" fill-rule="evenodd" fill-opacity="1" /><path clip-path="url(#clip990)" d="M 0 0 M1148.77 117.926 L1156.23 117.926 L1156.23 163.296 L1148.77 163.296 L1148.77 117.926 M1148.77 100.264 L1156.23 100.264 L1156.23 109.703 L1148.77 109.703 L1148.77 100.264 Z" fill="#000000" fill-rule="evenodd" fill-opacity="1" /><path clip-path="url(#clip990)" d="M 0 0 M1202.85 138.748 L1202.85 142.393 L1168.58 142.393 Q1169.07 150.09 1173.2 154.141 Q1177.37 158.151 1184.79 158.151 Q1189.08 158.151 1193.09 157.098 Q1197.14 156.045 1201.11 153.938 L1201.11 160.987 Q1197.1 162.688 1192.89 163.58 Q1188.68 164.471 1184.34 164.471 Q1173.48 164.471 1167.12 158.151 Q1160.81 151.832 1160.81 141.057 Q1160.81 129.917 1166.8 123.395 Q1172.84 116.832 1183.04 116.832 Q1192.2 116.832 1197.51 122.746 Q1202.85 128.62 1202.85 138.748 M1195.4 136.56 Q1195.32 130.443 1191.96 126.797 Q1188.64 123.152 1183.13 123.152 Q1176.89 123.152 1173.12 126.676 Q1169.39 130.2 1168.83 136.601 L1195.4 136.56 Z" fill="#000000" fill-rule="evenodd" fill-opacity="1" /><path clip-path="url(#clip990)" d="M 0 0 M1248.39 135.912 L1248.39 163.296 L1240.93 163.296 L1240.93 136.155 Q1240.93 129.714 1238.42 126.514 Q1235.91 123.314 1230.89 123.314 Q1224.85 123.314 1221.37 127.162 Q1217.88 131.01 1217.88 137.654 L1217.88 163.296 L1210.39 163.296 L1210.39 117.926 L1217.88 117.926 L1217.88 124.974 Q1220.56 120.883 1224.16 118.858 Q1227.81 116.832 1232.55 116.832 Q1240.37 116.832 1244.38 121.693 Q1248.39 126.514 1248.39 135.912 Z" fill="#000000" fill-rule="evenodd" fill-opacity="1" /><path clip-path="url(#clip990)" d="M 0 0 M1263.58 105.044 L1263.58 117.926 L1278.93 117.926 L1278.93 123.719 L1263.58 123.719 L1263.58 148.348 Q1263.58 153.898 1265.08 155.478 Q1266.62 157.058 1271.27 157.058 L1278.93 157.058 L1278.93 163.296 L1271.27 163.296 Q1262.65 163.296 1259.36 160.096 Q1256.08 156.855 1256.08 148.348 L1256.08 123.719 L1250.61 123.719 L1250.61 117.926 L1256.08 117.926 L1256.08 105.044 L1263.58 105.044 Z" fill="#000000" fill-rule="evenodd" fill-opacity="1" /><path clip-path="url(#clip990)" d="M 0 0 M1321.63 109.541 L1321.63 156.571 L1331.51 156.571 Q1344.03 156.571 1349.82 150.9 Q1355.65 145.229 1355.65 132.995 Q1355.65 120.843 1349.82 115.212 Q1344.03 109.541 1331.51 109.541 L1321.63 109.541 M1313.44 102.816 L1330.25 102.816 Q1347.84 102.816 1356.06 110.148 Q1364.28 117.44 1364.28 132.995 Q1364.28 148.632 1356.02 155.964 Q1347.75 163.296 1330.25 163.296 L1313.44 163.296 L1313.44 102.816 Z" fill="#000000" fill-rule="evenodd" fill-opacity="1" /><path clip-path="url(#clip990)" d="M 0 0 M1410.91 138.748 L1410.91 142.393 L1376.64 142.393 Q1377.12 150.09 1381.26 154.141 Q1385.43 158.151 1392.84 158.151 Q1397.14 158.151 1401.15 157.098 Q1405.2 156.045 1409.17 153.938 L1409.17 160.987 Q1405.16 162.688 1400.94 163.58 Q1396.73 164.471 1392.4 164.471 Q1381.54 164.471 1375.18 158.151 Q1368.86 151.832 1368.86 141.057 Q1368.86 129.917 1374.86 123.395 Q1380.89 116.832 1391.1 116.832 Q1400.25 116.832 1405.56 122.746 Q1410.91 128.62 1410.91 138.748 M1403.45 136.56 Q1403.37 130.443 1400.01 126.797 Q1396.69 123.152 1391.18 123.152 Q1384.94 123.152 1381.17 126.676 Q1377.45 130.2 1376.88 136.601 L1403.45 136.56 Z" fill="#000000" fill-rule="evenodd" fill-opacity="1" /><path clip-path="url(#clip990)" d="M 0 0 M1447.65 119.263 L1447.65 126.311 Q1444.49 124.691 1441.09 123.881 Q1437.68 123.071 1434.04 123.071 Q1428.49 123.071 1425.69 124.772 Q1422.94 126.473 1422.94 129.876 Q1422.94 132.469 1424.92 133.967 Q1426.91 135.426 1432.9 136.763 L1435.46 137.33 Q1443.4 139.031 1446.72 142.15 Q1450.08 145.229 1450.08 150.779 Q1450.08 157.098 1445.06 160.784 Q1440.07 164.471 1431.32 164.471 Q1427.68 164.471 1423.71 163.742 Q1419.78 163.053 1415.4 161.635 L1415.4 153.938 Q1419.54 156.085 1423.55 157.179 Q1427.56 158.232 1431.49 158.232 Q1436.75 158.232 1439.59 156.45 Q1442.42 154.627 1442.42 151.346 Q1442.42 148.308 1440.36 146.687 Q1438.33 145.067 1431.41 143.568 L1428.81 142.96 Q1421.89 141.502 1418.81 138.504 Q1415.73 135.466 1415.73 130.2 Q1415.73 123.8 1420.27 120.316 Q1424.8 116.832 1433.15 116.832 Q1437.28 116.832 1440.93 117.44 Q1444.57 118.047 1447.65 119.263 Z" fill="#000000" fill-rule="evenodd" fill-opacity="1" /><path clip-path="url(#clip990)" d="M 0 0 M1490.55 119.668 L1490.55 126.635 Q1487.39 124.893 1484.19 124.043 Q1481.03 123.152 1477.79 123.152 Q1470.54 123.152 1466.53 127.77 Q1462.52 132.347 1462.52 140.651 Q1462.52 148.956 1466.53 153.574 Q1470.54 158.151 1477.79 158.151 Q1481.03 158.151 1484.19 157.301 Q1487.39 156.409 1490.55 154.668 L1490.55 161.554 Q1487.43 163.012 1484.07 163.742 Q1480.75 164.471 1476.98 164.471 Q1466.73 164.471 1460.69 158.03 Q1454.66 151.589 1454.66 140.651 Q1454.66 129.552 1460.73 123.192 Q1466.85 116.832 1477.46 116.832 Q1480.91 116.832 1484.19 117.561 Q1487.47 118.25 1490.55 119.668 Z" fill="#000000" fill-rule="evenodd" fill-opacity="1" /><path clip-path="url(#clip990)" d="M 0 0 M1537.17 138.748 L1537.17 142.393 L1502.9 142.393 Q1503.39 150.09 1507.52 154.141 Q1511.69 158.151 1519.11 158.151 Q1523.4 158.151 1527.41 157.098 Q1531.46 156.045 1535.43 153.938 L1535.43 160.987 Q1531.42 162.688 1527.21 163.58 Q1523 164.471 1518.66 164.471 Q1507.81 164.471 1501.45 158.151 Q1495.13 151.832 1495.13 141.057 Q1495.13 129.917 1501.12 123.395 Q1507.16 116.832 1517.37 116.832 Q1526.52 116.832 1531.83 122.746 Q1537.17 128.62 1537.17 138.748 M1529.72 136.56 Q1529.64 130.443 1526.28 126.797 Q1522.96 123.152 1517.45 123.152 Q1511.21 123.152 1507.44 126.676 Q1503.71 130.2 1503.15 136.601 L1529.72 136.56 Z" fill="#000000" fill-rule="evenodd" fill-opacity="1" /><path clip-path="url(#clip990)" d="M 0 0 M1582.71 135.912 L1582.71 163.296 L1575.25 163.296 L1575.25 136.155 Q1575.25 129.714 1572.74 126.514 Q1570.23 123.314 1565.21 123.314 Q1559.17 123.314 1555.69 127.162 Q1552.2 131.01 1552.2 137.654 L1552.2 163.296 L1544.71 163.296 L1544.71 117.926 L1552.2 117.926 L1552.2 124.974 Q1554.88 120.883 1558.48 118.858 Q1562.13 116.832 1566.87 116.832 Q1574.69 116.832 1578.7 121.693 Q1582.71 126.514 1582.71 135.912 Z" fill="#000000" fill-rule="evenodd" fill-opacity="1" /><path clip-path="url(#clip990)" d="M 0 0 M1597.9 105.044 L1597.9 117.926 L1613.25 117.926 L1613.25 123.719 L1597.9 123.719 L1597.9 148.348 Q1597.9 153.898 1599.4 155.478 Q1600.94 157.058 1605.59 157.058 L1613.25 157.058 L1613.25 163.296 L1605.59 163.296 Q1596.97 163.296 1593.69 160.096 Q1590.4 156.855 1590.4 148.348 L1590.4 123.719 L1584.94 123.719 L1584.94 117.926 L1590.4 117.926 L1590.4 105.044 L1597.9 105.044 Z" fill="#000000" fill-rule="evenodd" fill-opacity="1" /><path clip-path="url(#clip990)" d="M 0 0 M1643.11 117.926 L1650.56 117.926 L1659.88 153.331 L1669.15 117.926 L1677.94 117.926 L1687.26 153.331 L1696.54 117.926 L1703.99 117.926 L1692.12 163.296 L1683.33 163.296 L1673.57 126.109 L1663.77 163.296 L1654.98 163.296 L1643.11 117.926 Z" fill="#000000" fill-rule="evenodd" fill-opacity="1" /><path clip-path="url(#clip990)" d="M 0 0 M1711.81 117.926 L1719.26 117.926 L1719.26 163.296 L1711.81 163.296 L1711.81 117.926 M1711.81 100.264 L1719.26 100.264 L1719.26 109.703 L1711.81 109.703 L1711.81 100.264 Z" fill="#000000" fill-rule="evenodd" fill-opacity="1" /><path clip-path="url(#clip990)" d="M 0 0 M1734.45 105.044 L1734.45 117.926 L1749.81 117.926 L1749.81 123.719 L1734.45 123.719 L1734.45 148.348 Q1734.45 153.898 1735.95 155.478 Q1737.49 157.058 1742.15 157.058 L1749.81 157.058 L1749.81 163.296 L1742.15 163.296 Q1733.52 163.296 1730.24 160.096 Q1726.96 156.855 1726.96 148.348 L1726.96 123.719 L1721.49 123.719 L1721.49 117.926 L1726.96 117.926 L1726.96 105.044 L1734.45 105.044 Z" fill="#000000" fill-rule="evenodd" fill-opacity="1" /><path clip-path="url(#clip990)" d="M 0 0 M1795.34 135.912 L1795.34 163.296 L1787.89 163.296 L1787.89 136.155 Q1787.89 129.714 1785.37 126.514 Q1782.86 123.314 1777.84 123.314 Q1771.8 123.314 1768.32 127.162 Q1764.84 131.01 1764.84 137.654 L1764.84 163.296 L1757.34 163.296 L1757.34 100.264 L1764.84 100.264 L1764.84 124.974 Q1767.51 120.883 1771.11 118.858 Q1774.76 116.832 1779.5 116.832 Q1787.32 116.832 1791.33 121.693 Q1795.34 126.514 1795.34 135.912 Z" fill="#000000" fill-rule="evenodd" fill-opacity="1" /><path clip-path="url(#clip990)" d="M 0 0 M1855.98 142.191 L1854.2 132.833 Q1852.38 123.233 1845.17 123.233 Q1839.74 123.233 1837.27 127.689 Q1834.15 133.279 1834.15 140.651 Q1834.15 149.563 1837.18 153.817 Q1840.26 158.151 1845.17 158.151 Q1850.59 158.151 1853.51 149.523 L1855.98 142.191 M1860.15 129.795 L1864.16 117.926 L1870.81 117.926 L1862.5 142.515 L1864.12 151.386 Q1864.49 153.371 1865.91 155.032 Q1867.57 156.977 1868.86 156.977 L1872.43 156.977 L1872.43 163.296 L1867.97 163.296 Q1864.16 163.296 1860.76 159.893 Q1859.1 158.192 1858.41 154.627 Q1856.55 159.124 1852.74 162.648 Q1850.96 164.309 1845.17 164.309 Q1835.65 164.309 1831.03 158.151 Q1826.29 151.791 1826.29 140.651 Q1826.29 128.742 1831.43 123.152 Q1837.14 116.913 1845.17 116.913 Q1857.76 116.913 1860.15 129.795 Z" fill="#000000" fill-rule="evenodd" fill-opacity="1" /><path clip-path="url(#clip990)" d="M 0 0 M1907.59 125.623 L1959.52 125.623 L1959.52 132.428 L1907.59 132.428 L1907.59 125.623 M1907.59 142.15 L1959.52 142.15 L1959.52 149.037 L1907.59 149.037 L1907.59 142.15 Z" fill="#000000" fill-rule="evenodd" fill-opacity="1" /><path clip-path="url(#clip990)" d="M 0 0 M1996.18 156.409 L2009.55 156.409 L2009.55 110.27 L1995.01 113.186 L1995.01 105.733 L2009.47 102.816 L2017.65 102.816 L2017.65 156.409 L2031.02 156.409 L2031.02 163.296 L1996.18 163.296 L1996.18 156.409 Z" fill="#000000" fill-rule="evenodd" fill-opacity="1" /><path clip-path="url(#clip990)" d="M 0 0 M2077.65 138.748 L2077.65 142.393 L2043.38 142.393 Q2043.86 150.09 2047.99 154.141 Q2052.17 158.151 2059.58 158.151 Q2063.87 158.151 2067.88 157.098 Q2071.93 156.045 2075.9 153.938 L2075.9 160.987 Q2071.89 162.688 2067.68 163.58 Q2063.47 164.471 2059.13 164.471 Q2048.28 164.471 2041.92 158.151 Q2035.6 151.832 2035.6 141.057 Q2035.6 129.917 2041.59 123.395 Q2047.63 116.832 2057.84 116.832 Q2066.99 116.832 2072.3 122.746 Q2077.65 128.62 2077.65 138.748 M2070.19 136.56 Q2070.11 130.443 2066.75 126.797 Q2063.43 123.152 2057.92 123.152 Q2051.68 123.152 2047.91 126.676 Q2044.19 130.2 2043.62 136.601 L2070.19 136.56 Z" fill="#000000" fill-rule="evenodd" fill-opacity="1" /><path clip-path="url(#clip990)" d="M 0 0 M2081.7 137.249 L2103.53 137.249 L2103.53 143.892 L2081.7 143.892 L2081.7 137.249 Z" fill="#000000" fill-rule="evenodd" fill-opacity="1" /><path clip-path="url(#clip990)" d="M 0 0 M2134.89 109.946 L2114.23 142.231 L2134.89 142.231 L2134.89 109.946 M2132.74 102.816 L2143.03 102.816 L2143.03 142.231 L2151.66 142.231 L2151.66 149.037 L2143.03 149.037 L2143.03 163.296 L2134.89 163.296 L2134.89 149.037 L2107.58 149.037 L2107.58 141.138 L2132.74 102.816 Z" fill="#000000" fill-rule="evenodd" fill-opacity="1" /><polyline clip-path="url(#clip992)" style="stroke:#009af9; stroke-width:10; stroke-opacity:1; fill:none" points="
  258.84,219.025 262.914,339.563 266.988,412.746 271.062,456.146 275.136,481.468 279.21,496.149 283.284,504.647 287.358,509.59 291.432,512.499 295.506,514.25 
  299.58,515.341 303.654,516.059 307.728,516.563 311.802,516.947 315.876,517.262 319.95,517.538 324.024,517.791 328.098,518.032 332.172,518.266 336.246,518.495 
  340.32,518.722 344.394,518.947 348.468,519.171 352.542,519.394 356.616,519.617 360.69,519.84 364.764,520.062 368.838,520.283 372.912,520.505 376.986,520.726 
  381.06,520.947 385.134,521.168 389.208,521.388 393.282,521.608 397.356,521.828 401.43,522.047 405.504,522.266 409.578,522.485 413.652,522.704 417.726,522.922 
  421.8,523.14 425.874,523.358 429.948,523.576 434.022,523.793 438.096,524.01 442.17,524.227 446.244,524.443 450.318,524.659 454.392,524.875 458.466,525.091 
  462.541,525.306 466.615,525.521 470.689,525.736 474.763,525.951 478.837,526.165 482.911,526.379 486.985,526.593 491.059,526.807 495.133,527.02 499.207,527.233 
  503.281,527.446 507.355,527.658 511.429,527.87 515.503,528.082 519.577,528.294 523.651,528.505 527.725,528.717 531.799,528.927 535.873,529.138 539.947,529.349 
  544.021,529.559 548.095,529.769 552.169,529.978 556.243,530.188 560.317,530.397 564.391,530.606 568.465,530.814 572.539,531.022 576.613,531.231 580.687,531.438 
  584.761,531.646 588.835,531.853 592.909,532.06 596.983,532.267 601.057,532.474 605.131,532.68 609.205,532.886 613.279,533.092 617.353,533.298 621.427,533.503 
  625.501,533.708 629.575,533.913 633.649,534.118 637.723,534.322 641.797,534.526 645.871,534.73 649.945,534.934 654.019,535.137 658.093,535.34 662.167,535.543 
  666.241,535.746 670.315,535.948 674.389,536.15 678.463,536.352 682.537,536.554 686.611,536.755 690.685,536.956 694.759,537.157 698.833,537.358 702.907,537.559 
  706.981,537.759 711.055,537.959 715.129,538.159 719.203,538.358 723.277,538.557 727.351,538.757 731.425,538.955 735.499,539.154 739.573,539.352 743.647,539.55 
  747.721,539.748 751.795,539.946 755.869,540.143 759.943,540.341 764.017,540.538 768.091,540.734 772.165,540.931 776.239,541.127 780.313,541.323 784.387,541.519 
  788.461,541.715 792.535,541.91 796.609,542.105 800.683,542.3 804.757,542.495 808.831,542.689 812.905,542.884 816.979,543.078 821.053,543.271 825.127,543.465 
  829.201,543.658 833.275,543.851 837.349,544.044 841.423,544.237 845.497,544.429 849.571,544.622 853.645,544.814 857.719,545.005 861.793,545.197 865.867,545.388 
  869.941,545.579 874.015,545.77 878.089,545.961 882.163,546.151 886.237,546.342 890.311,546.532 894.385,546.721 898.459,546.911 902.533,547.1 906.607,547.29 
  910.681,547.479 914.755,547.667 918.829,547.856 922.903,548.044 926.977,548.232 931.051,548.42 935.125,548.608 939.199,548.795 943.273,548.982 947.347,549.17 
  951.421,549.356 955.495,549.543 959.569,549.729 963.643,549.916 967.717,550.102 971.791,550.287 975.865,550.473 979.939,550.658 984.013,550.843 988.087,551.028 
  992.161,551.213 996.235,551.398 1000.31,551.582 1004.38,551.766 1008.46,551.95 1012.53,552.134 1016.6,552.317 1020.68,552.5 1024.75,552.683 1028.83,552.866 
  1032.9,553.049 1036.97,553.231 1041.05,553.414 1045.12,553.596 1049.2,553.778 1053.27,553.959 1057.35,554.141 1061.42,554.322 1065.49,554.503 1069.57,554.684 
  1073.64,554.865 1077.72,555.045 1081.79,555.225 1085.86,555.405 1089.94,555.585 1094.01,555.765 1098.09,555.944 1102.16,556.124 1106.23,556.303 1110.31,556.482 
  1114.38,556.66 1118.46,556.839 1122.53,557.017 1126.6,557.195 1130.68,557.373 1134.75,557.551 1138.83,557.729 1142.9,557.906 1146.97,558.083 1151.05,558.26 
  1155.12,558.437 1159.2,558.613 1163.27,558.79 1167.34,558.966 1171.42,559.142 1175.49,559.318 1179.57,559.493 1183.64,559.669 1187.71,559.844 1191.79,560.019 
  1195.86,560.194 1199.94,560.368 1204.01,560.543 1208.08,560.717 1212.16,560.891 1216.23,561.065 1220.31,561.239 1224.38,561.413 1228.45,561.586 1232.53,561.759 
  1236.6,561.932 1240.68,562.105 1244.75,562.278 1248.82,562.45 1252.9,562.622 1256.97,562.794 1261.05,562.966 1265.12,563.138 1269.19,563.309 1273.27,563.481 
  1277.34,563.652 1281.42,563.823 1285.49,563.994 1289.56,564.164 1293.64,564.335 1297.71,564.505 1301.79,564.675 1305.86,564.845 1309.93,565.015 1314.01,565.184 
  1318.08,565.354 1322.16,565.523 1326.23,565.692 1330.3,565.861 1334.38,566.029 1338.45,566.198 1342.53,566.366 1346.6,566.534 1350.67,566.702 1354.75,566.87 
  1358.82,567.038 1362.9,567.205 1366.97,567.372 1371.04,567.539 1375.12,567.706 1379.19,567.873 1383.27,568.04 1387.34,568.206 1391.41,568.372 1395.49,568.538 
  1399.56,568.704 1403.64,568.87 1407.71,569.035 1411.78,569.201 1415.86,569.366 1419.93,569.531 1424.01,569.696 1428.08,569.86 1432.15,570.025 1436.23,570.189 
  1440.3,570.353 1444.38,570.517 1448.45,570.681 1452.52,570.845 1456.6,571.008 1460.67,571.172 1464.75,571.335 1468.82,571.498 1472.89,571.661 1476.97,571.823 
  1481.04,571.986 1485.12,572.148 1489.19,572.31 1493.26,572.472 1497.34,572.634 1501.41,572.796 1505.49,572.957 1509.56,573.119 1513.63,573.28 1517.71,573.441 
  1521.78,573.602 1525.86,573.763 1529.93,573.923 1534,574.083 1538.08,574.244 1542.15,574.404 1546.23,574.564 1550.3,574.723 1554.37,574.883 1558.45,575.042 
  1562.52,575.202 1566.6,575.361 1570.67,575.52 1574.74,575.678 1578.82,575.837 1582.89,575.995 1586.97,576.154 1591.04,576.312 1595.11,576.47 1599.19,576.628 
  1603.26,576.785 1607.34,576.943 1611.41,577.1 1615.48,577.257 1619.56,577.415 1623.63,577.571 1627.71,577.728 1631.78,577.885 1635.85,578.041 1639.93,578.197 
  1644,578.354 1648.08,578.51 1652.15,578.665 1656.22,578.821 1660.3,578.977 1664.37,579.132 1668.45,579.287 1672.52,579.442 1676.59,579.597 1680.67,579.752 
  1684.74,579.906 1688.82,580.061 1692.89,580.215 1696.96,580.369 1701.04,580.523 1705.11,580.677 1709.19,580.831 1713.26,580.984 1717.33,581.138 1721.41,581.291 
  1725.48,581.444 1729.56,581.597 1733.63,581.75 1737.7,581.902 1741.78,582.055 1745.85,582.207 1749.93,582.359 1754,582.512 1758.07,582.663 1762.15,582.815 
  1766.22,582.967 1770.3,583.118 1774.37,583.27 1778.44,583.421 1782.52,583.572 1786.59,583.723 1790.67,583.874 1794.74,584.024 1798.81,584.175 1802.89,584.325 
  1806.96,584.475 1811.04,584.625 1815.11,584.775 1819.18,584.925 1823.26,585.074 1827.33,585.224 1831.41,585.373 1835.48,585.522 1839.55,585.671 1843.63,585.82 
  1847.7,585.969 1851.78,586.118 1855.85,586.266 1859.92,586.414 1864,586.563 1868.07,586.711 1872.15,586.859 1876.22,587.006 1880.29,587.154 1884.37,587.301 
  1888.44,587.449 1892.52,587.596 1896.59,587.743 1900.66,587.89 1904.74,588.037 1908.81,588.184 1912.89,588.33 1916.96,588.476 1921.03,588.623 1925.11,588.769 
  1929.18,588.915 1933.26,589.061 1937.33,589.206 1941.4,589.352 1945.48,589.497 1949.55,589.643 1953.63,589.788 1957.7,589.933 1961.77,590.078 1965.85,590.223 
  1969.92,590.367 1974,590.512 1978.07,590.656 1982.14,590.8 1986.22,590.944 1990.29,591.088 1994.37,591.232 1998.44,591.376 2002.51,591.519 2006.59,591.663 
  2010.66,591.806 2014.74,591.949 2018.81,592.092 2022.88,592.235 2026.96,592.378 2031.03,592.521 2035.11,592.663 2039.18,592.806 2043.25,592.948 2047.33,593.09 
  2051.4,593.232 2055.48,593.374 2059.55,593.516 2063.62,593.657 2067.7,593.799 2071.77,593.94 2075.85,594.081 2079.92,594.222 2083.99,594.363 2088.07,594.504 
  2092.14,594.645 2096.22,594.786 2100.29,594.926 2104.36,595.066 2108.44,595.207 2112.51,595.347 2116.59,595.487 2120.66,595.626 2124.73,595.766 2128.81,595.906 
  2132.88,596.045 2136.96,596.185 2141.03,596.324 2145.1,596.463 2149.18,596.602 2153.25,596.741 2157.33,596.879 2161.4,597.018 2165.47,597.156 2169.55,597.295 
  2173.62,597.433 2177.7,597.571 2181.77,597.709 2185.84,597.847 2189.92,597.985 2193.99,598.122 2198.07,598.26 2202.14,598.397 2206.21,598.534 2210.29,598.671 
  2214.36,598.808 2218.44,598.945 2222.51,599.082 2226.58,599.219 2230.66,599.355 2234.73,599.492 2238.81,599.628 2242.88,599.764 2246.95,599.9 2251.03,600.036 
  2255.1,600.172 2259.18,600.308 2263.25,600.443 2267.32,600.579 2271.4,600.714 2275.47,600.849 2279.55,600.984 2283.62,601.119 2287.69,601.254 2291.77,601.389 
  
  "/>
<polyline clip-path="url(#clip992)" style="stroke:#e26f46; stroke-width:10; stroke-opacity:1; fill:none" points="
  258.84,219.025 262.914,1178.23 266.988,1188.3 271.062,1197.98 275.136,1207.7 279.21,1217.52 283.284,1227.34 287.358,1236.99 291.432,1246.32 295.506,1255.2 
  299.58,1263.59 303.654,1271.45 307.728,1278.77 311.802,1285.52 315.876,1291.67 319.95,1297.22 324.024,1302.18 328.098,1306.58 332.172,1310.49 336.246,1313.97 
  340.32,1317.1 344.394,1319.94 348.468,1322.54 352.542,1324.95 356.616,1327.18 360.69,1329.27 364.764,1331.24 368.838,1333.08 372.912,1334.82 376.986,1336.46 
  381.06,1338 385.134,1339.46 389.208,1340.82 393.282,1342.1 397.356,1343.3 401.43,1344.43 405.504,1345.48 409.578,1346.47 413.652,1347.39 417.726,1348.25 
  421.8,1349.06 425.874,1349.81 429.948,1350.52 434.022,1351.18 438.096,1351.79 442.17,1352.37 446.244,1352.91 450.318,1353.42 454.392,1353.9 458.466,1354.34 
  462.541,1354.76 466.615,1355.16 470.689,1355.54 474.763,1355.89 478.837,1356.23 482.911,1356.55 486.985,1356.85 491.059,1357.14 495.133,1357.42 499.207,1357.68 
  503.281,1357.94 507.355,1358.18 511.429,1358.42 515.503,1358.65 519.577,1358.87 523.651,1359.08 527.725,1359.28 531.799,1359.48 535.873,1359.68 539.947,1359.87 
  544.021,1360.05 548.095,1360.23 552.169,1360.4 556.243,1360.57 560.317,1360.73 564.391,1360.89 568.465,1361.05 572.539,1361.2 576.613,1361.35 580.687,1361.49 
  584.761,1361.63 588.835,1361.77 592.909,1361.91 596.983,1362.04 601.057,1362.17 605.131,1362.3 609.205,1362.42 613.279,1362.55 617.353,1362.67 621.427,1362.79 
  625.501,1362.9 629.575,1363.02 633.649,1363.13 637.723,1363.25 641.797,1363.36 645.871,1363.47 649.945,1363.58 654.019,1363.69 658.093,1363.8 662.167,1363.91 
  666.241,1364.01 670.315,1364.12 674.389,1364.23 678.463,1364.34 682.537,1364.44 686.611,1364.55 690.685,1364.66 694.759,1364.76 698.833,1364.87 702.907,1364.98 
  706.981,1365.08 711.055,1365.19 715.129,1365.3 719.203,1365.41 723.277,1365.52 727.351,1365.63 731.425,1365.74 735.499,1365.85 739.573,1365.96 743.647,1366.08 
  747.721,1366.19 751.795,1366.31 755.869,1366.42 759.943,1366.54 764.017,1366.66 768.091,1366.78 772.165,1366.9 776.239,1367.02 780.313,1367.15 784.387,1367.27 
  788.461,1367.4 792.535,1367.53 796.609,1367.66 800.683,1367.79 804.757,1367.92 808.831,1368.06 812.905,1368.19 816.979,1368.33 821.053,1368.47 825.127,1368.61 
  829.201,1368.76 833.275,1368.9 837.349,1369.05 841.423,1369.2 845.497,1369.35 849.571,1369.51 853.645,1369.66 857.719,1369.82 861.793,1369.98 865.867,1370.14 
  869.941,1370.3 874.015,1370.47 878.089,1370.64 882.163,1370.81 886.237,1370.98 890.311,1371.16 894.385,1371.33 898.459,1371.51 902.533,1371.69 906.607,1371.88 
  910.681,1372.06 914.755,1372.25 918.829,1372.44 922.903,1372.63 926.977,1372.82 931.051,1373.01 935.125,1373.21 939.199,1373.4 943.273,1373.6 947.347,1373.8 
  951.421,1374 955.495,1374.2 959.569,1374.4 963.643,1374.6 967.717,1374.8 971.791,1375 975.865,1375.21 979.939,1375.41 984.013,1375.61 988.087,1375.81 
  992.161,1376.01 996.235,1376.21 1000.31,1376.41 1004.38,1376.61 1008.46,1376.8 1012.53,1377 1016.6,1377.19 1020.68,1377.38 1024.75,1377.57 1028.83,1377.75 
  1032.9,1377.94 1036.97,1378.12 1041.05,1378.3 1045.12,1378.47 1049.2,1378.65 1053.27,1378.82 1057.35,1378.98 1061.42,1379.15 1065.49,1379.31 1069.57,1379.46 
  1073.64,1379.62 1077.72,1379.77 1081.79,1379.91 1085.86,1380.06 1089.94,1380.2 1094.01,1380.33 1098.09,1380.47 1102.16,1380.6 1106.23,1380.72 1110.31,1380.85 
  1114.38,1380.97 1118.46,1381.08 1122.53,1381.2 1126.6,1381.31 1130.68,1381.41 1134.75,1381.52 1138.83,1381.62 1142.9,1381.72 1146.97,1381.81 1151.05,1381.91 
  1155.12,1382 1159.2,1382.09 1163.27,1382.17 1167.34,1382.25 1171.42,1382.34 1175.49,1382.41 1179.57,1382.49 1183.64,1382.57 1187.71,1382.64 1191.79,1382.71 
  1195.86,1382.78 1199.94,1382.84 1204.01,1382.91 1208.08,1382.97 1212.16,1383.04 1216.23,1383.1 1220.31,1383.16 1224.38,1383.22 1228.45,1383.27 1232.53,1383.33 
  1236.6,1383.38 1240.68,1383.43 1244.75,1383.49 1248.82,1383.54 1252.9,1383.59 1256.97,1383.64 1261.05,1383.68 1265.12,1383.73 1269.19,1383.78 1273.27,1383.82 
  1277.34,1383.87 1281.42,1383.91 1285.49,1383.95 1289.56,1384 1293.64,1384.04 1297.71,1384.08 1301.79,1384.12 1305.86,1384.16 1309.93,1384.2 1314.01,1384.23 
  1318.08,1384.27 1322.16,1384.31 1326.23,1384.35 1330.3,1384.38 1334.38,1384.42 1338.45,1384.45 1342.53,1384.49 1346.6,1384.52 1350.67,1384.55 1354.75,1384.59 
  1358.82,1384.62 1362.9,1384.65 1366.97,1384.68 1371.04,1384.72 1375.12,1384.75 1379.19,1384.78 1383.27,1384.81 1387.34,1384.84 1391.41,1384.87 1395.49,1384.9 
  1399.56,1384.93 1403.64,1384.96 1407.71,1384.99 1411.78,1385.01 1415.86,1385.04 1419.93,1385.07 1424.01,1385.1 1428.08,1385.12 1432.15,1385.15 1436.23,1385.18 
  1440.3,1385.2 1444.38,1385.23 1448.45,1385.26 1452.52,1385.28 1456.6,1385.31 1460.67,1385.33 1464.75,1385.36 1468.82,1385.38 1472.89,1385.41 1476.97,1385.43 
  1481.04,1385.46 1485.12,1385.48 1489.19,1385.5 1493.26,1385.53 1497.34,1385.55 1501.41,1385.57 1505.49,1385.6 1509.56,1385.62 1513.63,1385.64 1517.71,1385.67 
  1521.78,1385.69 1525.86,1385.71 1529.93,1385.73 1534,1385.75 1538.08,1385.78 1542.15,1385.8 1546.23,1385.82 1550.3,1385.84 1554.37,1385.86 1558.45,1385.88 
  1562.52,1385.9 1566.6,1385.92 1570.67,1385.94 1574.74,1385.96 1578.82,1385.98 1582.89,1386 1586.97,1386.02 1591.04,1386.04 1595.11,1386.06 1599.19,1386.08 
  1603.26,1386.1 1607.34,1386.12 1611.41,1386.14 1615.48,1386.16 1619.56,1386.18 1623.63,1386.19 1627.71,1386.21 1631.78,1386.23 1635.85,1386.25 1639.93,1386.27 
  1644,1386.28 1648.08,1386.3 1652.15,1386.32 1656.22,1386.34 1660.3,1386.35 1664.37,1386.37 1668.45,1386.39 1672.52,1386.41 1676.59,1386.42 1680.67,1386.44 
  1684.74,1386.46 1688.82,1386.47 1692.89,1386.49 1696.96,1386.51 1701.04,1386.52 1705.11,1386.54 1709.19,1386.55 1713.26,1386.57 1717.33,1386.59 1721.41,1386.6 
  1725.48,1386.62 1729.56,1386.63 1733.63,1386.65 1737.7,1386.66 1741.78,1386.68 1745.85,1386.69 1749.93,1386.71 1754,1386.72 1758.07,1386.74 1762.15,1386.75 
  1766.22,1386.77 1770.3,1386.78 1774.37,1386.8 1778.44,1386.81 1782.52,1386.83 1786.59,1386.84 1790.67,1386.85 1794.74,1386.87 1798.81,1386.88 1802.89,1386.9 
  1806.96,1386.91 1811.04,1386.92 1815.11,1386.94 1819.18,1386.95 1823.26,1386.96 1827.33,1386.98 1831.41,1386.99 1835.48,1387 1839.55,1387.02 1843.63,1387.03 
  1847.7,1387.04 1851.78,1387.06 1855.85,1387.07 1859.92,1387.08 1864,1387.09 1868.07,1387.11 1872.15,1387.12 1876.22,1387.13 1880.29,1387.14 1884.37,1387.16 
  1888.44,1387.17 1892.52,1387.18 1896.59,1387.19 1900.66,1387.2 1904.74,1387.22 1908.81,1387.23 1912.89,1387.24 1916.96,1387.25 1921.03,1387.26 1925.11,1387.27 
  1929.18,1387.29 1933.26,1387.3 1937.33,1387.31 1941.4,1387.32 1945.48,1387.33 1949.55,1387.34 1953.63,1387.35 1957.7,1387.37 1961.77,1387.38 1965.85,1387.39 
  1969.92,1387.4 1974,1387.41 1978.07,1387.42 1982.14,1387.43 1986.22,1387.44 1990.29,1387.45 1994.37,1387.46 1998.44,1387.47 2002.51,1387.48 2006.59,1387.49 
  2010.66,1387.5 2014.74,1387.51 2018.81,1387.52 2022.88,1387.53 2026.96,1387.54 2031.03,1387.55 2035.11,1387.56 2039.18,1387.57 2043.25,1387.58 2047.33,1387.59 
  2051.4,1387.6 2055.48,1387.61 2059.55,1387.62 2063.62,1387.63 2067.7,1387.64 2071.77,1387.65 2075.85,1387.66 2079.92,1387.67 2083.99,1387.68 2088.07,1387.69 
  2092.14,1387.7 2096.22,1387.71 2100.29,1387.72 2104.36,1387.73 2108.44,1387.74 2112.51,1387.74 2116.59,1387.75 2120.66,1387.76 2124.73,1387.77 2128.81,1387.78 
  2132.88,1387.79 2136.96,1387.8 2141.03,1387.81 2145.1,1387.82 2149.18,1387.82 2153.25,1387.83 2157.33,1387.84 2161.4,1387.85 2165.47,1387.86 2169.55,1387.87 
  2173.62,1387.88 2177.7,1387.88 2181.77,1387.89 2185.84,1387.9 2189.92,1387.91 2193.99,1387.92 2198.07,1387.93 2202.14,1387.93 2206.21,1387.94 2210.29,1387.95 
  2214.36,1387.96 2218.44,1387.97 2222.51,1387.97 2226.58,1387.98 2230.66,1387.99 2234.73,1388 2238.81,1388.01 2242.88,1388.01 2246.95,1388.02 2251.03,1388.03 
  2255.1,1388.04 2259.18,1388.05 2263.25,1388.05 2267.32,1388.06 2271.4,1388.07 2275.47,1388.08 2279.55,1388.08 2283.62,1388.09 2287.69,1388.1 2291.77,1388.11 
  
  "/>
<path clip-path="url(#clip990)" d="
M1821.1 406.7 L2280.93 406.7 L2280.93 225.26 L1821.1 225.26  Z
  " fill="#ffffff" fill-rule="evenodd" fill-opacity="1"/>
<polyline clip-path="url(#clip990)" style="stroke:#000000; stroke-width:4; stroke-opacity:1; fill:none" points="
  1821.1,406.7 2280.93,406.7 2280.93,225.26 1821.1,225.26 1821.1,406.7 
  "/>
<polyline clip-path="url(#clip990)" style="stroke:#009af9; stroke-width:4; stroke-opacity:1; fill:none" points="
  1845.04,285.74 1988.7,285.74 
  "/>
<path clip-path="url(#clip990)" d="M 0 0 M2017.32 272.302 L2017.32 285.288 L2023.2 285.288 Q2026.47 285.288 2028.25 283.599 Q2030.03 281.909 2030.03 278.784 Q2030.03 275.682 2028.25 273.992 Q2026.47 272.302 2023.2 272.302 L2017.32 272.302 M2012.65 268.46 L2023.2 268.46 Q2029.01 268.46 2031.98 271.099 Q2034.96 273.714 2034.96 278.784 Q2034.96 283.899 2031.98 286.515 Q2029.01 289.131 2023.2 289.131 L2017.32 289.131 L2017.32 303.02 L2012.65 303.02 L2012.65 268.46 Z" fill="#000000" fill-rule="evenodd" fill-opacity="1" /><path clip-path="url(#clip990)" d="M 0 0 M2063.18 298.089 L2063.18 288.807 L2055.54 288.807 L2055.54 284.964 L2067.81 284.964 L2067.81 299.802 Q2065.1 301.723 2061.84 302.719 Q2058.57 303.691 2054.87 303.691 Q2046.77 303.691 2042.18 298.969 Q2037.62 294.223 2037.62 285.774 Q2037.62 277.302 2042.18 272.58 Q2046.77 267.835 2054.87 267.835 Q2058.25 267.835 2061.28 268.668 Q2064.34 269.501 2066.91 271.122 L2066.91 276.099 Q2064.31 273.9 2061.4 272.788 Q2058.48 271.677 2055.26 271.677 Q2048.92 271.677 2045.73 275.219 Q2042.55 278.761 2042.55 285.774 Q2042.55 292.765 2045.73 296.307 Q2048.92 299.848 2055.26 299.848 Q2057.74 299.848 2059.68 299.432 Q2061.63 298.992 2063.18 298.089 Z" fill="#000000" fill-rule="evenodd" fill-opacity="1" /><path clip-path="url(#clip990)" d="M 0 0 M2077.14 272.302 L2077.14 299.177 L2082.79 299.177 Q2089.94 299.177 2093.25 295.936 Q2096.58 292.696 2096.58 285.705 Q2096.58 278.761 2093.25 275.543 Q2089.94 272.302 2082.79 272.302 L2077.14 272.302 M2072.46 268.46 L2082.07 268.46 Q2092.11 268.46 2096.81 272.65 Q2101.51 276.816 2101.51 285.705 Q2101.51 294.64 2096.79 298.83 Q2092.07 303.02 2082.07 303.02 L2072.46 303.02 L2072.46 268.46 Z" fill="#000000" fill-rule="evenodd" fill-opacity="1" /><polyline clip-path="url(#clip990)" style="stroke:#e26f46; stroke-width:4; stroke-opacity:1; fill:none" points="
  1845.04,346.22 1988.7,346.22 
  "/>
<path clip-path="url(#clip990)" d="M 0 0 M2012.65 328.94 L2017.32 328.94 L2017.32 359.565 L2034.15 359.565 L2034.15 363.5 L2012.65 363.5 L2012.65 328.94 Z" fill="#000000" fill-rule="evenodd" fill-opacity="1" /><path clip-path="url(#clip990)" d="M 0 0 M2059.96 349.472 L2059.96 351.555 L2040.38 351.555 Q2040.66 355.953 2043.02 358.268 Q2045.4 360.56 2049.64 360.56 Q2052.09 360.56 2054.38 359.958 Q2056.7 359.356 2058.97 358.153 L2058.97 362.18 Q2056.67 363.152 2054.27 363.662 Q2051.86 364.171 2049.38 364.171 Q2043.18 364.171 2039.54 360.56 Q2035.93 356.949 2035.93 350.791 Q2035.93 344.426 2039.36 340.699 Q2042.81 336.949 2048.64 336.949 Q2053.87 336.949 2056.91 340.329 Q2059.96 343.685 2059.96 349.472 M2055.7 348.222 Q2055.66 344.727 2053.73 342.643 Q2051.84 340.56 2048.69 340.56 Q2045.12 340.56 2042.97 342.574 Q2040.84 344.588 2040.52 348.245 L2055.7 348.222 Z" fill="#000000" fill-rule="evenodd" fill-opacity="1" /><path clip-path="url(#clip990)" d="M 0 0 M2086.6 349.472 L2086.6 351.555 L2067.02 351.555 Q2067.3 355.953 2069.66 358.268 Q2072.04 360.56 2076.28 360.56 Q2078.73 360.56 2081.03 359.958 Q2083.34 359.356 2085.61 358.153 L2085.61 362.18 Q2083.32 363.152 2080.91 363.662 Q2078.5 364.171 2076.03 364.171 Q2069.82 364.171 2066.19 360.56 Q2062.58 356.949 2062.58 350.791 Q2062.58 344.426 2066 340.699 Q2069.45 336.949 2075.29 336.949 Q2080.52 336.949 2083.55 340.329 Q2086.6 343.685 2086.6 349.472 M2082.35 348.222 Q2082.3 344.727 2080.38 342.643 Q2078.48 340.56 2075.33 340.56 Q2071.77 340.56 2069.61 342.574 Q2067.48 344.588 2067.16 348.245 L2082.35 348.222 Z" fill="#000000" fill-rule="evenodd" fill-opacity="1" /><path clip-path="url(#clip990)" d="M 0 0 M2088.92 348.616 L2101.4 348.616 L2101.4 352.412 L2088.92 352.412 L2088.92 348.616 Z" fill="#000000" fill-rule="evenodd" fill-opacity="1" /><path clip-path="url(#clip990)" d="M 0 0 M2126.77 330.074 L2126.77 334.634 Q2124.1 333.361 2121.74 332.736 Q2119.38 332.111 2117.18 332.111 Q2113.36 332.111 2111.28 333.592 Q2109.22 335.074 2109.22 337.805 Q2109.22 340.097 2110.59 341.278 Q2111.97 342.435 2115.82 343.153 L2118.64 343.731 Q2123.87 344.727 2126.35 347.25 Q2128.85 349.75 2128.85 353.963 Q2128.85 358.986 2125.47 361.578 Q2122.11 364.171 2115.61 364.171 Q2113.16 364.171 2110.38 363.615 Q2107.62 363.06 2104.66 361.972 L2104.66 357.157 Q2107.51 358.754 2110.24 359.565 Q2112.97 360.375 2115.61 360.375 Q2119.61 360.375 2121.79 358.801 Q2123.97 357.227 2123.97 354.31 Q2123.97 351.764 2122.39 350.328 Q2120.84 348.893 2117.28 348.176 L2114.43 347.62 Q2109.2 346.579 2106.86 344.356 Q2104.52 342.134 2104.52 338.176 Q2104.52 333.592 2107.74 330.954 Q2110.98 328.315 2116.65 328.315 Q2119.08 328.315 2121.6 328.755 Q2124.13 329.194 2126.77 330.074 Z" fill="#000000" fill-rule="evenodd" fill-opacity="1" /><path clip-path="url(#clip990)" d="M 0 0 M2155.49 349.472 L2155.49 351.555 L2135.91 351.555 Q2136.19 355.953 2138.55 358.268 Q2140.93 360.56 2145.17 360.56 Q2147.62 360.56 2149.91 359.958 Q2152.23 359.356 2154.5 358.153 L2154.5 362.18 Q2152.21 363.152 2149.8 363.662 Q2147.39 364.171 2144.91 364.171 Q2138.71 364.171 2135.08 360.56 Q2131.47 356.949 2131.47 350.791 Q2131.47 344.426 2134.89 340.699 Q2138.34 336.949 2144.17 336.949 Q2149.41 336.949 2152.44 340.329 Q2155.49 343.685 2155.49 349.472 M2151.23 348.222 Q2151.19 344.727 2149.27 342.643 Q2147.37 340.56 2144.22 340.56 Q2140.66 340.56 2138.5 342.574 Q2136.37 344.588 2136.05 348.245 L2151.23 348.222 Z" fill="#000000" fill-rule="evenodd" fill-opacity="1" /><path clip-path="url(#clip990)" d="M 0 0 M2159.52 353.268 L2159.52 337.574 L2163.78 337.574 L2163.78 353.106 Q2163.78 356.787 2165.22 358.639 Q2166.65 360.467 2169.52 360.467 Q2172.97 360.467 2174.96 358.268 Q2176.97 356.069 2176.97 352.273 L2176.97 337.574 L2181.23 337.574 L2181.23 363.5 L2176.97 363.5 L2176.97 359.518 Q2175.42 361.879 2173.36 363.037 Q2171.33 364.171 2168.62 364.171 Q2164.15 364.171 2161.84 361.393 Q2159.52 358.615 2159.52 353.268 M2170.24 336.949 L2170.24 336.949 Z" fill="#000000" fill-rule="evenodd" fill-opacity="1" /><path clip-path="url(#clip990)" d="M 0 0 M2207.25 347.852 L2207.25 363.5 L2202.99 363.5 L2202.99 347.991 Q2202.99 344.31 2201.56 342.481 Q2200.12 340.653 2197.25 340.653 Q2193.8 340.653 2191.81 342.852 Q2189.82 345.051 2189.82 348.847 L2189.82 363.5 L2185.54 363.5 L2185.54 337.574 L2189.82 337.574 L2189.82 341.602 Q2191.35 339.264 2193.41 338.106 Q2195.49 336.949 2198.2 336.949 Q2202.67 336.949 2204.96 339.727 Q2207.25 342.481 2207.25 347.852 Z" fill="#000000" fill-rule="evenodd" fill-opacity="1" /><path clip-path="url(#clip990)" d="M 0 0 M2228.78 350.236 Q2228.78 345.606 2226.86 343.06 Q2224.96 340.514 2221.51 340.514 Q2218.09 340.514 2216.16 343.06 Q2214.27 345.606 2214.27 350.236 Q2214.27 354.842 2216.16 357.389 Q2218.09 359.935 2221.51 359.935 Q2224.96 359.935 2226.86 357.389 Q2228.78 354.842 2228.78 350.236 M2233.04 360.282 Q2233.04 366.902 2230.1 370.12 Q2227.16 373.361 2221.09 373.361 Q2218.85 373.361 2216.86 373.014 Q2214.87 372.689 2212.99 371.995 L2212.99 367.852 Q2214.87 368.87 2216.7 369.356 Q2218.53 369.842 2220.42 369.842 Q2224.61 369.842 2226.7 367.643 Q2228.78 365.467 2228.78 361.046 L2228.78 358.94 Q2227.46 361.231 2225.4 362.365 Q2223.34 363.5 2220.47 363.5 Q2215.7 363.5 2212.78 359.865 Q2209.87 356.231 2209.87 350.236 Q2209.87 344.217 2212.78 340.583 Q2215.7 336.949 2220.47 336.949 Q2223.34 336.949 2225.4 338.083 Q2227.46 339.217 2228.78 341.509 L2228.78 337.574 L2233.04 337.574 L2233.04 360.282 Z" fill="#000000" fill-rule="evenodd" fill-opacity="1" /></svg>
