<?xml version="1.0" encoding="utf-8"?>
<svg xmlns="http://www.w3.org/2000/svg" xmlns:xlink="http://www.w3.org/1999/xlink" width="600" height="400" viewBox="0 0 2400 1600">
<defs>
  <clipPath id="clip740">
    <rect x="0" y="0" width="2400" height="1600"/>
  </clipPath>
</defs>
<path clip-path="url(#clip740)" d="
M0 1600 L2400 1600 L2400 0 L0 0  Z
  " fill="#ffffff" fill-rule="evenodd" fill-opacity="1"/>
<defs>
  <clipPath id="clip741">
    <rect x="480" y="0" width="1681" height="1600"/>
  </clipPath>
</defs>
<path clip-path="url(#clip740)" d="
M228.558 1405.9 L2352.76 1405.9 L2352.76 47.2441 L228.558 47.2441  Z
  " fill="#ffffff" fill-rule="evenodd" fill-opacity="1"/>
<defs>
  <clipPath id="clip742">
    <rect x="228" y="47" width="2125" height="1360"/>
  </clipPath>
</defs>
<polyline clip-path="url(#clip742)" style="stroke:#000000; stroke-width:2; stroke-opacity:0; fill:none" points="
  345.393,1405.9 345.393,47.2441 
  "/>
<polyline clip-path="url(#clip742)" style="stroke:#000000; stroke-width:2; stroke-opacity:0; fill:none" points="
  818.025,1405.9 818.025,47.2441 
  "/>
<polyline clip-path="url(#clip742)" style="stroke:#000000; stroke-width:2; stroke-opacity:0; fill:none" points="
  1290.66,1405.9 1290.66,47.2441 
  "/>
<polyline clip-path="url(#clip742)" style="stroke:#000000; stroke-width:2; stroke-opacity:0; fill:none" points="
  1763.29,1405.9 1763.29,47.2441 
  "/>
<polyline clip-path="url(#clip742)" style="stroke:#000000; stroke-width:2; stroke-opacity:0; fill:none" points="
  2235.92,1405.9 2235.92,47.2441 
  "/>
<polyline clip-path="url(#clip740)" style="stroke:#000000; stroke-width:4; stroke-opacity:1; fill:none" points="
  228.558,1405.9 2352.76,1405.9 
  "/>
<polyline clip-path="url(#clip740)" style="stroke:#000000; stroke-width:4; stroke-opacity:1; fill:none" points="
  345.393,1405.9 345.393,1389.6 
  "/>
<polyline clip-path="url(#clip740)" style="stroke:#000000; stroke-width:4; stroke-opacity:1; fill:none" points="
  818.025,1405.9 818.025,1389.6 
  "/>
<polyline clip-path="url(#clip740)" style="stroke:#000000; stroke-width:4; stroke-opacity:1; fill:none" points="
  1290.66,1405.9 1290.66,1389.6 
  "/>
<polyline clip-path="url(#clip740)" style="stroke:#000000; stroke-width:4; stroke-opacity:1; fill:none" points="
  1763.29,1405.9 1763.29,1389.6 
  "/>
<polyline clip-path="url(#clip740)" style="stroke:#000000; stroke-width:4; stroke-opacity:1; fill:none" points="
  2235.92,1405.9 2235.92,1389.6 
  "/>
<path clip-path="url(#clip740)" d="M 0 0 M345.393 1440.09 Q339.976 1440.09 337.233 1445.43 Q334.525 1450.75 334.525 1461.44 Q334.525 1472.1 337.233 1477.45 Q339.976 1482.76 345.393 1482.76 Q350.844 1482.76 353.553 1477.45 Q356.296 1472.1 356.296 1461.44 Q356.296 1450.75 353.553 1445.43 Q350.844 1440.09 345.393 1440.09 M345.393 1434.53 Q354.108 1434.53 358.692 1441.44 Q363.31 1448.31 363.31 1461.44 Q363.31 1474.53 358.692 1481.44 Q354.108 1488.31 345.393 1488.31 Q336.678 1488.31 332.06 1481.44 Q327.476 1474.53 327.476 1461.44 Q327.476 1448.31 332.06 1441.44 Q336.678 1434.53 345.393 1434.53 Z" fill="#000000" fill-rule="evenodd" fill-opacity="1" /><path clip-path="url(#clip740)" d="M 0 0 M803.442 1435.47 L830.976 1435.47 L830.976 1441.37 L809.865 1441.37 L809.865 1454.08 Q811.393 1453.56 812.921 1453.31 Q814.449 1453.04 815.976 1453.04 Q824.657 1453.04 829.726 1457.79 Q834.796 1462.55 834.796 1470.68 Q834.796 1479.04 829.587 1483.7 Q824.379 1488.31 814.9 1488.31 Q811.636 1488.31 808.233 1487.76 Q804.865 1487.2 801.254 1486.09 L801.254 1479.04 Q804.379 1480.75 807.713 1481.58 Q811.046 1482.41 814.761 1482.41 Q820.768 1482.41 824.275 1479.25 Q827.782 1476.09 827.782 1470.68 Q827.782 1465.26 824.275 1462.1 Q820.768 1458.94 814.761 1458.94 Q811.949 1458.94 809.136 1459.56 Q806.358 1460.19 803.442 1461.51 L803.442 1435.47 Z" fill="#000000" fill-rule="evenodd" fill-opacity="1" /><path clip-path="url(#clip740)" d="M 0 0 M1255.97 1481.41 L1267.43 1481.41 L1267.43 1441.86 L1254.96 1444.36 L1254.96 1437.97 L1267.36 1435.47 L1274.37 1435.47 L1274.37 1481.41 L1285.83 1481.41 L1285.83 1487.31 L1255.97 1487.31 L1255.97 1481.41 Z" fill="#000000" fill-rule="evenodd" fill-opacity="1" /><path clip-path="url(#clip740)" d="M 0 0 M1308.43 1440.09 Q1303.02 1440.09 1300.28 1445.43 Q1297.57 1450.75 1297.57 1461.44 Q1297.57 1472.1 1300.28 1477.45 Q1303.02 1482.76 1308.43 1482.76 Q1313.89 1482.76 1316.59 1477.45 Q1319.34 1472.1 1319.34 1461.44 Q1319.34 1450.75 1316.59 1445.43 Q1313.89 1440.09 1308.43 1440.09 M1308.43 1434.53 Q1317.15 1434.53 1321.73 1441.44 Q1326.35 1448.31 1326.35 1461.44 Q1326.35 1474.53 1321.73 1481.44 Q1317.15 1488.31 1308.43 1488.31 Q1299.72 1488.31 1295.1 1481.44 Q1290.52 1474.53 1290.52 1461.44 Q1290.52 1448.31 1295.1 1441.44 Q1299.72 1434.53 1308.43 1434.53 Z" fill="#000000" fill-rule="evenodd" fill-opacity="1" /><path clip-path="url(#clip740)" d="M 0 0 M1729.35 1481.41 L1740.81 1481.41 L1740.81 1441.86 L1728.34 1444.36 L1728.34 1437.97 L1740.74 1435.47 L1747.75 1435.47 L1747.75 1481.41 L1759.21 1481.41 L1759.21 1487.31 L1729.35 1487.31 L1729.35 1481.41 Z" fill="#000000" fill-rule="evenodd" fill-opacity="1" /><path clip-path="url(#clip740)" d="M 0 0 M1766.88 1435.47 L1794.42 1435.47 L1794.42 1441.37 L1773.31 1441.37 L1773.31 1454.08 Q1774.83 1453.56 1776.36 1453.31 Q1777.89 1453.04 1779.42 1453.04 Q1788.1 1453.04 1793.17 1457.79 Q1798.24 1462.55 1798.24 1470.68 Q1798.24 1479.04 1793.03 1483.7 Q1787.82 1488.31 1778.34 1488.31 Q1775.08 1488.31 1771.67 1487.76 Q1768.31 1487.2 1764.7 1486.09 L1764.7 1479.04 Q1767.82 1480.75 1771.15 1481.58 Q1774.49 1482.41 1778.2 1482.41 Q1784.21 1482.41 1787.72 1479.25 Q1791.22 1476.09 1791.22 1470.68 Q1791.22 1465.26 1787.72 1462.1 Q1784.21 1458.94 1778.2 1458.94 Q1775.39 1458.94 1772.58 1459.56 Q1769.8 1460.19 1766.88 1461.51 L1766.88 1435.47 Z" fill="#000000" fill-rule="evenodd" fill-opacity="1" /><path clip-path="url(#clip740)" d="M 0 0 M2207.64 1481.41 L2232.12 1481.41 L2232.12 1487.31 L2199.2 1487.31 L2199.2 1481.41 Q2203.2 1477.27 2210.07 1470.33 Q2216.98 1463.35 2218.75 1461.34 Q2222.12 1457.55 2223.44 1454.95 Q2224.79 1452.31 2224.79 1449.77 Q2224.79 1445.64 2221.88 1443.04 Q2218.99 1440.43 2214.34 1440.43 Q2211.04 1440.43 2207.36 1441.58 Q2203.72 1442.72 2199.55 1445.05 L2199.55 1437.97 Q2203.79 1436.27 2207.47 1435.4 Q2211.15 1434.53 2214.2 1434.53 Q2222.26 1434.53 2227.05 1438.56 Q2231.84 1442.59 2231.84 1449.32 Q2231.84 1452.52 2230.63 1455.4 Q2229.45 1458.25 2226.29 1462.13 Q2225.42 1463.14 2220.77 1467.97 Q2216.11 1472.76 2207.64 1481.41 Z" fill="#000000" fill-rule="evenodd" fill-opacity="1" /><path clip-path="url(#clip740)" d="M 0 0 M2254.72 1440.09 Q2249.31 1440.09 2246.56 1445.43 Q2243.86 1450.75 2243.86 1461.44 Q2243.86 1472.1 2246.56 1477.45 Q2249.31 1482.76 2254.72 1482.76 Q2260.17 1482.76 2262.88 1477.45 Q2265.63 1472.1 2265.63 1461.44 Q2265.63 1450.75 2262.88 1445.43 Q2260.17 1440.09 2254.72 1440.09 M2254.72 1434.53 Q2263.44 1434.53 2268.02 1441.44 Q2272.64 1448.31 2272.64 1461.44 Q2272.64 1474.53 2268.02 1481.44 Q2263.44 1488.31 2254.72 1488.31 Q2246.01 1488.31 2241.39 1481.44 Q2236.81 1474.53 2236.81 1461.44 Q2236.81 1448.31 2241.39 1441.44 Q2246.01 1434.53 2254.72 1434.53 Z" fill="#000000" fill-rule="evenodd" fill-opacity="1" /><path clip-path="url(#clip740)" d="M 0 0 M985.087 1522.45 L985.087 1559.4 L992.853 1559.4 Q1002.69 1559.4 1007.24 1554.94 Q1011.82 1550.49 1011.82 1540.88 Q1011.82 1531.33 1007.24 1526.9 Q1002.69 1522.45 992.853 1522.45 L985.087 1522.45 M978.658 1517.16 L991.867 1517.16 Q1005.68 1517.16 1012.14 1522.92 Q1018.6 1528.65 1018.6 1540.88 Q1018.6 1553.16 1012.11 1558.92 Q1005.62 1564.68 991.867 1564.68 L978.658 1564.68 L978.658 1517.16 Z" fill="#000000" fill-rule="evenodd" fill-opacity="1" /><path clip-path="url(#clip740)" d="M 0 0 M1024.14 1550.62 L1024.14 1529.04 L1030 1529.04 L1030 1550.39 Q1030 1555.45 1031.97 1558 Q1033.94 1560.51 1037.89 1560.51 Q1042.63 1560.51 1045.37 1557.49 Q1048.14 1554.47 1048.14 1549.25 L1048.14 1529.04 L1054 1529.04 L1054 1564.68 L1048.14 1564.68 L1048.14 1559.21 Q1046.01 1562.46 1043.17 1564.05 Q1040.37 1565.61 1036.65 1565.61 Q1030.51 1565.61 1027.32 1561.79 Q1024.14 1557.97 1024.14 1550.62 M1038.88 1528.18 L1038.88 1528.18 Z" fill="#000000" fill-rule="evenodd" fill-opacity="1" /><path clip-path="url(#clip740)" d="M 0 0 M1080.8 1534.51 Q1079.81 1533.94 1078.63 1533.68 Q1077.49 1533.4 1076.09 1533.4 Q1071.12 1533.4 1068.45 1536.64 Q1065.8 1539.86 1065.8 1545.91 L1065.8 1564.68 L1059.92 1564.68 L1059.92 1529.04 L1065.8 1529.04 L1065.8 1534.57 Q1067.65 1531.33 1070.61 1529.77 Q1073.57 1528.18 1077.8 1528.18 Q1078.41 1528.18 1079.14 1528.27 Q1079.87 1528.34 1080.76 1528.49 L1080.8 1534.51 Z" fill="#000000" fill-rule="evenodd" fill-opacity="1" /><path clip-path="url(#clip740)" d="M 0 0 M1103.14 1546.76 Q1096.04 1546.76 1093.3 1548.39 Q1090.57 1550.01 1090.57 1553.93 Q1090.57 1557.04 1092.6 1558.89 Q1094.67 1560.71 1098.21 1560.71 Q1103.08 1560.71 1106 1557.27 Q1108.96 1553.8 1108.96 1548.07 L1108.96 1546.76 L1103.14 1546.76 M1114.82 1544.35 L1114.82 1564.68 L1108.96 1564.68 L1108.96 1559.27 Q1106.96 1562.52 1103.97 1564.08 Q1100.97 1565.61 1096.65 1565.61 Q1091.17 1565.61 1087.93 1562.55 Q1084.71 1559.46 1084.71 1554.31 Q1084.71 1548.29 1088.72 1545.24 Q1092.76 1542.18 1100.75 1542.18 L1108.96 1542.18 L1108.96 1541.61 Q1108.96 1537.57 1106.29 1535.37 Q1103.65 1533.14 1098.84 1533.14 Q1095.79 1533.14 1092.89 1533.87 Q1089.99 1534.61 1087.32 1536.07 L1087.32 1530.66 Q1090.54 1529.42 1093.56 1528.81 Q1096.58 1528.18 1099.45 1528.18 Q1107.18 1528.18 1111 1532.19 Q1114.82 1536.2 1114.82 1544.35 Z" fill="#000000" fill-rule="evenodd" fill-opacity="1" /><path clip-path="url(#clip740)" d="M 0 0 M1126.76 1518.91 L1126.76 1529.04 L1138.82 1529.04 L1138.82 1533.59 L1126.76 1533.59 L1126.76 1552.94 Q1126.76 1557.3 1127.93 1558.54 Q1129.14 1559.78 1132.8 1559.78 L1138.82 1559.78 L1138.82 1564.68 L1132.8 1564.68 Q1126.02 1564.68 1123.45 1562.17 Q1120.87 1559.62 1120.87 1552.94 L1120.87 1533.59 L1116.57 1533.59 L1116.57 1529.04 L1120.87 1529.04 L1120.87 1518.91 L1126.76 1518.91 Z" fill="#000000" fill-rule="evenodd" fill-opacity="1" /><path clip-path="url(#clip740)" d="M 0 0 M1144.96 1529.04 L1150.82 1529.04 L1150.82 1564.68 L1144.96 1564.68 L1144.96 1529.04 M1144.96 1515.16 L1150.82 1515.16 L1150.82 1522.57 L1144.96 1522.57 L1144.96 1515.16 Z" fill="#000000" fill-rule="evenodd" fill-opacity="1" /><path clip-path="url(#clip740)" d="M 0 0 M1170.77 1533.14 Q1166.06 1533.14 1163.33 1536.83 Q1160.59 1540.49 1160.59 1546.89 Q1160.59 1553.29 1163.3 1556.98 Q1166.03 1560.64 1170.77 1560.64 Q1175.45 1560.64 1178.19 1556.95 Q1180.93 1553.26 1180.93 1546.89 Q1180.93 1540.56 1178.19 1536.87 Q1175.45 1533.14 1170.77 1533.14 M1170.77 1528.18 Q1178.41 1528.18 1182.77 1533.14 Q1187.13 1538.11 1187.13 1546.89 Q1187.13 1555.64 1182.77 1560.64 Q1178.41 1565.61 1170.77 1565.61 Q1163.1 1565.61 1158.74 1560.64 Q1154.42 1555.64 1154.42 1546.89 Q1154.42 1538.11 1158.74 1533.14 Q1163.1 1528.18 1170.77 1528.18 Z" fill="#000000" fill-rule="evenodd" fill-opacity="1" /><path clip-path="url(#clip740)" d="M 0 0 M1222.91 1543.17 L1222.91 1564.68 L1217.05 1564.68 L1217.05 1543.36 Q1217.05 1538.3 1215.08 1535.78 Q1213.11 1533.27 1209.16 1533.27 Q1204.42 1533.27 1201.68 1536.29 Q1198.94 1539.32 1198.94 1544.54 L1198.94 1564.68 L1193.05 1564.68 L1193.05 1529.04 L1198.94 1529.04 L1198.94 1534.57 Q1201.04 1531.36 1203.88 1529.77 Q1206.74 1528.18 1210.47 1528.18 Q1216.61 1528.18 1219.76 1532 Q1222.91 1535.78 1222.91 1543.17 Z" fill="#000000" fill-rule="evenodd" fill-opacity="1" /><path clip-path="url(#clip740)" d="M 0 0 M1263.59 1533.14 Q1258.88 1533.14 1256.14 1536.83 Q1253.4 1540.49 1253.4 1546.89 Q1253.4 1553.29 1256.11 1556.98 Q1258.84 1560.64 1263.59 1560.64 Q1268.27 1560.64 1271 1556.95 Q1273.74 1553.26 1273.74 1546.89 Q1273.74 1540.56 1271 1536.87 Q1268.27 1533.14 1263.59 1533.14 M1263.59 1528.18 Q1271.23 1528.18 1275.59 1533.14 Q1279.95 1538.11 1279.95 1546.89 Q1279.95 1555.64 1275.59 1560.64 Q1271.23 1565.61 1263.59 1565.61 Q1255.92 1565.61 1251.56 1560.64 Q1247.23 1555.64 1247.23 1546.89 Q1247.23 1538.11 1251.56 1533.14 Q1255.92 1528.18 1263.59 1528.18 Z" fill="#000000" fill-rule="evenodd" fill-opacity="1" /><path clip-path="url(#clip740)" d="M 0 0 M1304.14 1515.16 L1304.14 1520.03 L1298.53 1520.03 Q1295.38 1520.03 1294.14 1521.3 Q1292.93 1522.57 1292.93 1525.88 L1292.93 1529.04 L1302.58 1529.04 L1302.58 1533.59 L1292.93 1533.59 L1292.93 1564.68 L1287.04 1564.68 L1287.04 1533.59 L1281.44 1533.59 L1281.44 1529.04 L1287.04 1529.04 L1287.04 1526.55 Q1287.04 1520.6 1289.81 1517.9 Q1292.58 1515.16 1298.6 1515.16 L1304.14 1515.16 Z" fill="#000000" fill-rule="evenodd" fill-opacity="1" /><path clip-path="url(#clip740)" d="M 0 0 M1337.68 1522.45 L1337.68 1540.3 L1345.77 1540.3 Q1350.26 1540.3 1352.71 1537.98 Q1355.16 1535.66 1355.16 1531.36 Q1355.16 1527.09 1352.71 1524.77 Q1350.26 1522.45 1345.77 1522.45 L1337.68 1522.45 M1331.25 1517.16 L1345.77 1517.16 Q1353.76 1517.16 1357.83 1520.79 Q1361.94 1524.39 1361.94 1531.36 Q1361.94 1538.39 1357.83 1541.99 Q1353.76 1545.59 1345.77 1545.59 L1337.68 1545.59 L1337.68 1564.68 L1331.25 1564.68 L1331.25 1517.16 Z" fill="#000000" fill-rule="evenodd" fill-opacity="1" /><path clip-path="url(#clip740)" d="M 0 0 M1381.35 1546.76 Q1374.25 1546.76 1371.52 1548.39 Q1368.78 1550.01 1368.78 1553.93 Q1368.78 1557.04 1370.82 1558.89 Q1372.89 1560.71 1376.42 1560.71 Q1381.29 1560.71 1384.22 1557.27 Q1387.18 1553.8 1387.18 1548.07 L1387.18 1546.76 L1381.35 1546.76 M1393.03 1544.35 L1393.03 1564.68 L1387.18 1564.68 L1387.18 1559.27 Q1385.17 1562.52 1382.18 1564.08 Q1379.19 1565.61 1374.86 1565.61 Q1369.39 1565.61 1366.14 1562.55 Q1362.92 1559.46 1362.92 1554.31 Q1362.92 1548.29 1366.93 1545.24 Q1370.98 1542.18 1378.97 1542.18 L1387.18 1542.18 L1387.18 1541.61 Q1387.18 1537.57 1384.5 1535.37 Q1381.86 1533.14 1377.06 1533.14 Q1374 1533.14 1371.1 1533.87 Q1368.21 1534.61 1365.53 1536.07 L1365.53 1530.66 Q1368.75 1529.42 1371.77 1528.81 Q1374.8 1528.18 1377.66 1528.18 Q1385.39 1528.18 1389.21 1532.19 Q1393.03 1536.2 1393.03 1544.35 Z" fill="#000000" fill-rule="evenodd" fill-opacity="1" /><path clip-path="url(#clip740)" d="M 0 0 M1428.81 1543.17 L1428.81 1564.68 L1422.95 1564.68 L1422.95 1543.36 Q1422.95 1538.3 1420.98 1535.78 Q1419.01 1533.27 1415.06 1533.27 Q1410.32 1533.27 1407.58 1536.29 Q1404.84 1539.32 1404.84 1544.54 L1404.84 1564.68 L1398.95 1564.68 L1398.95 1529.04 L1404.84 1529.04 L1404.84 1534.57 Q1406.94 1531.36 1409.78 1529.77 Q1412.64 1528.18 1416.36 1528.18 Q1422.51 1528.18 1425.66 1532 Q1428.81 1535.78 1428.81 1543.17 Z" fill="#000000" fill-rule="evenodd" fill-opacity="1" /><path clip-path="url(#clip740)" d="M 0 0 M1458.41 1534.45 L1458.41 1515.16 L1464.27 1515.16 L1464.27 1564.68 L1458.41 1564.68 L1458.41 1559.34 Q1456.56 1562.52 1453.73 1564.08 Q1450.93 1565.61 1446.98 1565.61 Q1440.52 1565.61 1436.45 1560.45 Q1432.41 1555.29 1432.41 1546.89 Q1432.41 1538.49 1436.45 1533.33 Q1440.52 1528.18 1446.98 1528.18 Q1450.93 1528.18 1453.73 1529.74 Q1456.56 1531.26 1458.41 1534.45 M1438.45 1546.89 Q1438.45 1553.35 1441.09 1557.04 Q1443.77 1560.71 1448.42 1560.71 Q1453.06 1560.71 1455.74 1557.04 Q1458.41 1553.35 1458.41 1546.89 Q1458.41 1540.43 1455.74 1536.77 Q1453.06 1533.08 1448.42 1533.08 Q1443.77 1533.08 1441.09 1536.77 Q1438.45 1540.43 1438.45 1546.89 Z" fill="#000000" fill-rule="evenodd" fill-opacity="1" /><path clip-path="url(#clip740)" d="M 0 0 M1500.9 1545.4 L1500.9 1548.26 L1473.97 1548.26 Q1474.36 1554.31 1477.6 1557.49 Q1480.88 1560.64 1486.7 1560.64 Q1490.08 1560.64 1493.23 1559.81 Q1496.41 1558.99 1499.53 1557.33 L1499.53 1562.87 Q1496.38 1564.21 1493.07 1564.91 Q1489.76 1565.61 1486.35 1565.61 Q1477.82 1565.61 1472.83 1560.64 Q1467.86 1555.68 1467.86 1547.21 Q1467.86 1538.46 1472.57 1533.33 Q1477.32 1528.18 1485.34 1528.18 Q1492.53 1528.18 1496.7 1532.82 Q1500.9 1537.44 1500.9 1545.4 M1495.04 1543.68 Q1494.98 1538.87 1492.34 1536.01 Q1489.73 1533.14 1485.4 1533.14 Q1480.5 1533.14 1477.54 1535.91 Q1474.61 1538.68 1474.16 1543.71 L1495.04 1543.68 Z" fill="#000000" fill-rule="evenodd" fill-opacity="1" /><path clip-path="url(#clip740)" d="M 0 0 M1534.8 1535.88 Q1536.99 1531.93 1540.05 1530.05 Q1543.11 1528.18 1547.24 1528.18 Q1552.81 1528.18 1555.84 1532.09 Q1558.86 1535.97 1558.86 1543.17 L1558.86 1564.68 L1552.97 1564.68 L1552.97 1543.36 Q1552.97 1538.23 1551.16 1535.75 Q1549.34 1533.27 1545.62 1533.27 Q1541.07 1533.27 1538.43 1536.29 Q1535.78 1539.32 1535.78 1544.54 L1535.78 1564.68 L1529.9 1564.68 L1529.9 1543.36 Q1529.9 1538.2 1528.08 1535.75 Q1526.27 1533.27 1522.48 1533.27 Q1517.99 1533.27 1515.35 1536.32 Q1512.71 1539.35 1512.71 1544.54 L1512.71 1564.68 L1506.82 1564.68 L1506.82 1529.04 L1512.71 1529.04 L1512.71 1534.57 Q1514.71 1531.3 1517.51 1529.74 Q1520.32 1528.18 1524.17 1528.18 Q1528.05 1528.18 1530.76 1530.15 Q1533.49 1532.12 1534.8 1535.88 Z" fill="#000000" fill-rule="evenodd" fill-opacity="1" /><path clip-path="url(#clip740)" d="M 0 0 M1565 1529.04 L1570.86 1529.04 L1570.86 1564.68 L1565 1564.68 L1565 1529.04 M1565 1515.16 L1570.86 1515.16 L1570.86 1522.57 L1565 1522.57 L1565 1515.16 Z" fill="#000000" fill-rule="evenodd" fill-opacity="1" /><path clip-path="url(#clip740)" d="M 0 0 M1602.66 1530.4 L1602.66 1535.88 Q1600.17 1534.51 1597.66 1533.84 Q1595.18 1533.14 1592.63 1533.14 Q1586.93 1533.14 1583.78 1536.77 Q1580.63 1540.37 1580.63 1546.89 Q1580.63 1553.42 1583.78 1557.04 Q1586.93 1560.64 1592.63 1560.64 Q1595.18 1560.64 1597.66 1559.97 Q1600.17 1559.27 1602.66 1557.9 L1602.66 1563.32 Q1600.21 1564.46 1597.56 1565.03 Q1594.95 1565.61 1591.99 1565.61 Q1583.94 1565.61 1579.2 1560.55 Q1574.46 1555.49 1574.46 1546.89 Q1574.46 1538.17 1579.23 1533.17 Q1584.04 1528.18 1592.38 1528.18 Q1595.08 1528.18 1597.66 1528.75 Q1600.24 1529.29 1602.66 1530.4 Z" fill="#000000" fill-rule="evenodd" fill-opacity="1" /><polyline clip-path="url(#clip742)" style="stroke:#000000; stroke-width:2; stroke-opacity:0; fill:none" points="
  228.558,1367.45 2352.76,1367.45 
  "/>
<polyline clip-path="url(#clip742)" style="stroke:#000000; stroke-width:2; stroke-opacity:0; fill:none" points="
  228.558,1138.56 2352.76,1138.56 
  "/>
<polyline clip-path="url(#clip742)" style="stroke:#000000; stroke-width:2; stroke-opacity:0; fill:none" points="
  228.558,909.679 2352.76,909.679 
  "/>
<polyline clip-path="url(#clip742)" style="stroke:#000000; stroke-width:2; stroke-opacity:0; fill:none" points="
  228.558,680.795 2352.76,680.795 
  "/>
<polyline clip-path="url(#clip742)" style="stroke:#000000; stroke-width:2; stroke-opacity:0; fill:none" points="
  228.558,451.911 2352.76,451.911 
  "/>
<polyline clip-path="url(#clip742)" style="stroke:#000000; stroke-width:2; stroke-opacity:0; fill:none" points="
  228.558,223.027 2352.76,223.027 
  "/>
<polyline clip-path="url(#clip740)" style="stroke:#000000; stroke-width:4; stroke-opacity:1; fill:none" points="
  228.558,1405.9 228.558,47.2441 
  "/>
<polyline clip-path="url(#clip740)" style="stroke:#000000; stroke-width:4; stroke-opacity:1; fill:none" points="
  228.558,1367.45 254.049,1367.45 
  "/>
<polyline clip-path="url(#clip740)" style="stroke:#000000; stroke-width:4; stroke-opacity:1; fill:none" points="
  228.558,1138.56 254.049,1138.56 
  "/>
<polyline clip-path="url(#clip740)" style="stroke:#000000; stroke-width:4; stroke-opacity:1; fill:none" points="
  228.558,909.679 254.049,909.679 
  "/>
<polyline clip-path="url(#clip740)" style="stroke:#000000; stroke-width:4; stroke-opacity:1; fill:none" points="
  228.558,680.795 254.049,680.795 
  "/>
<polyline clip-path="url(#clip740)" style="stroke:#000000; stroke-width:4; stroke-opacity:1; fill:none" points="
  228.558,451.911 254.049,451.911 
  "/>
<polyline clip-path="url(#clip740)" style="stroke:#000000; stroke-width:4; stroke-opacity:1; fill:none" points="
  228.558,223.027 254.049,223.027 
  "/>
<path clip-path="url(#clip740)" d="M 0 0 M174.642 1346.15 Q169.225 1346.15 166.482 1351.49 Q163.774 1356.81 163.774 1367.5 Q163.774 1378.16 166.482 1383.51 Q169.225 1388.82 174.642 1388.82 Q180.093 1388.82 182.801 1383.51 Q185.544 1378.16 185.544 1367.5 Q185.544 1356.81 182.801 1351.49 Q180.093 1346.15 174.642 1346.15 M174.642 1340.59 Q183.357 1340.59 187.94 1347.5 Q192.558 1354.37 192.558 1367.5 Q192.558 1380.59 187.94 1387.5 Q183.357 1394.37 174.642 1394.37 Q165.927 1394.37 161.309 1387.5 Q156.725 1380.59 156.725 1367.5 Q156.725 1354.37 161.309 1347.5 Q165.927 1340.59 174.642 1340.59 Z" fill="#000000" fill-rule="evenodd" fill-opacity="1" /><path clip-path="url(#clip740)" d="M 0 0 M122.177 1158.58 L133.635 1158.58 L133.635 1119.03 L121.17 1121.53 L121.17 1115.14 L133.566 1112.64 L140.579 1112.64 L140.579 1158.58 L152.038 1158.58 L152.038 1164.48 L122.177 1164.48 L122.177 1158.58 Z" fill="#000000" fill-rule="evenodd" fill-opacity="1" /><path clip-path="url(#clip740)" d="M 0 0 M174.642 1117.26 Q169.225 1117.26 166.482 1122.61 Q163.774 1127.92 163.774 1138.62 Q163.774 1149.28 166.482 1154.62 Q169.225 1159.93 174.642 1159.93 Q180.093 1159.93 182.801 1154.62 Q185.544 1149.28 185.544 1138.62 Q185.544 1127.92 182.801 1122.61 Q180.093 1117.26 174.642 1117.26 M174.642 1111.71 Q183.357 1111.71 187.94 1118.62 Q192.558 1125.49 192.558 1138.62 Q192.558 1151.71 187.94 1158.62 Q183.357 1165.49 174.642 1165.49 Q165.927 1165.49 161.309 1158.62 Q156.725 1151.71 156.725 1138.62 Q156.725 1125.49 161.309 1118.62 Q165.927 1111.71 174.642 1111.71 Z" fill="#000000" fill-rule="evenodd" fill-opacity="1" /><path clip-path="url(#clip740)" d="M 0 0 M127.559 929.696 L152.038 929.696 L152.038 935.599 L119.121 935.599 L119.121 929.696 Q123.114 925.565 129.989 918.62 Q136.899 911.641 138.67 909.627 Q142.038 905.842 143.357 903.238 Q144.711 900.599 144.711 898.065 Q144.711 893.933 141.795 891.329 Q138.913 888.724 134.26 888.724 Q130.961 888.724 127.281 889.87 Q123.635 891.016 119.468 893.342 L119.468 886.259 Q123.705 884.558 127.385 883.69 Q131.066 882.822 134.121 882.822 Q142.177 882.822 146.968 886.849 Q151.76 890.877 151.76 897.613 Q151.76 900.808 150.545 903.69 Q149.364 906.537 146.204 910.426 Q145.336 911.433 140.684 916.259 Q136.031 921.051 127.559 929.696 Z" fill="#000000" fill-rule="evenodd" fill-opacity="1" /><path clip-path="url(#clip740)" d="M 0 0 M174.642 888.377 Q169.225 888.377 166.482 893.724 Q163.774 899.037 163.774 909.731 Q163.774 920.391 166.482 925.738 Q169.225 931.051 174.642 931.051 Q180.093 931.051 182.801 925.738 Q185.544 920.391 185.544 909.731 Q185.544 899.037 182.801 893.724 Q180.093 888.377 174.642 888.377 M174.642 882.822 Q183.357 882.822 187.94 889.731 Q192.558 896.606 192.558 909.731 Q192.558 922.822 187.94 929.731 Q183.357 936.606 174.642 936.606 Q165.927 936.606 161.309 929.731 Q156.725 922.822 156.725 909.731 Q156.725 896.606 161.309 889.731 Q165.927 882.822 174.642 882.822 Z" fill="#000000" fill-rule="evenodd" fill-opacity="1" /><path clip-path="url(#clip740)" d="M 0 0 M141.343 678.764 Q146.378 679.84 149.191 683.243 Q152.038 686.646 152.038 691.646 Q152.038 699.319 146.76 703.521 Q141.482 707.722 131.76 707.722 Q128.496 707.722 125.024 707.062 Q121.587 706.437 117.906 705.153 L117.906 698.382 Q120.823 700.083 124.295 700.951 Q127.767 701.819 131.552 701.819 Q138.149 701.819 141.586 699.215 Q145.059 696.611 145.059 691.646 Q145.059 687.062 141.829 684.493 Q138.635 681.889 132.906 681.889 L126.864 681.889 L126.864 676.125 L133.184 676.125 Q138.357 676.125 141.1 674.076 Q143.843 671.993 143.843 668.104 Q143.843 664.111 140.996 661.993 Q138.184 659.84 132.906 659.84 Q130.024 659.84 126.725 660.465 Q123.427 661.09 119.468 662.41 L119.468 656.16 Q123.461 655.049 126.934 654.493 Q130.441 653.938 133.531 653.938 Q141.517 653.938 146.17 657.583 Q150.822 661.195 150.822 667.375 Q150.822 671.681 148.357 674.667 Q145.892 677.618 141.343 678.764 Z" fill="#000000" fill-rule="evenodd" fill-opacity="1" /><path clip-path="url(#clip740)" d="M 0 0 M174.642 659.493 Q169.225 659.493 166.482 664.84 Q163.774 670.153 163.774 680.847 Q163.774 691.507 166.482 696.854 Q169.225 702.167 174.642 702.167 Q180.093 702.167 182.801 696.854 Q185.544 691.507 185.544 680.847 Q185.544 670.153 182.801 664.84 Q180.093 659.493 174.642 659.493 M174.642 653.938 Q183.357 653.938 187.94 660.847 Q192.558 667.722 192.558 680.847 Q192.558 693.937 187.94 700.847 Q183.357 707.722 174.642 707.722 Q165.927 707.722 161.309 700.847 Q156.725 693.937 156.725 680.847 Q156.725 667.722 161.309 660.847 Q165.927 653.938 174.642 653.938 Z" fill="#000000" fill-rule="evenodd" fill-opacity="1" /><path clip-path="url(#clip740)" d="M 0 0 M137.663 432.102 L119.955 459.776 L137.663 459.776 L137.663 432.102 M135.823 425.991 L144.642 425.991 L144.642 459.776 L152.038 459.776 L152.038 465.609 L144.642 465.609 L144.642 477.831 L137.663 477.831 L137.663 465.609 L114.26 465.609 L114.26 458.838 L135.823 425.991 Z" fill="#000000" fill-rule="evenodd" fill-opacity="1" /><path clip-path="url(#clip740)" d="M 0 0 M174.642 430.609 Q169.225 430.609 166.482 435.956 Q163.774 441.269 163.774 451.963 Q163.774 462.623 166.482 467.97 Q169.225 473.283 174.642 473.283 Q180.093 473.283 182.801 467.97 Q185.544 462.623 185.544 451.963 Q185.544 441.269 182.801 435.956 Q180.093 430.609 174.642 430.609 M174.642 425.054 Q183.357 425.054 187.94 431.963 Q192.558 438.838 192.558 451.963 Q192.558 465.053 187.94 471.963 Q183.357 478.838 174.642 478.838 Q165.927 478.838 161.309 471.963 Q156.725 465.053 156.725 451.963 Q156.725 438.838 161.309 431.963 Q165.927 425.054 174.642 425.054 Z" fill="#000000" fill-rule="evenodd" fill-opacity="1" /><path clip-path="url(#clip740)" d="M 0 0 M120.684 197.107 L148.218 197.107 L148.218 203.01 L127.107 203.01 L127.107 215.718 Q128.635 215.197 130.163 214.954 Q131.691 214.676 133.218 214.676 Q141.899 214.676 146.968 219.433 Q152.038 224.19 152.038 232.315 Q152.038 240.683 146.829 245.336 Q141.621 249.954 132.142 249.954 Q128.878 249.954 125.475 249.398 Q122.107 248.843 118.496 247.732 L118.496 240.683 Q121.621 242.385 124.955 243.218 Q128.288 244.051 132.003 244.051 Q138.01 244.051 141.517 240.892 Q145.024 237.732 145.024 232.315 Q145.024 226.899 141.517 223.739 Q138.01 220.579 132.003 220.579 Q129.191 220.579 126.378 221.204 Q123.6 221.829 120.684 223.149 L120.684 197.107 Z" fill="#000000" fill-rule="evenodd" fill-opacity="1" /><path clip-path="url(#clip740)" d="M 0 0 M174.642 201.725 Q169.225 201.725 166.482 207.072 Q163.774 212.385 163.774 223.079 Q163.774 233.739 166.482 239.086 Q169.225 244.398 174.642 244.398 Q180.093 244.398 182.801 239.086 Q185.544 233.739 185.544 223.079 Q185.544 212.385 182.801 207.072 Q180.093 201.725 174.642 201.725 M174.642 196.17 Q183.357 196.17 187.94 203.079 Q192.558 209.954 192.558 223.079 Q192.558 236.169 187.94 243.079 Q183.357 249.954 174.642 249.954 Q165.927 249.954 161.309 243.079 Q156.725 236.169 156.725 223.079 Q156.725 209.954 161.309 203.079 Q165.927 196.17 174.642 196.17 Z" fill="#000000" fill-rule="evenodd" fill-opacity="1" /><path clip-path="url(#clip740)" d="M 0 0 M40.4842 874.702 L40.4842 847.393 L45.895 847.393 L45.895 868.273 L59.8996 868.273 L59.8996 849.43 L65.3104 849.43 L65.3104 868.273 L88.0042 868.273 L88.0042 874.702 L40.4842 874.702 Z" fill="#000000" fill-rule="evenodd" fill-opacity="1" /><path clip-path="url(#clip740)" d="M 0 0 M57.8307 825.336 Q57.2578 826.323 57.0032 827.5 Q56.7167 828.646 56.7167 830.047 Q56.7167 835.012 59.9632 837.685 Q63.1779 840.327 69.2253 840.327 L88.0042 840.327 L88.0042 846.215 L52.3562 846.215 L52.3562 840.327 L57.8944 840.327 Q54.6479 838.481 53.0883 835.521 Q51.4968 832.561 51.4968 828.328 Q51.4968 827.723 51.5923 826.991 Q51.656 826.259 51.8151 825.368 L57.8307 825.336 Z" fill="#000000" fill-rule="evenodd" fill-opacity="1" /><path clip-path="url(#clip740)" d="M 0 0 M68.7161 790.134 L71.5806 790.134 L71.5806 817.06 Q77.6281 816.679 80.8109 813.432 Q83.9619 810.154 83.9619 804.329 Q83.9619 800.955 83.1344 797.804 Q82.3069 794.621 80.6518 791.502 L86.1899 791.502 Q87.5267 794.653 88.227 797.963 Q88.9272 801.274 88.9272 804.679 Q88.9272 813.209 83.9619 818.206 Q78.9967 823.172 70.5303 823.172 Q61.7774 823.172 56.6531 818.461 Q51.4968 813.718 51.4968 805.698 Q51.4968 798.504 56.1438 794.335 Q60.7589 790.134 68.7161 790.134 M66.9973 795.99 Q62.1912 796.054 59.3266 798.695 Q56.4621 801.305 56.4621 805.634 Q56.4621 810.536 59.2312 813.496 Q62.0002 816.424 67.0292 816.87 L66.9973 795.99 Z" fill="#000000" fill-rule="evenodd" fill-opacity="1" /><path clip-path="url(#clip740)" d="M 0 0 M70.212 780.49 Q76.6732 780.49 80.3653 777.848 Q84.0256 775.174 84.0256 770.527 Q84.0256 765.88 80.3653 763.207 Q76.6732 760.533 70.212 760.533 Q63.7508 760.533 60.0905 763.207 Q56.3984 765.88 56.3984 770.527 Q56.3984 775.174 60.0905 777.848 Q63.7508 780.49 70.212 780.49 M82.657 760.533 Q85.8398 762.379 87.3994 765.212 Q88.9272 768.013 88.9272 771.959 Q88.9272 778.421 83.771 782.495 Q78.6147 786.537 70.212 786.537 Q61.8093 786.537 56.6531 782.495 Q51.4968 778.421 51.4968 771.959 Q51.4968 768.013 53.0564 765.212 Q54.5842 762.379 57.7671 760.533 L52.3562 760.533 L52.3562 754.677 L101.563 754.677 L101.563 760.533 L82.657 760.533 Z" fill="#000000" fill-rule="evenodd" fill-opacity="1" /><path clip-path="url(#clip740)" d="M 0 0 M73.9359 749.138 L52.3562 749.138 L52.3562 743.282 L73.7131 743.282 Q78.7739 743.282 81.3202 741.309 Q83.8346 739.335 83.8346 735.388 Q83.8346 730.646 80.8109 727.909 Q77.7872 725.14 72.5673 725.14 L52.3562 725.14 L52.3562 719.283 L88.0042 719.283 L88.0042 725.14 L82.5296 725.14 Q85.7762 727.272 87.3676 730.105 Q88.9272 732.906 88.9272 736.63 Q88.9272 742.773 85.1078 745.956 Q81.2883 749.138 73.9359 749.138 M51.4968 734.402 L51.4968 734.402 Z" fill="#000000" fill-rule="evenodd" fill-opacity="1" /><path clip-path="url(#clip740)" d="M 0 0 M68.7161 682.649 L71.5806 682.649 L71.5806 709.576 Q77.6281 709.194 80.8109 705.947 Q83.9619 702.669 83.9619 696.844 Q83.9619 693.47 83.1344 690.319 Q82.3069 687.136 80.6518 684.017 L86.1899 684.017 Q87.5267 687.168 88.227 690.478 Q88.9272 693.789 88.9272 697.194 Q88.9272 705.724 83.9619 710.721 Q78.9967 715.687 70.5303 715.687 Q61.7774 715.687 56.6531 710.976 Q51.4968 706.234 51.4968 698.213 Q51.4968 691.019 56.1438 686.85 Q60.7589 682.649 68.7161 682.649 M66.9973 688.505 Q62.1912 688.569 59.3266 691.21 Q56.4621 693.82 56.4621 698.149 Q56.4621 703.051 59.2312 706.011 Q62.0002 708.939 67.0292 709.385 L66.9973 688.505 Z" fill="#000000" fill-rule="evenodd" fill-opacity="1" /><path clip-path="url(#clip740)" d="M 0 0 M66.4881 646.873 L88.0042 646.873 L88.0042 652.73 L66.679 652.73 Q61.6183 652.73 59.1038 654.703 Q56.5894 656.677 56.5894 660.623 Q56.5894 665.366 59.6131 668.103 Q62.6368 670.84 67.8567 670.84 L88.0042 670.84 L88.0042 676.728 L52.3562 676.728 L52.3562 670.84 L57.8944 670.84 Q54.6797 668.74 53.0883 665.907 Q51.4968 663.042 51.4968 659.318 Q51.4968 653.175 55.3163 650.024 Q59.1038 646.873 66.4881 646.873 Z" fill="#000000" fill-rule="evenodd" fill-opacity="1" /><path clip-path="url(#clip740)" d="M 0 0 M53.7248 615.077 L59.1993 615.077 Q57.8307 617.559 57.1623 620.074 Q56.4621 622.556 56.4621 625.103 Q56.4621 630.8 60.0905 633.951 Q63.6872 637.102 70.212 637.102 Q76.7369 637.102 80.3653 633.951 Q83.9619 630.8 83.9619 625.103 Q83.9619 622.556 83.2935 620.074 Q82.5933 617.559 81.2247 615.077 L86.6355 615.077 Q87.7814 617.527 88.3543 620.169 Q88.9272 622.779 88.9272 625.739 Q88.9272 633.792 83.8664 638.534 Q78.8057 643.277 70.212 643.277 Q61.491 643.277 56.4939 638.502 Q51.4968 633.696 51.4968 625.357 Q51.4968 622.652 52.0697 620.074 Q52.6108 617.496 53.7248 615.077 Z" fill="#000000" fill-rule="evenodd" fill-opacity="1" /><path clip-path="url(#clip740)" d="M 0 0 M91.3143 594.102 Q97.68 596.584 99.6216 598.94 Q101.563 601.295 101.563 605.242 L101.563 609.92 L96.6615 609.92 L96.6615 606.483 Q96.6615 604.064 95.5157 602.727 Q94.3699 601.39 90.1048 599.767 L87.4312 598.717 L52.3562 613.135 L52.3562 606.929 L80.238 595.789 L52.3562 584.649 L52.3562 578.442 L91.3143 594.102 Z" fill="#000000" fill-rule="evenodd" fill-opacity="1" /><path clip-path="url(#clip742)" d="
M345.393 85.6966 L345.393 1367.45 L818.025 1367.45 L818.025 85.6966 L345.393 85.6966 L345.393 85.6966  Z
  " fill="#009af9" fill-rule="evenodd" fill-opacity="0.8"/>
<polyline clip-path="url(#clip742)" style="stroke:#000000; stroke-width:4; stroke-opacity:0; fill:none" points="
  345.393,85.6966 345.393,1367.45 818.025,1367.45 818.025,85.6966 345.393,85.6966 
  "/>
<path clip-path="url(#clip742)" d="
M818.025 1275.89 L818.025 1367.45 L1290.66 1367.45 L1290.66 1275.89 L818.025 1275.89 L818.025 1275.89  Z
  " fill="#009af9" fill-rule="evenodd" fill-opacity="0.8"/>
<polyline clip-path="url(#clip742)" style="stroke:#000000; stroke-width:4; stroke-opacity:0; fill:none" points="
  818.025,1275.89 818.025,1367.45 1290.66,1367.45 1290.66,1275.89 818.025,1275.89 
  "/>
<path clip-path="url(#clip742)" d="
M1290.66 520.576 L1290.66 1367.45 L1763.29 1367.45 L1763.29 520.576 L1290.66 520.576 L1290.66 520.576  Z
  " fill="#009af9" fill-rule="evenodd" fill-opacity="0.8"/>
<polyline clip-path="url(#clip742)" style="stroke:#000000; stroke-width:4; stroke-opacity:0; fill:none" points="
  1290.66,520.576 1290.66,1367.45 1763.29,1367.45 1763.29,520.576 1290.66,520.576 
  "/>
<path clip-path="url(#clip742)" d="
M1763.29 1298.78 L1763.29 1367.45 L2235.92 1367.45 L2235.92 1298.78 L1763.29 1298.78 L1763.29 1298.78  Z
  " fill="#009af9" fill-rule="evenodd" fill-opacity="0.8"/>
<polyline clip-path="url(#clip742)" style="stroke:#000000; stroke-width:4; stroke-opacity:0; fill:none" points="
  1763.29,1298.78 1763.29,1367.45 2235.92,1367.45 2235.92,1298.78 1763.29,1298.78 
  "/>
</svg>
